<svg width="35" height="41" viewBox="0 0 35 41" fill="none" xmlns="http://www.w3.org/2000/svg">
<g clip-path="url(#clip0_712_559)">
<path d="M17.5004 14.145C13.5866 14.145 10.4023 17.3538 10.4023 21.2968C10.4023 25.2398 13.5858 28.4494 17.5004 28.4494C21.415 28.4494 24.5977 25.2398 24.5977 21.2968C24.5977 17.3538 21.4142 14.145 17.5004 14.145ZM19.7859 19.3181C20.0958 19.3181 20.3469 19.5719 20.3469 19.8826C20.3469 20.1933 20.0966 20.448 19.7859 20.448C19.4752 20.448 19.2257 20.1941 19.2257 19.8826C19.2257 19.5711 19.4768 19.3181 19.7859 19.3181ZM17.0641 17.847C17.3256 17.847 17.5362 18.06 17.5362 18.3219C17.5362 18.5838 17.3248 18.7976 17.0641 18.7976C16.8035 18.7976 16.5929 18.5854 16.5929 18.3219C16.5929 18.0584 16.8035 17.847 17.0641 17.847ZM22.9201 21.2968C22.9201 24.3133 20.4932 26.7589 17.5004 26.7589C14.5077 26.7589 12.099 24.331 12.0807 21.3304C17.3733 16.6242 17.0808 26.1271 22.9042 20.8988C22.9138 21.0293 22.9201 21.1615 22.9201 21.2968Z" fill="#276EF1" stroke="white" stroke-miterlimit="10"/>
<path d="M24.5928 14.15C22.7777 12.3203 20.2658 11.1855 17.5003 11.1855C14.7348 11.1855 12.222 12.3203 10.407 14.15C8.59115 15.979 7.46429 18.5111 7.46509 21.297C7.46509 24.0845 8.59115 26.6158 10.407 28.4448C12.222 30.2746 14.734 31.4101 17.5003 31.4093C20.2658 31.4093 22.7777 30.2746 24.5928 28.4448C25.3072 27.7249 25.9135 26.8945 26.388 25.9832H30.5115V17.7207H26.8846C26.3752 16.369 25.5893 15.1534 24.5928 14.15ZM23.7266 27.5727C22.1293 29.1823 19.9296 30.1761 17.4995 30.1761C15.0694 30.1761 12.8697 29.1823 11.2724 27.5727C9.67588 25.9632 8.68889 23.7466 8.68889 21.297C8.68889 18.8474 9.67588 16.6333 11.2724 15.0221C12.8697 13.4133 15.0694 12.4188 17.4995 12.4188C19.9296 12.4188 22.1285 13.4133 23.7266 15.0221C25.3231 16.6325 26.3101 18.8482 26.3101 21.297C26.3101 23.7458 25.3231 25.9624 23.7266 27.5727ZM27.2597 18.9547H29.2877V24.7492H26.9315C27.3217 23.6713 27.5347 22.5078 27.5347 21.297C27.5347 20.4914 27.4377 19.7067 27.2597 18.9547Z" fill="white"/>
<path d="M34.3547 0.649434C33.959 0.249844 33.4019 0 32.7972 0H2.20285C1.5981 0 1.04103 0.249844 0.645279 0.649434C0.24794 1.04902 0 1.60957 0 2.21977V37.4646C0 38.0747 0.24794 38.6353 0.645279 39.0349C1.04103 39.4345 1.5981 39.6851 2.20285 39.6843H4.16014V41H7.9134V39.6843H27.0866V41H30.8399V39.6843H32.7972C33.4019 39.6859 33.959 39.4345 34.3547 39.0349C34.7521 38.6361 35 38.0747 35 37.4646V2.21977C35 1.60957 34.7521 1.04902 34.3547 0.649434ZM33.0419 37.4646C33.0419 37.5366 33.0157 37.5911 32.9704 37.6391C32.9227 37.6856 32.8679 37.7112 32.7972 37.7112H2.20285C2.13292 37.7112 2.07729 37.6856 2.0304 37.6391C1.98431 37.5911 1.95968 37.5366 1.95888 37.4646V35.039H33.0427V37.4646H33.0419ZM33.0419 33.8066H1.95809V2.21977C1.95888 2.1493 1.98431 2.09324 2.02961 2.046C2.07729 1.99955 2.13212 1.97393 2.20205 1.97232H32.7972C32.8671 1.97312 32.9227 1.99875 32.9704 2.046C33.0165 2.09324 33.0419 2.1493 33.0419 2.21977V33.8066Z" fill="white"/>
<path d="M27.2287 4.79004H7.77026V9.72365H27.2287V4.79004Z" fill="white"/>
</g>
<defs>
<clipPath id="clip0_712_559">
<rect width="35" height="41" fill="white"/>
</clipPath>
</defs>
</svg>
