<svg width="169" height="142" viewBox="0 0 169 142" fill="none" xmlns="http://www.w3.org/2000/svg">
<path d="M43.9163 39.7754C43.3673 39.7754 42.8283 39.886 42.3183 40.1022C35.7049 42.926 30.3963 48.0487 27.3638 54.5308C26.908 55.5041 26.8614 56.598 27.2318 57.607C27.6021 58.6186 28.3481 59.4268 29.3347 59.8829C29.8761 60.1326 30.4481 60.2589 31.0412 60.2589C32.6131 60.2589 34.0581 59.3421 34.7183 57.924C36.912 53.2416 40.7442 49.5424 45.5168 47.5139C46.5113 47.0893 47.2801 46.3064 47.6844 45.305C48.0858 44.3061 48.0729 43.2095 47.6455 42.2212C47.0058 40.7355 45.5399 39.7754 43.9163 39.7754Z" fill="#276EF1"/>
<path d="M107.557 53.4617C107.552 23.9892 83.4253 0.00525 53.777 0C24.1294 0.00525 0.00495117 23.9892 0 53.4617C0.00495117 82.9342 24.1294 106.916 53.7773 106.921C83.4253 106.916 107.552 82.9342 107.557 53.4617ZM53.7773 96.4468C42.2332 96.4441 31.3752 91.9724 23.2025 83.8559C15.0377 75.7289 10.5394 64.9349 10.5368 53.4617C10.5394 41.9833 15.0374 31.1896 23.2025 23.0675C31.3802 14.9487 42.2385 10.477 53.7773 10.4744C65.3192 10.477 76.1771 14.9487 84.3525 23.0675C92.5199 31.1945 97.0182 41.9885 97.0209 53.4617C97.0182 64.9326 92.5202 75.7263 84.3525 83.8559C76.1797 91.9724 65.3218 96.4441 53.7773 96.4468Z" fill="#276EF1"/>
<path d="M141.095 9.64844C125.713 9.65106 113.192 22.0949 113.187 37.3885C113.192 52.6794 125.713 65.1232 141.095 65.1285C156.477 65.1232 168.995 52.6794 169 37.3885C168.995 22.0949 156.477 9.65106 141.095 9.64844ZM153.374 49.6009C150.086 52.8572 145.725 54.6514 141.095 54.6541C136.462 54.6514 132.101 52.8573 128.81 49.5983C125.534 46.3292 123.729 41.994 123.726 37.3888C123.729 32.7835 125.534 28.4487 128.812 25.1763C132.101 21.92 136.462 20.1258 141.095 20.1232C145.725 20.1258 150.086 21.9203 153.377 25.1789C156.653 28.4484 158.46 32.7862 158.463 37.3888C158.461 41.9911 156.653 46.3289 153.374 49.6009Z" fill="#276EF1"/>
<path d="M115.223 69.2061C114.337 72.6297 113.156 75.9864 111.706 79.2096C117.035 80.131 121.859 82.6152 125.71 86.4382C130.67 91.3755 133.399 97.9321 133.402 104.898C133.399 111.864 130.67 118.421 125.71 123.358C120.743 128.287 114.148 131.003 107.141 131.006C100.133 131.003 93.5377 128.288 88.5687 123.358C84.9329 119.738 82.4884 115.213 81.4526 110.219C78.262 111.758 74.9348 113.032 71.5317 114.016C75.7089 130.221 90.2468 141.475 107.141 141.48C127.428 141.475 143.936 125.064 143.941 104.898C143.936 87.815 131.902 72.9257 115.223 69.2061Z" fill="#276EF1"/>
</svg>
