<svg width="27" height="19" viewBox="0 0 27 19" fill="none" xmlns="http://www.w3.org/2000/svg">
<g clip-path="url(#clip0_731_393)">
<path d="M26.1504 0.0235524C25.5716 -0.0989607 25.0029 0.270604 24.8801 0.849757L24.5767 2.28245C23.8541 2.34624 23.3934 2.50183 22.9769 2.64358C22.522 2.79815 22.1625 2.92033 21.3573 2.92033C20.552 2.92033 20.1926 2.79815 19.7376 2.64358C19.1986 2.46032 18.5877 2.25275 17.4284 2.25275C16.2691 2.25275 15.6582 2.46032 15.1193 2.64358C14.6643 2.79815 14.3049 2.92033 13.4996 2.92033C12.6943 2.92033 12.3352 2.79815 11.8803 2.64358C11.3413 2.46032 10.7304 2.25275 9.57109 2.25275C8.41178 2.25275 7.8009 2.46032 7.26192 2.64358C6.80697 2.79815 6.44753 2.92033 5.64259 2.92033C4.83765 2.92033 4.47822 2.79815 4.02327 2.64358C3.60679 2.50183 3.14577 2.34624 2.42352 2.28245L2.1201 0.849757C1.99725 0.270604 1.42857 -0.0992982 0.849416 0.0235524C0.270603 0.146066 -0.099297 0.714756 0.023553 1.29357L3.59498 18.1508C3.69994 18.6459 4.137 19.0003 4.64325 19.0003H22.3573C22.8635 19.0003 23.3006 18.6459 23.4056 18.1508L26.977 1.29357C27.0995 0.714756 26.7299 0.146066 26.1508 0.0232149L26.1504 0.0235524ZM21.4886 16.8571H5.51097L2.9004 4.5346C3.04688 4.5751 3.18525 4.62168 3.33342 4.6723C3.8724 4.85557 4.48328 5.06313 5.64259 5.06313C6.8019 5.06313 7.41278 4.85557 7.95143 4.6723C8.40638 4.51773 8.76582 4.39555 9.57075 4.39555C10.3757 4.39555 10.7351 4.51773 11.1901 4.6723C11.7291 4.85557 12.3399 5.06313 13.4993 5.06313C14.6586 5.06313 15.2694 4.85557 15.8084 4.6723C16.2634 4.51773 16.6228 4.39555 17.4278 4.39555C18.2327 4.39555 18.5921 4.51773 19.0474 4.6723C19.5864 4.85557 20.1973 5.06313 21.3569 5.06313C22.5166 5.06313 23.1271 4.85557 23.6661 4.6723C23.8143 4.62201 23.9526 4.5751 24.0991 4.5346L21.4886 16.8571Z" fill="white"/>
<path d="M11.3571 10.9286C12.1461 10.9286 12.7857 10.289 12.7857 9.49993C12.7857 8.71092 12.1461 8.07129 11.3571 8.07129C10.5681 8.07129 9.92847 8.71092 9.92847 9.49993C9.92847 10.289 10.5681 10.9286 11.3571 10.9286Z" fill="white"/>
<path d="M15.6427 10.9286C16.4318 10.9286 17.0714 10.289 17.0714 9.49993C17.0714 8.71092 16.4318 8.07129 15.6427 8.07129C14.8537 8.07129 14.2141 8.71092 14.2141 9.49993C14.2141 10.289 14.8537 10.9286 15.6427 10.9286Z" fill="white"/>
</g>
<defs>
<clipPath id="clip0_731_393">
<rect width="27" height="19" fill="white"/>
</clipPath>
</defs>
</svg>
