<svg width="169" height="169" viewBox="0 0 169 169" fill="none" xmlns="http://www.w3.org/2000/svg">
<g filter="url(#filter0_i_803_777)">
<path d="M113.618 5.60387C116.362 4.60306 119.391 6.01581 120.389 8.75946L128.736 31.6857H112.633C110.452 25.5356 104.603 21.123 97.708 21.123C90.8133 21.123 84.9642 25.5382 82.7883 31.6857H41.9504L113.618 5.60387Z" fill="#F9EBB2"/>
<path d="M106.805 31.6856H88.6082C90.4381 28.5459 93.8076 26.4043 97.7052 26.4043C101.603 26.4043 104.975 28.5432 106.805 31.6856Z" fill="#F76D57"/>
<path d="M141.181 16.8818C139.79 15.638 137.638 15.8255 137.622 15.8255C137.437 15.8413 134.192 16.1793 128.905 16.718L134.358 31.6853H142.6V21.1227C142.6 19.1501 142.124 17.7215 141.181 16.8818Z" fill="#506C7F"/>
<path d="M7.02246 32.3405C8.13418 31.9417 9.3172 31.6856 10.5662 31.6856H26.5106L43.2814 25.583C29.1354 27.0644 17.1547 28.3267 10.8593 29.0291C9.06633 29.2298 7.85163 30.6267 7.02246 32.3405Z" fill="#506C7F"/>
<path d="M153.162 158.437C153.162 161.355 150.799 163.719 147.881 163.719H10.5662C7.65095 163.719 5.28491 161.355 5.28491 158.437V42.2481C5.28491 39.3328 7.65095 36.9668 10.5662 36.9668H147.881C150.799 36.9668 153.162 39.3328 153.162 42.2481V84.4987H110.911C107.993 84.4987 105.63 86.8621 105.63 89.7801V110.905C105.63 113.823 107.993 116.187 110.911 116.187H153.162V158.437Z" fill="#276EF1" fill-opacity="0.39"/>
<path d="M163.725 108.265C163.725 109.725 162.544 110.906 161.084 110.906H113.552C112.092 110.906 110.911 109.725 110.911 108.265V92.4209C110.911 90.9606 112.092 89.7803 113.552 89.7803H161.084C162.544 89.7803 163.725 90.9606 163.725 92.4209V108.265Z" fill="#276EF1"/>
<path d="M163.725 84.4988H158.443V42.2482C158.443 36.4097 153.719 31.6855 147.881 31.6855V21.1229C147.881 17.5791 146.814 14.8249 144.699 12.9421C141.567 10.1456 137.474 10.5391 137.051 10.5761C136.861 10.5919 133.133 10.9775 127.046 11.6033L125.353 6.95573C123.357 1.46843 117.302 -1.35708 111.814 0.641903L63.7254 18.1416C41.0262 20.497 19.5365 22.7522 10.2757 23.7768C2.51479 24.6402 0.167242 34.0833 0.00352088 39.5283C-0.0044011 39.8795 0.00352088 158.437 0.00352088 158.437C0.00352088 164.276 4.72767 169 10.5662 169H147.881C153.719 169 158.443 164.276 158.443 158.437V116.187H163.725C166.643 116.187 169.006 113.823 169.006 110.905V89.7801C169.006 86.8622 166.643 84.4988 163.725 84.4988ZM137.622 15.8257C137.637 15.8257 139.787 15.6409 141.181 16.882C142.124 17.7217 142.599 19.1503 142.599 21.1229V31.6855H134.358L128.907 16.7183C134.191 16.1796 137.437 15.8416 137.622 15.8257ZM113.618 5.60371C116.362 4.6029 119.391 6.01565 120.389 8.7593L128.736 31.6855H112.633C110.452 25.5354 104.603 21.1229 97.708 21.1229C90.8133 21.1229 84.9642 25.5381 82.7883 31.6855H41.9504L113.618 5.60371ZM106.805 31.6855H88.6083C90.4383 28.5458 93.8078 26.4042 97.7054 26.4042C101.603 26.4042 104.975 28.5431 106.805 31.6855ZM10.8593 29.029C17.1573 28.3266 29.1353 27.0644 43.2813 25.583L26.5131 31.6855H10.5662C9.3145 31.6855 8.13148 31.9443 7.01976 32.3404C7.85157 30.6266 9.06628 29.2297 10.8593 29.029ZM153.162 158.437C153.162 161.355 150.799 163.719 147.881 163.719H10.5662C7.65088 163.719 5.28485 161.355 5.28485 158.437V42.2482C5.28485 39.3329 7.65088 36.9669 10.5662 36.9669H147.881C150.799 36.9669 153.162 39.3329 153.162 42.2482V84.4988H110.911C107.993 84.4988 105.63 86.8622 105.63 89.7801V110.905C105.63 113.823 107.993 116.187 110.911 116.187H153.162V158.437ZM163.725 108.265C163.725 109.725 162.544 110.905 161.084 110.905H113.552C112.092 110.905 110.911 109.725 110.911 108.265V92.4208C110.911 90.9605 112.092 89.7801 113.552 89.7801H161.084C162.544 89.7801 163.725 90.9605 163.725 92.4208V108.265Z" fill="#394240"/>
<path d="M121.474 105.624C124.391 105.624 126.755 103.26 126.755 100.343C126.755 97.4261 124.391 95.0615 121.474 95.0615C118.557 95.0615 116.193 97.4261 116.193 100.343C116.193 103.26 118.557 105.624 121.474 105.624Z" fill="#394240"/>
<path d="M139.958 52.8106H145.24C146.7 52.8106 147.88 51.6302 147.88 50.17C147.88 48.7097 146.7 47.5293 145.24 47.5293H139.958C138.498 47.5293 137.318 48.7097 137.318 50.17C137.318 51.6302 138.498 52.8106 139.958 52.8106Z" fill="#394240"/>
<path d="M124.115 52.8106H129.396C130.856 52.8106 132.037 51.6302 132.037 50.17C132.037 48.7097 130.856 47.5293 129.396 47.5293H124.115C122.654 47.5293 121.474 48.7097 121.474 50.17C121.474 51.6302 122.654 52.8106 124.115 52.8106Z" fill="#394240"/>
<path d="M108.27 52.8106H113.552C115.012 52.8106 116.192 51.6302 116.192 50.17C116.192 48.7097 115.012 47.5293 113.552 47.5293H108.27C106.81 47.5293 105.63 48.7097 105.63 50.17C105.63 51.6302 106.81 52.8106 108.27 52.8106Z" fill="#394240"/>
<path d="M97.7079 47.5293H92.4266C90.9663 47.5293 89.7859 48.7097 89.7859 50.17C89.7859 51.6302 90.9663 52.8106 92.4266 52.8106H97.7079C99.1682 52.8106 100.349 51.6302 100.349 50.17C100.349 48.7097 99.1682 47.5293 97.7079 47.5293Z" fill="#394240"/>
<path d="M81.8641 47.5293H76.5828C75.1225 47.5293 73.9421 48.7097 73.9421 50.17C73.9421 51.6302 75.1225 52.8106 76.5828 52.8106H81.8641C83.3244 52.8106 84.5048 51.6302 84.5048 50.17C84.5048 48.7097 83.3244 47.5293 81.8641 47.5293Z" fill="#394240"/>
<path d="M66.0204 47.5293H60.7391C59.2788 47.5293 58.0984 48.7097 58.0984 50.17C58.0984 51.6302 59.2788 52.8106 60.7391 52.8106H66.0204C67.4807 52.8106 68.661 51.6302 68.661 50.17C68.661 48.7097 67.4807 47.5293 66.0204 47.5293Z" fill="#394240"/>
<path d="M50.1761 47.5293H44.8948C43.4372 47.5293 42.2542 48.7097 42.2542 50.17C42.2542 51.6302 43.4345 52.8106 44.8948 52.8106H50.1761C51.6364 52.8106 52.8168 51.6302 52.8168 50.17C52.8168 48.7097 51.6364 47.5293 50.1761 47.5293Z" fill="#394240"/>
<path d="M34.3319 47.5293H29.0506C27.5903 47.5293 26.4099 48.7097 26.4099 50.17C26.4099 51.6302 27.5903 52.8106 29.0506 52.8106H34.3319C35.7922 52.8106 36.9726 51.6302 36.9726 50.17C36.9726 48.7097 35.7922 47.5293 34.3319 47.5293Z" fill="#394240"/>
<path d="M18.4882 47.5293H13.2068C11.7465 47.5293 10.5662 48.7097 10.5662 50.17C10.5662 51.6302 11.7465 52.8106 13.2068 52.8106H18.4882C19.9484 52.8106 21.1288 51.6302 21.1288 50.17C21.1288 48.7097 19.9484 47.5293 18.4882 47.5293Z" fill="#394240"/>
<path d="M139.958 153.156H145.24C146.7 153.156 147.88 151.976 147.88 150.516C147.88 149.055 146.7 147.875 145.24 147.875H139.958C138.498 147.875 137.318 149.055 137.318 150.516C137.318 151.976 138.498 153.156 139.958 153.156Z" fill="#394240"/>
<path d="M124.115 153.156H129.396C130.856 153.156 132.037 151.976 132.037 150.516C132.037 149.055 130.856 147.875 129.396 147.875H124.115C122.654 147.875 121.474 149.055 121.474 150.516C121.474 151.976 122.654 153.156 124.115 153.156Z" fill="#394240"/>
<path d="M105.63 150.516C105.63 151.976 106.81 153.156 108.27 153.156H113.552C115.012 153.156 116.192 151.976 116.192 150.516C116.192 149.055 115.012 147.875 113.552 147.875H108.27C106.81 147.875 105.63 149.055 105.63 150.516Z" fill="#394240"/>
<path d="M97.7079 147.875H92.4266C90.9663 147.875 89.7859 149.055 89.7859 150.516C89.7859 151.976 90.9663 153.156 92.4266 153.156H97.7079C99.1682 153.156 100.349 151.976 100.349 150.516C100.349 149.055 99.1682 147.875 97.7079 147.875Z" fill="#394240"/>
<path d="M81.8641 147.875H76.5828C75.1225 147.875 73.9421 149.055 73.9421 150.516C73.9421 151.976 75.1225 153.156 76.5828 153.156H81.8641C83.3244 153.156 84.5048 151.976 84.5048 150.516C84.5048 149.055 83.3244 147.875 81.8641 147.875Z" fill="#394240"/>
<path d="M66.0204 147.875H60.7391C59.2788 147.875 58.0984 149.055 58.0984 150.516C58.0984 151.976 59.2788 153.156 60.7391 153.156H66.0204C67.4807 153.156 68.661 151.976 68.661 150.516C68.661 149.055 67.4807 147.875 66.0204 147.875Z" fill="#394240"/>
<path d="M50.1761 147.875H44.8948C43.4372 147.875 42.2542 149.055 42.2542 150.516C42.2542 151.976 43.4345 153.156 44.8948 153.156H50.1761C51.6364 153.156 52.8168 151.976 52.8168 150.516C52.8168 149.055 51.6364 147.875 50.1761 147.875Z" fill="#394240"/>
<path d="M34.3319 147.875H29.0506C27.5903 147.875 26.4099 149.055 26.4099 150.516C26.4099 151.976 27.5903 153.156 29.0506 153.156H34.3319C35.7922 153.156 36.9726 151.976 36.9726 150.516C36.9726 149.055 35.7922 147.875 34.3319 147.875Z" fill="#394240"/>
<path d="M18.4882 147.875H13.2068C11.7465 147.875 10.5662 149.055 10.5662 150.516C10.5662 151.976 11.7465 153.156 13.2068 153.156H18.4882C19.9484 153.156 21.1288 151.976 21.1288 150.516C21.1288 149.055 19.9484 147.875 18.4882 147.875Z" fill="#394240"/>
</g>
<defs>
<filter id="filter0_i_803_777" x="0" y="0" width="169.006" height="173" filterUnits="userSpaceOnUse" color-interpolation-filters="sRGB">
<feFlood flood-opacity="0" result="BackgroundImageFix"/>
<feBlend mode="normal" in="SourceGraphic" in2="BackgroundImageFix" result="shape"/>
<feColorMatrix in="SourceAlpha" type="matrix" values="0 0 0 0 0 0 0 0 0 0 0 0 0 0 0 0 0 0 127 0" result="hardAlpha"/>
<feOffset dy="4"/>
<feGaussianBlur stdDeviation="2"/>
<feComposite in2="hardAlpha" operator="arithmetic" k2="-1" k3="1"/>
<feColorMatrix type="matrix" values="0 0 0 0 0 0 0 0 0 0 0 0 0 0 0 0 0 0 0.25 0"/>
<feBlend mode="normal" in2="shape" result="effect1_innerShadow_803_777"/>
</filter>
</defs>
</svg>
