<svg width="168" height="179" viewBox="0 0 168 179" fill="none" xmlns="http://www.w3.org/2000/svg">
<g filter="url(#filter0_i_1182_466)">
<path d="M166.584 101.302C165.468 99.8219 163.721 98.9517 161.868 98.9517H5.90764C4.05376 98.9517 2.30776 99.8213 1.19157 101.302C0.0753813 102.782 -0.282015 104.7 0.22726 106.482L19.7226 174.715C20.447 177.251 22.765 179 25.403 179H142.373C145.01 179 147.329 177.251 148.053 174.715L167.549 106.482C168.057 104.7 167.701 102.782 166.584 101.302ZM137.917 167.184H29.8587L13.739 110.767H154.036L137.917 167.184Z" fill="#276EF1"/>
</g>
<g filter="url(#filter1_i_1182_466)">
<path d="M40.0236 89.7952H137.499C140.761 89.7952 143.407 87.15 143.407 83.8876V45.3858C149.335 40.7312 153.154 33.5067 153.154 25.4029C153.154 11.3957 141.758 0 127.752 0H30.2763C27.0139 0 24.3687 2.64522 24.3687 5.9076V44.4094C18.4406 49.064 14.6213 56.2885 14.6213 64.3923C14.6213 78.3995 26.0171 89.7952 40.0236 89.7952ZM36.1839 31.3105H118.004C121.266 31.3105 123.911 28.6653 123.911 25.4029C123.911 22.1405 121.266 19.4953 118.004 19.4953H36.1839V11.8152H127.752C135.244 11.8152 141.339 17.9102 141.339 25.4023C141.339 32.8944 135.244 38.99 127.752 38.99H36.1839V31.3105ZM40.0236 50.8052H131.591V58.4853H49.7716C46.5092 58.4853 43.864 61.1305 43.864 64.3929C43.864 67.6553 46.5092 70.3005 49.7716 70.3005H131.591V77.98H40.0236C32.531 77.98 26.4359 71.885 26.4359 64.3929C26.4359 56.9008 32.5316 50.8052 40.0236 50.8052Z" fill="#276EF1"/>
</g>
<path d="M28.2272 113.527L37.9745 147.79C38.7134 150.388 41.0802 152.083 43.6537 152.083C44.1883 152.083 44.7331 152.01 45.2731 151.856C48.4114 150.963 50.2315 147.696 49.3383 144.557L39.5909 110.293C38.6978 107.156 35.4306 105.332 32.2923 106.228C29.1541 107.121 27.334 110.388 28.2272 113.527Z" fill="#276EF1"/>
<path d="M81.9076 152.079C85.17 152.079 87.8152 149.434 87.8152 146.171V111.908C87.8152 108.645 85.17 106 81.9076 106C78.6452 106 76 108.645 76 111.908V146.171C76 149.434 78.6452 152.079 81.9076 152.079Z" fill="#276EF1"/>
<path d="M118.293 151.855C118.833 152.009 119.377 152.082 119.912 152.082C122.486 152.082 124.852 150.388 125.591 147.789L135.339 113.526C136.232 110.388 134.412 107.12 131.273 106.227C128.135 105.334 124.867 107.155 123.974 110.292L114.227 144.557C113.334 147.695 115.154 150.963 118.293 151.855Z" fill="#276EF1"/>
<defs>
<filter id="filter0_i_1182_466" x="0" y="98.9517" width="167.776" height="84.0479" filterUnits="userSpaceOnUse" color-interpolation-filters="sRGB">
<feFlood flood-opacity="0" result="BackgroundImageFix"/>
<feBlend mode="normal" in="SourceGraphic" in2="BackgroundImageFix" result="shape"/>
<feColorMatrix in="SourceAlpha" type="matrix" values="0 0 0 0 0 0 0 0 0 0 0 0 0 0 0 0 0 0 127 0" result="hardAlpha"/>
<feOffset dy="4"/>
<feGaussianBlur stdDeviation="2"/>
<feComposite in2="hardAlpha" operator="arithmetic" k2="-1" k3="1"/>
<feColorMatrix type="matrix" values="0 0 0 0 0 0 0 0 0 0 0 0 0 0 0 0 0 0 0.25 0"/>
<feBlend mode="normal" in2="shape" result="effect1_innerShadow_1182_466"/>
</filter>
<filter id="filter1_i_1182_466" x="14.6213" y="0" width="138.532" height="93.7954" filterUnits="userSpaceOnUse" color-interpolation-filters="sRGB">
<feFlood flood-opacity="0" result="BackgroundImageFix"/>
<feBlend mode="normal" in="SourceGraphic" in2="BackgroundImageFix" result="shape"/>
<feColorMatrix in="SourceAlpha" type="matrix" values="0 0 0 0 0 0 0 0 0 0 0 0 0 0 0 0 0 0 127 0" result="hardAlpha"/>
<feOffset dy="4"/>
<feGaussianBlur stdDeviation="2"/>
<feComposite in2="hardAlpha" operator="arithmetic" k2="-1" k3="1"/>
<feColorMatrix type="matrix" values="0 0 0 0 0 0 0 0 0 0 0 0 0 0 0 0 0 0 0.25 0"/>
<feBlend mode="normal" in2="shape" result="effect1_innerShadow_1182_466"/>
</filter>
</defs>
</svg>
