<svg width="297" height="305" viewBox="0 0 297 305" fill="none" xmlns="http://www.w3.org/2000/svg">
<path d="M65.0557 74.8799H226.375C230.523 74.8799 233.887 78.335 233.887 82.5942V232.056C233.887 236.315 230.523 239.771 226.375 239.771H65.0557C60.9082 239.771 57.5437 236.315 57.5437 232.056V82.5942C57.5437 78.335 60.9082 74.8799 65.0557 74.8799Z" fill="white"/>
<path d="M226.376 247.455H65.0558C56.7897 247.455 50.0608 240.545 50.0608 232.056V82.5942C50.0608 74.1055 56.7897 67.1953 65.0558 67.1953H226.376C234.642 67.1953 241.371 74.1055 241.371 82.5942V232.056C241.371 240.545 234.642 247.455 226.376 247.455ZM65.0558 82.5942V232.056H226.376V82.5942H65.0558Z" fill="#333333"/>
<path d="M65.0557 82.5049H229.943V127.808H65.0557V82.5049Z" fill="#2ED1C4"/>
<path d="M52 122.379H235.827V137.808H52V122.379ZM138.2 193.655L167.494 163.572C170.916 160.057 176.456 160.057 179.878 163.572L179.907 163.602C183.33 167.116 183.33 172.805 179.907 176.32L144.9 212.241C143.072 214.117 140.607 215.011 138.2 214.862C135.792 215.011 133.356 214.117 131.5 212.241L109.457 189.604C106.034 186.089 106.034 180.4 109.457 176.886L109.486 176.856C112.908 173.341 118.448 173.341 121.87 176.856L138.2 193.655Z" fill="#333333"/>
<path d="M95.0458 49.6816C99.1933 49.6816 102.558 53.1367 102.558 57.396V68.9526H87.5627V57.396C87.5627 53.1069 90.9272 49.6816 95.0458 49.6816ZM192.615 49.6816C196.762 49.6816 200.127 53.1367 200.127 57.396V68.9526H185.132V57.396C185.103 53.1069 188.467 49.6816 192.615 49.6816Z" fill="#333333"/>
</svg>
