<?xml version="1.0" encoding="UTF-8"?>
<svg id="Layer_1" xmlns="http://www.w3.org/2000/svg" version="1.1" viewBox="0 0 334 400">
  <!-- Generator: Adobe Illustrator 29.1.0, SVG Export Plug-In . SVG Version: 2.1.0 Build 142)  -->
  <defs>
    <style>
      .st0 {
        fill: #e0e0e0;
      }

      .st1, .st2, .st3, .st4, .st5, .st6, .st7, .st8, .st9, .st10, .st11 {
        isolation: isolate;
      }

      .st1, .st7 {
        opacity: .1;
      }

      .st2, .st11 {
        opacity: .4;
      }

      .st3, .st12, .st9 {
        opacity: .2;
      }

      .st13 {
        fill: #ebebeb;
      }

      .st14 {
        fill: #263238;
      }

      .st15 {
        fill: #eabdbd;
      }

      .st16 {
        fill: #3d4eb0;
      }

      .st4 {
        fill: #fafafa;
        opacity: .6;
      }

      .st17 {
        fill: #e2e5f4;
      }

      .st18, .st5, .st6, .st7, .st8, .st9, .st10, .st11 {
        fill: #fff;
      }

      .st19 {
        fill: #f0f0f0;
      }

      .st20 {
        fill: #ffc3bd;
      }

      .st21 {
        fill: #eec1bb;
      }

      .st22 {
        fill: #f5f5f5;
      }

      .st23 {
        fill: #d4827d;
      }

      .st5 {
        opacity: .7;
      }

      .st6 {
        opacity: .9;
      }

      .st8 {
        opacity: .3;
      }

      .st10 {
        opacity: .5;
      }
    </style>
  </defs>
  <path class="st17" d="M45.9,212.4s56.7-2.3,68.9-95.4c10.9-82.7,106.4-45.1,134.1-12.1,35.8,42.7,16.7,116.2,63,125.5,46.3,9.3,16.1,112.5-54.2,102.6-87.4-12.3-66.3,38.8-92.5,60.4-18.8,15.5-96,.6-98.6-55.7-2.2-47.4-22.2-47.2-36.3-52.6-20.4-7.8-33.3-63.9,15.7-72.6Z"/>
  <path class="st13" d="M334,255.4H0v.2h334v-.2Z"/>
  <path class="st13" d="M300.5,266.2h-22.1v.2h22.1v-.2Z"/>
  <path class="st13" d="M221.3,268h-5.8v.2h5.8v-.2Z"/>
  <path class="st13" d="M277.7,260h-12.8v.2h12.8v-.2Z"/>
  <path class="st13" d="M63.9,261.1h-28.9v.2h28.9v-.2Z"/>
  <path class="st13" d="M74.1,261.1h-4.2v.2h4.2v-.2Z"/>
  <path class="st13" d="M150.4,263.9h-62.6v.2h62.6v-.2Z"/>
  <path class="st0" d="M201.2,150.4h66.5v-73.6h-66.5v73.6Z"/>
  <path class="st19" d="M199.1,150.4h69v-73.6h-69v73.6Z"/>
  <path class="st18" d="M202,147.1h63.3v-67.9h-63.3v67.9Z"/>
  <path class="st0" d="M202,147.1h1.8v-67.9h-1.8v67.9Z"/>
  <path class="st0" d="M203.7,128v1.8h61.8v-1.8h-61.8Z"/>
  <path class="st19" d="M202,128h64.3v-3.1h-64.3v3.1Z"/>
  <path class="st0" d="M131.2,95.8c7.2-2.2,11.3-9.8,9.1-17-2.2-7.2-9.8-11.3-17-9.1-7.2,2.2-11.3,9.8-9.1,17,2.2,7.2,9.8,11.3,17,9.1Z"/>
  <path class="st19" d="M129.1,94.2c6.3-1,10.6-7,9.6-13.3-1-6.3-7-10.6-13.3-9.6-6.3,1-10.6,7-9.6,13.3,1,6.3,7,10.6,13.3,9.6Z"/>
  <path class="st19" d="M126.7,90.7v-8.1l-5.4,3"/>
  <path class="st0" d="M126.7,91.3c0,0-.2,0-.2,0,0,0-.1,0-.2-.1,0,0,0-.1-.1-.2,0,0,0-.1,0-.2v-7.1l-4.5,2.6c0,0-.1,0-.2,0,0,0-.2,0-.2,0,0,0-.1,0-.2-.1,0,0-.1-.1-.1-.2,0-.1,0-.3,0-.4,0-.1.1-.3.3-.3l5.3-3c0,0,.2,0,.3,0s.2,0,.3,0c0,0,.2.1.2.2,0,0,0,.2,0,.3v8.1c0,.1,0,.3-.2.4-.1.1-.2.2-.4.2Z"/>
  <path class="st22" d="M64.4,249.7h-14.4v5.7h14.4v-5.7Z"/>
  <path class="st22" d="M48.7,249.7h-6.6v5.7h6.6v-5.7Z"/>
  <path class="st22" d="M80.1,249.7h-14.4v5.7h14.4v-5.7Z"/>
  <path class="st22" d="M95.8,249.7h-14.4v5.7h14.4v-5.7Z"/>
  <path class="st22" d="M111.4,249.7h-14.4v5.7h14.4v-5.7Z"/>
  <path class="st22" d="M127.1,249.7h-14.4v5.7h14.4v-5.7Z"/>
  <path class="st22" d="M142.8,249.7h-14.4v5.7h14.4v-5.7Z"/>
  <path class="st22" d="M158.5,249.7h-14.4v5.7h14.4v-5.7Z"/>
  <path class="st22" d="M174.2,249.7h-14.4v5.7h14.4v-5.7Z"/>
  <path class="st22" d="M189.9,249.7h-14.4v5.7h14.4v-5.7Z"/>
  <path class="st22" d="M205.6,249.7h-14.4v5.7h14.4v-5.7Z"/>
  <path class="st22" d="M221.3,249.7h-14.4v5.7h14.4v-5.7Z"/>
  <path class="st22" d="M237,249.7h-14.4v5.7h14.4v-5.7Z"/>
  <path class="st22" d="M252.7,249.7h-14.4v5.7h14.4v-5.7Z"/>
  <path class="st22" d="M268.3,249.7h-14.4v5.7h14.4v-5.7Z"/>
  <path class="st22" d="M284,249.7h-14.4v5.7h14.4v-5.7Z"/>
  <path class="st22" d="M291.9,249.7h-6.6v5.7h6.6v-5.7Z"/>
  <path class="st22" d="M56.5,242.6h-14.4v5.7h14.4v-5.7Z"/>
  <path class="st22" d="M72.2,242.6h-14.4v5.7h14.4v-5.7Z"/>
  <path class="st22" d="M87.9,242.6h-14.4v5.7h14.4v-5.7Z"/>
  <path class="st22" d="M103.6,242.6h-14.4v5.7h14.4v-5.7Z"/>
  <path class="st22" d="M119.3,242.6h-14.4v5.7h14.4v-5.7Z"/>
  <path class="st22" d="M135,242.6h-14.4v5.7h14.4v-5.7Z"/>
  <path class="st22" d="M150.7,242.6h-14.4v5.7h14.4v-5.7Z"/>
  <path class="st22" d="M166.4,242.6h-14.4v5.7h14.4v-5.7Z"/>
  <path class="st22" d="M182.1,242.6h-14.4v5.7h14.4v-5.7Z"/>
  <path class="st22" d="M197.7,242.6h-14.4v5.7h14.4v-5.7Z"/>
  <path class="st22" d="M213.4,242.6h-14.4v5.7h14.4v-5.7Z"/>
  <path class="st22" d="M229.1,242.6h-14.4v5.7h14.4v-5.7Z"/>
  <path class="st22" d="M244.8,242.6h-14.4v5.7h14.4v-5.7Z"/>
  <path class="st22" d="M260.5,242.6h-14.4v5.7h14.4v-5.7Z"/>
  <path class="st22" d="M276.2,242.6h-14.4v5.7h14.4v-5.7Z"/>
  <path class="st22" d="M291.9,242.6h-14.4v5.7h14.4v-5.7Z"/>
  <path class="st22" d="M64.4,235.4h-14.4v5.7h14.4v-5.7Z"/>
  <path class="st22" d="M48.7,235.4h-6.6v5.7h6.6v-5.7Z"/>
  <path class="st22" d="M80.1,235.4h-14.4v5.7h14.4v-5.7Z"/>
  <path class="st22" d="M95.8,235.4h-14.4v5.7h14.4v-5.7Z"/>
  <path class="st22" d="M111.4,235.4h-14.4v5.7h14.4v-5.7Z"/>
  <path class="st22" d="M127.1,235.4h-14.4v5.7h14.4v-5.7Z"/>
  <path class="st22" d="M142.8,235.4h-14.4v5.7h14.4v-5.7Z"/>
  <path class="st22" d="M158.5,235.4h-14.4v5.7h14.4v-5.7Z"/>
  <path class="st22" d="M174.2,235.4h-14.4v5.7h14.4v-5.7Z"/>
  <path class="st22" d="M189.9,235.4h-14.4v5.7h14.4v-5.7Z"/>
  <path class="st22" d="M205.6,235.4h-14.4v5.7h14.4v-5.7Z"/>
  <path class="st22" d="M221.3,235.4h-14.4v5.7h14.4v-5.7Z"/>
  <path class="st22" d="M237,235.4h-14.4v5.7h14.4v-5.7Z"/>
  <path class="st22" d="M252.7,235.4h-14.4v5.7h14.4v-5.7Z"/>
  <path class="st22" d="M268.3,235.4h-14.4v5.7h14.4v-5.7Z"/>
  <path class="st22" d="M284,235.4h-14.4v5.7h14.4v-5.7Z"/>
  <path class="st22" d="M291.9,235.4h-6.6v5.7h6.6v-5.7Z"/>
  <path class="st22" d="M56.5,228.3h-14.4v5.7h14.4v-5.7Z"/>
  <path class="st22" d="M72.2,228.3h-14.4v5.7h14.4v-5.7Z"/>
  <path class="st22" d="M87.9,228.3h-14.4v5.7h14.4v-5.7Z"/>
  <path class="st22" d="M103.6,228.3h-14.4v5.7h14.4v-5.7Z"/>
  <path class="st22" d="M119.3,228.3h-14.4v5.7h14.4v-5.7Z"/>
  <path class="st22" d="M135,228.3h-14.4v5.7h14.4v-5.7Z"/>
  <path class="st22" d="M150.7,228.3h-14.4v5.7h14.4v-5.7Z"/>
  <path class="st22" d="M166.4,228.3h-14.4v5.7h14.4v-5.7Z"/>
  <path class="st22" d="M182.1,228.3h-14.4v5.7h14.4v-5.7Z"/>
  <path class="st22" d="M197.7,228.3h-14.4v5.7h14.4v-5.7Z"/>
  <path class="st22" d="M213.4,228.3h-14.4v5.7h14.4v-5.7Z"/>
  <path class="st22" d="M229.1,228.3h-14.4v5.7h14.4v-5.7Z"/>
  <path class="st22" d="M244.8,228.3h-14.4v5.7h14.4v-5.7Z"/>
  <path class="st22" d="M260.5,228.3h-14.4v5.7h14.4v-5.7Z"/>
  <path class="st22" d="M276.2,228.3h-14.4v5.7h14.4v-5.7Z"/>
  <path class="st22" d="M291.9,228.3h-14.4v5.7h14.4v-5.7Z"/>
  <path class="st22" d="M64.4,221.1h-14.4v5.7h14.4v-5.7Z"/>
  <path class="st22" d="M48.7,221.1h-6.6v5.7h6.6v-5.7Z"/>
  <path class="st22" d="M80.1,221.1h-14.4v5.7h14.4v-5.7Z"/>
  <path class="st22" d="M95.8,221.1h-14.4v5.7h14.4v-5.7Z"/>
  <path class="st22" d="M111.4,221.1h-14.4v5.7h14.4v-5.7Z"/>
  <path class="st22" d="M127.1,221.1h-14.4v5.7h14.4v-5.7Z"/>
  <path class="st22" d="M142.8,221.1h-14.4v5.7h14.4v-5.7Z"/>
  <path class="st22" d="M158.5,221.1h-14.4v5.7h14.4v-5.7Z"/>
  <path class="st22" d="M174.2,221.1h-14.4v5.7h14.4v-5.7Z"/>
  <path class="st22" d="M189.9,221.1h-14.4v5.7h14.4v-5.7Z"/>
  <path class="st22" d="M205.6,221.1h-14.4v5.7h14.4v-5.7Z"/>
  <path class="st22" d="M221.3,221.1h-14.4v5.7h14.4v-5.7Z"/>
  <path class="st22" d="M237,221.1h-14.4v5.7h14.4v-5.7Z"/>
  <path class="st22" d="M252.7,221.1h-14.4v5.7h14.4v-5.7Z"/>
  <path class="st22" d="M268.3,221.1h-14.4v5.7h14.4v-5.7Z"/>
  <path class="st22" d="M284,221.1h-14.4v5.7h14.4v-5.7Z"/>
  <path class="st22" d="M291.9,221.1h-6.6v5.7h6.6v-5.7Z"/>
  <path class="st22" d="M56.5,214h-14.4v5.7h14.4v-5.7Z"/>
  <path class="st22" d="M72.2,214h-14.4v5.7h14.4v-5.7Z"/>
  <path class="st22" d="M87.9,214h-14.4v5.7h14.4v-5.7Z"/>
  <path class="st22" d="M103.6,214h-14.4v5.7h14.4v-5.7Z"/>
  <path class="st22" d="M119.3,214h-14.4v5.7h14.4v-5.7Z"/>
  <path class="st22" d="M135,214h-14.4v5.7h14.4v-5.7Z"/>
  <path class="st22" d="M150.7,214h-14.4v5.7h14.4v-5.7Z"/>
  <path class="st22" d="M166.4,214h-14.4v5.7h14.4v-5.7Z"/>
  <path class="st22" d="M182.1,214h-14.4v5.7h14.4v-5.7Z"/>
  <path class="st22" d="M197.7,214h-14.4v5.7h14.4v-5.7Z"/>
  <path class="st22" d="M213.4,214h-14.4v5.7h14.4v-5.7Z"/>
  <path class="st22" d="M229.1,214h-14.4v5.7h14.4v-5.7Z"/>
  <path class="st22" d="M244.8,214h-14.4v5.7h14.4v-5.7Z"/>
  <path class="st22" d="M260.5,214h-14.4v5.7h14.4v-5.7Z"/>
  <path class="st22" d="M276.2,214h-14.4v5.7h14.4v-5.7Z"/>
  <path class="st22" d="M291.9,214h-14.4v5.7h14.4v-5.7Z"/>
  <path class="st22" d="M64.4,206.8h-14.4v5.7h14.4v-5.7Z"/>
  <path class="st22" d="M48.7,206.8h-6.6v5.7h6.6v-5.7Z"/>
  <path class="st22" d="M80.1,206.8h-14.4v5.7h14.4v-5.7Z"/>
  <path class="st22" d="M95.8,206.8h-14.4v5.7h14.4v-5.7Z"/>
  <path class="st22" d="M111.4,206.8h-14.4v5.7h14.4v-5.7Z"/>
  <path class="st22" d="M127.1,206.8h-14.4v5.7h14.4v-5.7Z"/>
  <path class="st22" d="M142.8,206.8h-14.4v5.7h14.4v-5.7Z"/>
  <path class="st22" d="M158.5,206.8h-14.4v5.7h14.4v-5.7Z"/>
  <path class="st22" d="M174.2,206.8h-14.4v5.7h14.4v-5.7Z"/>
  <path class="st22" d="M189.9,206.8h-14.4v5.7h14.4v-5.7Z"/>
  <path class="st22" d="M205.6,206.8h-14.4v5.7h14.4v-5.7Z"/>
  <path class="st22" d="M221.3,206.8h-14.4v5.7h14.4v-5.7Z"/>
  <path class="st22" d="M237,206.8h-14.4v5.7h14.4v-5.7Z"/>
  <path class="st22" d="M252.7,206.8h-14.4v5.7h14.4v-5.7Z"/>
  <path class="st22" d="M268.3,206.8h-14.4v5.7h14.4v-5.7Z"/>
  <path class="st22" d="M284,206.8h-14.4v5.7h14.4v-5.7Z"/>
  <path class="st22" d="M291.9,206.8h-6.6v5.7h6.6v-5.7Z"/>
  <path class="st22" d="M56.5,199.7h-14.4v5.7h14.4v-5.7Z"/>
  <path class="st22" d="M72.2,199.7h-14.4v5.7h14.4v-5.7Z"/>
  <path class="st22" d="M87.9,199.7h-14.4v5.7h14.4v-5.7Z"/>
  <path class="st22" d="M103.6,199.7h-14.4v5.7h14.4v-5.7Z"/>
  <path class="st22" d="M119.3,199.7h-14.4v5.7h14.4v-5.7Z"/>
  <path class="st22" d="M135,199.7h-14.4v5.7h14.4v-5.7Z"/>
  <path class="st22" d="M150.7,199.7h-14.4v5.7h14.4v-5.7Z"/>
  <path class="st22" d="M166.4,199.7h-14.4v5.7h14.4v-5.7Z"/>
  <path class="st22" d="M182.1,199.7h-14.4v5.7h14.4v-5.7Z"/>
  <path class="st22" d="M197.7,199.7h-14.4v5.7h14.4v-5.7Z"/>
  <path class="st22" d="M213.4,199.7h-14.4v5.7h14.4v-5.7Z"/>
  <path class="st22" d="M229.1,199.7h-14.4v5.7h14.4v-5.7Z"/>
  <path class="st22" d="M244.8,199.7h-14.4v5.7h14.4v-5.7Z"/>
  <path class="st22" d="M260.5,199.7h-14.4v5.7h14.4v-5.7Z"/>
  <path class="st22" d="M276.2,199.7h-14.4v5.7h14.4v-5.7Z"/>
  <path class="st22" d="M291.9,199.7h-14.4v5.7h14.4v-5.7Z"/>
  <path class="st22" d="M64.4,192.6h-14.4v5.7h14.4v-5.7Z"/>
  <path class="st22" d="M48.7,192.6h-6.6v5.7h6.6v-5.7Z"/>
  <path class="st22" d="M80.1,192.6h-14.4v5.7h14.4v-5.7Z"/>
  <path class="st22" d="M95.8,192.6h-14.4v5.7h14.4v-5.7Z"/>
  <path class="st22" d="M111.4,192.6h-14.4v5.7h14.4v-5.7Z"/>
  <path class="st22" d="M127.1,192.6h-14.4v5.7h14.4v-5.7Z"/>
  <path class="st22" d="M142.8,192.6h-14.4v5.7h14.4v-5.7Z"/>
  <path class="st22" d="M158.5,192.6h-14.4v5.7h14.4v-5.7Z"/>
  <path class="st22" d="M174.2,192.6h-14.4v5.7h14.4v-5.7Z"/>
  <path class="st22" d="M189.9,192.6h-14.4v5.7h14.4v-5.7Z"/>
  <path class="st22" d="M205.6,192.6h-14.4v5.7h14.4v-5.7Z"/>
  <path class="st22" d="M221.3,192.6h-14.4v5.7h14.4v-5.7Z"/>
  <path class="st22" d="M237,192.6h-14.4v5.7h14.4v-5.7Z"/>
  <path class="st22" d="M252.7,192.6h-14.4v5.7h14.4v-5.7Z"/>
  <path class="st22" d="M268.3,192.6h-14.4v5.7h14.4v-5.7Z"/>
  <path class="st22" d="M284,192.6h-14.4v5.7h14.4v-5.7Z"/>
  <path class="st22" d="M291.9,192.6h-6.6v5.7h6.6v-5.7Z"/>
  <path class="st22" d="M56.5,185.4h-14.4v5.7h14.4v-5.7Z"/>
  <path class="st22" d="M72.2,185.4h-14.4v5.7h14.4v-5.7Z"/>
  <path class="st22" d="M87.9,185.4h-14.4v5.7h14.4v-5.7Z"/>
  <path class="st22" d="M103.6,185.4h-14.4v5.7h14.4v-5.7Z"/>
  <path class="st22" d="M119.3,185.4h-14.4v5.7h14.4v-5.7Z"/>
  <path class="st22" d="M135,185.4h-14.4v5.7h14.4v-5.7Z"/>
  <path class="st22" d="M150.7,185.4h-14.4v5.7h14.4v-5.7Z"/>
  <path class="st22" d="M166.4,185.4h-14.4v5.7h14.4v-5.7Z"/>
  <path class="st22" d="M182.1,185.4h-14.4v5.7h14.4v-5.7Z"/>
  <path class="st22" d="M197.7,185.4h-14.4v5.7h14.4v-5.7Z"/>
  <path class="st22" d="M213.4,185.4h-14.4v5.7h14.4v-5.7Z"/>
  <path class="st22" d="M229.1,185.4h-14.4v5.7h14.4v-5.7Z"/>
  <path class="st22" d="M244.8,185.4h-14.4v5.7h14.4v-5.7Z"/>
  <path class="st22" d="M260.5,185.4h-14.4v5.7h14.4v-5.7Z"/>
  <path class="st22" d="M276.2,185.4h-14.4v5.7h14.4v-5.7Z"/>
  <path class="st22" d="M291.9,185.4h-14.4v5.7h14.4v-5.7Z"/>
  <path class="st22" d="M64.4,178.2h-14.4v5.7h14.4v-5.7Z"/>
  <path class="st22" d="M48.7,178.2h-6.6v5.7h6.6v-5.7Z"/>
  <path class="st22" d="M80.1,178.2h-14.4v5.7h14.4v-5.7Z"/>
  <path class="st22" d="M95.8,178.2h-14.4v5.7h14.4v-5.7Z"/>
  <path class="st22" d="M111.4,178.2h-14.4v5.7h14.4v-5.7Z"/>
  <path class="st22" d="M127.1,178.2h-14.4v5.7h14.4v-5.7Z"/>
  <path class="st22" d="M142.8,178.2h-14.4v5.7h14.4v-5.7Z"/>
  <path class="st22" d="M158.5,178.2h-14.4v5.7h14.4v-5.7Z"/>
  <path class="st22" d="M174.2,178.2h-14.4v5.7h14.4v-5.7Z"/>
  <path class="st22" d="M189.9,178.2h-14.4v5.7h14.4v-5.7Z"/>
  <path class="st22" d="M205.6,178.2h-14.4v5.7h14.4v-5.7Z"/>
  <path class="st22" d="M221.3,178.2h-14.4v5.7h14.4v-5.7Z"/>
  <path class="st22" d="M237,178.2h-14.4v5.7h14.4v-5.7Z"/>
  <path class="st22" d="M252.7,178.2h-14.4v5.7h14.4v-5.7Z"/>
  <path class="st22" d="M268.3,178.2h-14.4v5.7h14.4v-5.7Z"/>
  <path class="st22" d="M284,178.2h-14.4v5.7h14.4v-5.7Z"/>
  <path class="st22" d="M291.9,178.2h-6.6v5.7h6.6v-5.7Z"/>
  <path class="st22" d="M56.5,171.1h-14.4v5.7h14.4v-5.7Z"/>
  <path class="st22" d="M72.2,171.1h-14.4v5.7h14.4v-5.7Z"/>
  <path class="st22" d="M87.9,171.1h-14.4v5.7h14.4v-5.7Z"/>
  <path class="st22" d="M103.6,171.1h-14.4v5.7h14.4v-5.7Z"/>
  <path class="st22" d="M119.3,171.1h-14.4v5.7h14.4v-5.7Z"/>
  <path class="st22" d="M135,171.1h-14.4v5.7h14.4v-5.7Z"/>
  <path class="st22" d="M150.7,171.1h-14.4v5.7h14.4v-5.7Z"/>
  <path class="st22" d="M166.4,171.1h-14.4v5.7h14.4v-5.7Z"/>
  <path class="st22" d="M182.1,171.1h-14.4v5.7h14.4v-5.7Z"/>
  <path class="st22" d="M197.7,171.1h-14.4v5.7h14.4v-5.7Z"/>
  <path class="st22" d="M213.4,171.1h-14.4v5.7h14.4v-5.7Z"/>
  <path class="st22" d="M229.1,171.1h-14.4v5.7h14.4v-5.7Z"/>
  <path class="st22" d="M244.8,171.1h-14.4v5.7h14.4v-5.7Z"/>
  <path class="st22" d="M260.5,171.1h-14.4v5.7h14.4v-5.7Z"/>
  <path class="st22" d="M276.2,171.1h-14.4v5.7h14.4v-5.7Z"/>
  <path class="st22" d="M291.9,171.1h-14.4v5.7h14.4v-5.7Z"/>
  <path class="st22" d="M167,285.6c71.5,0,129.5-3.4,129.5-7.6s-58-7.6-129.5-7.6-129.5,3.4-129.5,7.6,58,7.6,129.5,7.6Z"/>
  <path class="st16" d="M166.7,123.3s-2.7,3.9-5.8,3.9-6.5-3.9-6.5-3.9c0,0-8,5.9-9.4,7.7-1.4,1.9-2.2,23.1-1.6,32.2.7,9.2-10.6,81.7-9.7,88.1.9,6.4,17.8,4.1,27.7,4.2,9.9,0,23.8,3.7,25.4-1.7,1.6-5.4-.9-34.6-4.4-49.4-3.5-14.8-3.7-48.6-4.4-55.8-.7-7.2-1.2-15.3-1.7-17.6-.5-2.3-9.7-7.7-9.7-7.7Z"/>
  <path class="st16" d="M147.6,204.5c.2,5-.1,9.9-.9,14.8-.5,3.3-1,4.1-4.5,3.4-2.2-.4-4.4-1.6-6.7-.9-.8.2-1.4.7-2.2,1-1.7.7-3.6.7-5.5.8h-13c-3,0-6,.7-6.3-3-1.2-14.4-.9-28.9.2-43.3.3-3.6.6-7.2.9-10.8.3-3.1,1.1-6.6.7-9.7-.9-5.6-.9-11.1-.7-16.8,0-2.4-.6-7.7,1-9.8,1.4-1.9,10.5-7,10.5-7,0,0,3.4,3.9,6.5,3.9s5.8-3.9,5.8-3.9c0,0,11,6,11.5,8.3.5,2.3-.8,9.8-.1,17,.8,8.7.1,17.3.7,26.1.5,8.7,1.7,17.4,2.2,26.1,0,1.3,0,2.5.1,3.8Z"/>
  <path class="st16" d="M112.2,202.4c.2,5-.1,9.9-.9,14.8-.5,3.3-1,4.1-4.5,3.4-2.2-.4-4.4-1.6-6.7-.9-.8.2-1.4.7-2.2,1-1.7.7-3.6.7-5.5.7h-13c-3,0-6,.7-6.3-3-1.2-14.4-.9-28.9.2-43.3.3-3.6.6-7.2.9-10.8.3-3.1,1.2-6.6.7-9.7-.9-5.6,1.1-9.8,1.3-15.4,0-2.4-.6-7.7,1-9.8,1.4-1.9,8.5-8.4,8.5-8.4,0,0,3.4,3.9,6.5,3.9s5.8-3.9,5.8-3.9c0,0,9.6,7.3,10.2,9.7.5,2.3.5,8.5,1.2,15.7.8,8.7.1,17.3.7,26.1s1.7,17.4,2.2,26.1c0,1.3,0,2.5.1,3.8Z"/>
  <path class="st5" d="M112.2,202.4c.2,5-.1,9.9-.9,14.8-.5,3.3-1,4.1-4.5,3.4-2.2-.4-4.4-1.6-6.7-.9-.8.2-1.4.7-2.2,1-1.7.7-3.6.7-5.5.7h-13c-3,0-6,.7-6.3-3-1.2-14.4-.9-28.9.2-43.3.3-3.6.6-7.2.9-10.8.3-3.1,1.2-6.6.7-9.7-.9-5.6,1.1-9.8,1.3-15.4,0-2.4-.6-7.7,1-9.8,1.4-1.9,8.5-8.4,8.5-8.4,0,0,3.4,3.9,6.5,3.9s5.8-3.9,5.8-3.9c0,0,9.6,7.3,10.2,9.7.5,2.3.5,8.5,1.2,15.7.8,8.7.1,17.3.7,26.1s1.7,17.4,2.2,26.1c0,1.3,0,2.5.1,3.8Z"/>
  <path class="st5" d="M147.6,204.5c.2,5-.1,9.9-.9,14.8-.5,3.3-1,4.1-4.5,3.4-2.2-.4-4.4-1.6-6.7-.9-.8.2-1.4.7-2.2,1-1.7.7-3.6.7-5.5.8h-13c-3,0-6,.7-6.3-3-1.2-14.4-.9-28.9.2-43.3.3-3.6.6-7.2.9-10.8.3-3.1,1.1-6.6.7-9.7-.9-5.6-.9-11.1-.7-16.8,0-2.4-.6-7.7,1-9.8,1.4-1.9,10.5-7,10.5-7,0,0,3.4,3.9,6.5,3.9s5.8-3.9,5.8-3.9c0,0,11,6,11.5,8.3.5,2.3-.8,9.8-.1,17,.8,8.7.1,17.3.7,26.1.5,8.7,1.7,17.4,2.2,26.1,0,1.3,0,2.5.1,3.8Z"/>
  <path class="st5" d="M166.7,123.3s-2.7,3.9-5.8,3.9-6.5-3.9-6.5-3.9c0,0-8,5.9-9.4,7.7-1.4,1.9-2.2,23.1-1.6,32.2.7,9.2-10.6,81.7-9.7,88.1.9,6.4,17.8,4.1,27.7,4.2,9.9,0,23.8,3.7,25.4-1.7,1.6-5.4-.9-34.6-4.4-49.4-3.5-14.8-3.7-48.6-4.4-55.8-.7-7.2-1.2-15.3-1.7-17.6-.5-2.3-9.7-7.7-9.7-7.7Z"/>
  <path class="st14" d="M61.5,269.9h2.4V114.4c0-.3.1-.5.3-.7.2-.2.4-.3.7-.3h124.3c.3,0,.5.1.7.3.2.2.3.4.3.7v155.5h2.2c.3,0,.5.1.7.3.2.2.3.4.3.7s-.1.5-.3.7c-.2.2-.4.3-.7.3h-7.4c-.3,0-.5-.1-.7-.3-.2-.2-.3-.4-.3-.7s.1-.5.3-.7c.2-.2.4-.3.7-.3h3.1V115.4h-122.3v154.5h3c.3,0,.5.1.7.3.2.2.3.4.3.7s-.1.5-.3.7c-.2.2-.4.3-.7.3h-7.4c-.3,0-.5-.1-.7-.3-.2-.2-.3-.4-.3-.7s.1-.5.3-.7c.2-.2.4-.3.7-.3Z"/>
  <path class="st11" d="M61.5,269.9h2.4V114.4c0-.3.1-.5.3-.7.2-.2.4-.3.7-.3h124.3c.3,0,.5.1.7.3.2.2.3.4.3.7v155.5h2.2c.3,0,.5.1.7.3.2.2.3.4.3.7s-.1.5-.3.7c-.2.2-.4.3-.7.3h-7.4c-.3,0-.5-.1-.7-.3-.2-.2-.3-.4-.3-.7s.1-.5.3-.7c.2-.2.4-.3.7-.3h3.1V115.4h-122.3v154.5h3c.3,0,.5.1.7.3.2.2.3.4.3.7s-.1.5-.3.7c-.2.2-.4.3-.7.3h-7.4c-.3,0-.5-.1-.7-.3-.2-.2-.3-.4-.3-.7s.1-.5.3-.7c.2-.2.4-.3.7-.3Z"/>
  <path class="st14" d="M146.7,131.4c0-.2,0-.5,0-.7,0-.2.2-.5.4-.6l13.2-9.7c0,0,.1,0,.2,0s.1,0,.2,0l14.1,9.7c.2.1.4.3.4.6,0,.2,0,.5,0,.7,0,.2-.2.4-.4.6-.2.1-.4.2-.7.2h-26.3c-.2,0-.5,0-.7-.2-.2-.1-.4-.3-.4-.6ZM147.5,130.7c0,0-.2.2-.2.3,0,.1,0,.2,0,.3,0,.1,0,.2.2.3,0,0,.2,0,.3,0h26.3c.1,0,.2,0,.3,0,0,0,.2-.2.2-.3,0-.1,0-.2,0-.3,0-.1-.1-.2-.2-.3l-13.9-9.6-13,9.6Z"/>
  <path class="st14" d="M160.6,121c0,0,.2,0,.2,0s0-.1,0-.2v-3.5c.3-.5,1.8-3,1.1-4.2-.2-.2-.4-.4-.6-.5-.3-.1-.5-.2-.8-.1-1.1,0-1.9.3-2.2.8-.1.2-.2.5-.1.7,0,.2,0,.5.2.7,0,0,0,0,0,0,0,0,0,0,.1,0,0,0,0,0,.1,0,0,0,0,0,.1,0,0,0,.1-.1.1-.2s0-.2,0-.2c0-.1-.1-.2-.1-.4,0-.1,0-.3,0-.4.2-.3.8-.5,1.6-.5s.8.3.8.3c.4.7-.5,2.6-1.1,3.6,0,0,0,.1,0,.2v3.6c0,0,0,.2.1.2,0,0,.2,0,.2,0Z"/>
  <path class="st16" d="M168.5,136.2l.5-10.8,2.5,1.9-.9,9.2-2.1-.3Z"/>
  <path class="st16" d="M153.1,136.5l-1-11.1-2.3,1.9.6,9.2h2.7Z"/>
  <path class="st3" d="M168.5,136.2l.5-10.8,2.5,1.9-.9,9.2-2.1-.3Z"/>
  <path class="st3" d="M153.1,136.5l-1-11.1-2.3,1.9.6,9.2h2.7Z"/>
  <path class="st16" d="M141.1,248.8c2.1,0,4.3-.8,6.3-.1,1,.3,1.9,1,2.9,1.4,2.4,1,5.2.4,7.6-.6,2.4-1,4.8-2.2,7.3-2.6,4.7-.6,9.4,2.1,14.1,1.9,2.2-.1,6.6-1.1,7.1-3.5,0-.6-.1-1.1-.3-1.7-.3-1.7-.6-3.4-.8-5.1l-2.8-16.8-7.3-44.2c-1.1-6.8-2.3-13.7-3.4-20.5l-.5-2.8c0-.2,0-.3,0-.5l.4-2.7c.6-3.6,1.1-7.3,1.7-10.9l.7-4.4c.1-.4.1-.8,0-1.2,0,0,0-.2-.1-.2-.7-.9-3.4-.8-4.4-.7-1.7.2-3.2,1-4.9,1.5-3.5,1.1-7.3,1.1-10.9.1-1.1-.4-2.2-.6-3.3-.8-1.3-.1-3.1.1-3.1,1.7,0,.6.2,1.2.3,1.8,1,6,2,12,3,17.9h0c0,.7-.2,1.3-.3,1.9l-3.5,21.1c-2.4,14.5-4.8,29-7.2,43.5-.9,5.6-1.8,11.2-2.8,16.7-.6,3.9-2.5,9.7,4,9.6Z"/>
  <path class="st3" d="M150.5,157.9c1.3.5,4.2,1.5,6.8.6,3.5-1.2,7.3,2.5,11.7.4,1-.5,2-1.1,2.8-1.9l-.5-2.8c-1.3,1.2-3.2,2.4-5.5,2-4.1-.9-6.2-1.5-9.6.1-2,.9-4.1.4-5.5-.2,0,.6-.2,1.2-.3,1.8Z"/>
  <path class="st14" d="M113,131.4c0-.2,0-.5,0-.7,0-.2.2-.5.4-.6l13.2-9.7c0,0,.1,0,.2,0s.1,0,.2,0l14.1,9.7c.2.1.4.3.4.6,0,.2,0,.5,0,.7,0,.2-.2.4-.4.6-.2.1-.4.2-.7.2h-26.3c-.2,0-.5,0-.7-.2-.2-.1-.3-.3-.4-.6ZM113.9,130.7c0,0-.2.2-.2.3,0,.1,0,.2,0,.3,0,.1,0,.2.2.3,0,0,.2,0,.3,0h26.3c.1,0,.2,0,.3-.1,0,0,.2-.2.2-.3,0-.1,0-.2,0-.3,0-.1-.1-.2-.2-.3l-13.8-9.6-13.1,9.6Z"/>
  <path class="st14" d="M126.9,121c0,0,.2,0,.2,0,0,0,0-.1,0-.2v-3.5c.3-.5,1.8-3,1.1-4.2-.1-.2-.4-.4-.6-.5-.3-.1-.5-.2-.8-.1-1.1,0-1.9.3-2.2.8-.1.2-.2.5-.1.7,0,.2,0,.5.2.7,0,0,.1.1.2.1,0,0,.2,0,.2,0,0,0,.1-.1.2-.2,0,0,0-.2,0-.3,0-.1-.1-.2-.1-.4,0-.1,0-.3,0-.4.2-.3.8-.5,1.6-.5s.8.3.8.3c.4.7-.5,2.6-1.1,3.6,0,0,0,.1,0,.2v3.6c0,0,0,.2.1.2,0,0,.1,0,.2,0Z"/>
  <path class="st14" d="M133.7,124.4s-4.7,3.4-7.2,3.4-5.8-3.8-5.8-3.8l-6,4.1c-.9.6-2.7,1.4-3.3,2.3-.9,1.4,1,4.6,1.9,5.9.2.3.4.6.6,1,0,.3,0,.6,0,.9.1,2.2,2.1,3.3,2.4,5.2.2,1-.2,2.3-.3,3.3-.1,1.7-.3,3.3-.4,5-.4,5-.8,9.9-1.2,14.9-1,11.7-2,23.5-2.9,35.2-.4,4.5-.8,9.1-1.1,13.6,0,.8-.5,2.3,0,3,.6.4,1.3.7,2,1,1.6.6,3.2,1,4.9,1.1,4.7.6,9.5,1.1,14.1-.1.8-.2,1.5-.4,2.3-.6,2.2-.3,4.4.4,6.6.2,1.9-.1,3.1-1.4,4.8-1.8-.7-5.9-1.2-11.9-1.8-17.9-1.2-11.5-2.4-23.1-3.6-34.6l-1.5-14.4-.5-4.8c-.1-.8-.2-1.5-.2-2.3,0-1.8,1.8-3.3,2.9-4.7.3-.3.5-.6.7-1,.1-.3.3-.7.3-1.1.5-2.3,1.6-4.1,2.7-6.1-2.7-2.8-7-4.9-10.3-7.1Z"/>
  <path class="st10" d="M110.3,218.5c.6.4,1.3.7,2,.9,1.6.6,3.2,1,4.9,1.1,4.7.6,9.5,1.1,14.1-.1.8-.2,1.5-.4,2.3-.6,2.2-.3,4.4.4,6.6.2,1.9-.1,3.1-1.4,4.8-1.8-.7-5.9-1.2-11.9-1.8-17.9-1.2-11.5-2.4-23.1-3.6-34.6l-1.5-14.4-.5-4.8c-.1-.8-.2-1.5-.2-2.3,0-.5.2-1,.4-1.5.7-1.2,1.5-2.2,2.5-3.2.3-.3.5-.6.7-1,.1-.3.3-.7.3-1.1.5-2.3,1.6-4.1,2.7-6.1-2.8-2.8-7-4.9-10.3-7.1,0,0-4.7,3.4-7.2,3.4s-5.8-3.8-5.8-3.8l-6,4.1c-.9.6-2.7,1.4-3.3,2.3-.9,1.4,1,4.6,1.9,5.9.2.3.4.6.6,1,0,.3,0,.6,0,.9.1,1.9,1.6,3,2.2,4.6,0,.2.1.4.2.7.2,1-.2,2.3-.3,3.3-.1,1.7-.3,3.3-.4,5-.4,5-.8,9.9-1.2,14.9-1,11.7-2,23.5-2.9,35.2-.4,4.5-.8,9.1-1.1,13.6,0,.8-.5,2.3,0,3Z"/>
  <path class="st3" d="M110.3,218.5c.6.4,1.3.7,2,.9,1.6.6,3.2,1,4.9,1.1,4.7.6,9.5,1.1,14.1-.1.8-.2,1.5-.4,2.3-.6,2.2-.3,4.4.4,6.6.2,1.9-.1,3.1-1.4,4.8-1.8-.7-5.9-1.2-11.9-1.8-17.9-1.2-11.5-2.4-23.1-3.6-34.6l-1.5-14.4-.5-4.8c-.1-.8-.2-1.5-.2-2.3,0-.5.2-1,.4-1.5-1.9.1-3.7.1-5.6,0-2.3-.4-3.7-.9-6.6,0-2.6.8-6.6-.3-9.4,0,0,.2.1.4.2.7.2,1-.2,2.3-.3,3.3-.1,1.7-.3,3.3-.4,5-.4,5-.8,9.9-1.2,14.9-1,11.7-2,23.5-2.9,35.2-.4,4.5-.8,9.1-1.1,13.6,0,.8-.5,2.3,0,2.9Z"/>
  <path class="st14" d="M78,131.4c0-.2,0-.5,0-.7,0-.2.2-.5.4-.6l13.2-9.7c0,0,.1,0,.2,0s.1,0,.2,0l14.1,9.7c.2.1.4.3.4.6,0,.2,0,.5,0,.7,0,.2-.2.4-.4.6-.2.1-.4.2-.7.2h-26.3c-.2,0-.5,0-.7-.2-.2-.1-.4-.3-.4-.6ZM78.8,130.7c0,0-.2.2-.2.3,0,.1,0,.2,0,.3,0,.1,0,.2.2.3,0,0,.2,0,.3,0h26.3c.1,0,.2,0,.3-.1,0,0,.2-.2.2-.3,0-.1,0-.2,0-.3,0-.1-.1-.2-.2-.3l-13.9-9.6-13,9.6Z"/>
  <path class="st14" d="M91.9,121c0,0,.2,0,.2,0,0,0,0-.1,0-.2v-3.5c.3-.5,1.8-3,1.1-4.2-.1-.2-.4-.4-.6-.5-.3-.1-.5-.2-.8-.1-1.1,0-1.9.3-2.2.8-.1.2-.2.5-.1.7,0,.2,0,.5.2.7,0,0,.1.1.2.1,0,0,.2,0,.3,0,0,0,.1-.1.2-.2,0,0,0-.2,0-.3,0-.1-.1-.2-.1-.4,0-.1,0-.3,0-.4.2-.3.8-.5,1.6-.5s.8.3.8.3c.4.7-.5,2.6-1.1,3.6,0,0,0,.1,0,.2v3.6c0,0,0,.2.1.2,0,0,.1,0,.2,0Z"/>
  <path class="st16" d="M102.7,127c0,0-.3,5.8-.2,6.5.4,1.6,1.5,2.9,1.9,4.4.6,2.3.3,5.3.5,7.7.6,10.1,1.1,20.3,1.7,30.4.1,2.5.3,5,.4,7.5.2,3.4-.3,6.9-.2,10.3,0,2.4,1,7.4-.3,9.6-1.3,2.1-8.4,1-10.7,1h-9.6c-2.1,0-4.1,0-6.2-.1-1.5,0-1.5,0-2.2-1.2-.6-1.3-.5-3.6-.5-5,0-17.8,1.2-35.8,1.6-53.7v-5.2c.1,0,4-7.1,2.4-11.4l4-3.8s4.6,3.3,7,2.9c2.4-.4,5.7-3.6,5.7-3.6l4.8,3.7Z"/>
  <path class="st3" d="M102.7,127c0,0-.3,5.8-.2,6.5.4,1.6,1.5,2.9,1.9,4.4.6,2.3.3,5.3.5,7.7.6,10.1,1.1,20.3,1.7,30.4.1,2.5.3,5,.4,7.5.2,3.4-.3,6.9-.2,10.3,0,2.4,1,7.4-.3,9.6-1.3,2.1-8.4,1-10.7,1h-9.6c-2.1,0-4.1,0-6.2-.1-1.5,0-1.5,0-2.2-1.2-.6-1.3-.5-3.6-.5-5,0-17.8,1.2-35.8,1.6-53.7v-5.2c.1,0,4-7.1,2.4-11.4l4-3.8s4.6,3.3,7,2.9c2.4-.4,5.7-3.6,5.7-3.6l4.8,3.7Z"/>
  <path class="st16" d="M91.8,126.9s-2.2,5.3-3.4,5.4c-1.2,0-6.2-5.9-6.2-5.9,0,0,2-3.5,2.8-3.5s6.8,4,6.8,4Z"/>
  <path class="st16" d="M91.9,126.9s5.1-4.2,6-4,3.4,3,3.4,3c0,0-4.5,6.3-5.9,6.4-1.4,0-3.5-5.4-3.5-5.4Z"/>
  <path class="st9" d="M112.2,202.4c.2,5-.1,9.9-.9,14.8-.5,3.3-1,4.1-4.5,3.4-2.2-.4-4.4-1.6-6.7-.9-.8.2-1.4.7-2.2,1-1.7.7-3.6.7-5.5.7h-13c-3,0-6,.7-6.3-3-1.2-14.4-.9-28.9.2-43.3.3-3.6.6-7.2.9-10.8.3-3.1,1.2-6.6.7-9.7-.9-5.6,1.1-9.8,1.3-15.4,0-2.4-.6-7.7,1-9.8,1.4-1.9,8.5-8.4,8.5-8.4,0,0,3.4,3.9,6.5,3.9s5.8-3.9,5.8-3.9c0,0,9.6,7.3,10.2,9.7.5,2.3.5,8.5,1.2,15.7.8,8.7.1,17.3.7,26.1s1.7,17.4,2.2,26.1c0,1.3,0,2.5.1,3.8Z"/>
  <path class="st9" d="M147.6,204.5c.2,5-.1,9.9-.9,14.8-.5,3.3-1,4.1-4.5,3.4-2.2-.4-4.4-1.6-6.7-.9-.8.2-1.4.7-2.2,1-1.7.7-3.6.7-5.5.8h-13c-3,0-6,.7-6.3-3-1.2-14.4-.9-28.9.2-43.3.3-3.6.6-7.2.9-10.8.3-3.1,1.1-6.6.7-9.7-.9-5.6-.9-11.1-.7-16.8,0-2.4-.6-7.7,1-9.8,1.4-1.9,10.5-7,10.5-7,0,0,3.4,3.9,6.5,3.9s5.8-3.9,5.8-3.9c0,0,11,6,11.5,8.3.5,2.3-.8,9.8-.1,17,.8,8.7.1,17.3.7,26.1.5,8.7,1.7,17.4,2.2,26.1,0,1.3,0,2.5.1,3.8Z"/>
  <path class="st9" d="M166.7,123.3s-2.7,3.9-5.8,3.9-6.5-3.9-6.5-3.9c0,0-8,5.9-9.4,7.7-1.4,1.9-2.2,23.1-1.6,32.2.7,9.2-10.6,81.7-9.7,88.1.9,6.4,17.8,4.1,27.7,4.2,9.9,0,23.8,3.7,25.4-1.7,1.6-5.4-.9-34.6-4.4-49.4-3.5-14.8-3.7-48.6-4.4-55.8-.7-7.2-1.2-15.3-1.7-17.6-.5-2.3-9.7-7.7-9.7-7.7Z"/>
  <path class="st16" d="M123.4,278.3h98.5v-87.3h-98.5v87.3Z"/>
  <path class="st4" d="M123.4,278.3h98.5v-87.3h-98.5v87.3Z"/>
  <path class="st8" d="M123.4,278.3h56.5v-87.3h-56.5v87.3Z"/>
  <path class="st3" d="M179.9,199.4h-56.5v1.1h56.5v-1.1Z"/>
  <path class="st3" d="M221.9,265.4h-98.5v1.5h98.5v-1.5Z"/>
  <path class="st3" d="M165.7,195.2c0,.2,0,.4-.2.6-.1.2-.3.3-.5.4-.2,0-.4,0-.6,0-.2,0-.4-.1-.5-.3s-.2-.3-.3-.5c0-.2,0-.4,0-.6,0-.2.2-.3.4-.5.2-.1.4-.2.6-.2s.5.1.7.3c.2.2.3.4.3.7Z"/>
  <path class="st3" d="M169.6,195.2c0,.2,0,.4-.2.6-.1.2-.3.3-.5.4-.2,0-.4,0-.6,0-.2,0-.4-.1-.5-.3s-.2-.3-.3-.5c0-.2,0-.4,0-.6s.2-.3.4-.5c.2-.1.4-.2.6-.2.3,0,.5.1.7.3s.3.4.3.7Z"/>
  <path class="st3" d="M133.5,196.2c.6,0,1-.5,1-1s-.5-1-1-1-1,.5-1,1,.5,1,1,1Z"/>
  <path class="st3" d="M138.4,195.2c0,.2,0,.4-.2.6-.1.2-.3.3-.5.4-.2,0-.4,0-.6,0-.2,0-.4-.1-.5-.3s-.2-.3-.3-.5c0-.2,0-.4,0-.6,0-.2.2-.3.4-.5.2-.1.4-.2.6-.2s.5.1.7.3c.2.2.3.4.3.7Z"/>
  <path class="st3" d="M159.4,192.7h-16.7c-.4,0-.7.3-.7.7v3.5c0,.4.3.7.7.7h16.7c.4,0,.7-.3.7-.7v-3.5c0-.4-.3-.7-.7-.7Z"/>
  <path class="st8" d="M129.8,202.8h-3c-.5,0-.8.4-.8.8v5.2c0,.5.4.8.8.8h3c.5,0,.8-.4.8-.8v-5.2c0-.5-.4-.8-.8-.8Z"/>
  <path class="st1" d="M129.8,205.7c0,1.1-.7,2-1.5,2s-1.5-.9-1.5-2,.7-2,1.5-2,1.5.9,1.5,2Z"/>
  <path class="st1" d="M129.8,208.4h-3.1v.5h3.1v-.5Z"/>
  <path class="st14" d="M151,257.8c10.2,0,18.5-11.3,18.5-25.2s-8.3-25.2-18.5-25.2-18.5,11.3-18.5,25.2,8.3,25.2,18.5,25.2Z"/>
  <path class="st3" d="M169.5,232.7c0,13.9-8.3,25.2-18.5,25.2h-.3c10.1-.2,18.2-11.4,18.2-25.1s-8.1-24.9-18.2-25.2h.3c10.2,0,18.5,11.3,18.5,25.1Z"/>
  <path class="st8" d="M151,257.8c10.2,0,18.5-11.3,18.5-25.2s-8.3-25.2-18.5-25.2-18.5,11.3-18.5,25.2,8.3,25.2,18.5,25.2Z"/>
  <path class="st8" d="M166.4,232.7c0,11.1-5.7,20.3-13.1,21.8-.7.2-1.5.2-2.2.2-2,0-4-.6-5.7-1.6-.4-.3-.9-.5-1.3-.8-2.6-2-4.6-4.6-5.9-7.5-.6-1.2-1-2.5-1.4-3.9-.2-.6-.3-1.1-.4-1.7-.4-2.1-.7-4.3-.7-6.5,0-12.2,6.9-22,15.4-22,.7,0,1.5,0,2.2.2,1.1.2,2.2.6,3.2,1.2.4.2.7.4,1.1.7.8.6,1.6,1.2,2.3,1.9,2.1,2.2,3.7,4.7,4.7,7.6.2.5.4,1.1.6,1.6.8,2.9,1.3,5.8,1.2,8.8Z"/>
  <path class="st14" d="M166.4,232.7c0,11.1-5.7,20.3-13.1,21.8-7.4-1.6-13.1-10.7-13.1-21.8s5.7-20.3,13.1-21.8c7.4,1.5,13.1,10.7,13.1,21.8Z"/>
  <path class="st16" d="M118.6,257.8c10.9,0,19.6-11.3,19.6-25.2s-8.8-25.2-19.6-25.2-19.6,11.3-19.6,25.2,8.8,25.2,19.6,25.2Z"/>
  <path class="st3" d="M99,232.7c0,13.9,8.8,25.2,19.6,25.2h.3c-10.7-.2-19.3-11.4-19.3-25.1s8.6-24.9,19.3-25.2h-.3c-10.9,0-19.6,11.2-19.6,25.1Z"/>
  <path class="st3" d="M120,256c9.8,0,17.7-10.4,17.7-23.3s-7.9-23.3-17.7-23.3-17.7,10.4-17.7,23.3,7.9,23.3,17.7,23.3Z"/>
  <path class="st16" d="M122.5,254.6c8.9,0,16.2-9.8,16.2-21.9s-7.2-21.9-16.2-21.9-16.2,9.8-16.2,21.9,7.2,21.9,16.2,21.9Z"/>
  <path class="st10" d="M136,232.7c0,10.2-5.9,18.8-12.9,18.8-1.9,0-3.8-.7-5.4-1.8-.4-.3-.9-.6-1.3-1-2.5-2.5-4.4-5.6-5.2-9-.4-1.5-.7-3.1-.8-4.7,0-.7,0-1.4,0-2.1v-.2c0-10.2,5.9-18.8,12.9-18.8.8,0,1.6.1,2.4.3.4.1.9.3,1.3.5,1,.4,1.9,1,2.7,1.7,2.3,2.1,4,4.7,5,7.6.2.6.4,1.1.5,1.7.6,2.2.9,4.6.9,6.9Z"/>
  <path class="st3" d="M136.7,232.7c0,10.2-5.9,18.8-12.9,18.8-.4,0-.9,0-1.3,0,6.4-1,11.5-9.2,11.5-18.7s-5.2-17.7-11.5-18.7c.4,0,.9-.1,1.3-.1,7,0,12.9,8.6,12.9,18.8Z"/>
  <path class="st7" d="M125.6,214.2c-5.7,5.7-10.8,11.9-15.3,18.6v-.2c0-10.2,5.9-18.8,12.9-18.8.8,0,1.6.1,2.4.3Z"/>
  <path class="st7" d="M129.5,216.5c-7,6.9-13.2,14.7-18.3,23.2-.4-1.5-.7-3.1-.8-4.7,4.7-7.3,10.2-14.1,16.5-20.3,1,.4,1.9,1,2.7,1.7Z"/>
  <path class="st7" d="M135.1,225.8c-6.8,7.2-12.6,15.2-17.4,23.8-.4-.3-.9-.6-1.3-1,4.9-8.9,11-17.2,18-24.6.2.6.5,1.1.6,1.7Z"/>
  <path class="st15" d="M98.9,210c.6,1,1.3,2.2,2,3.2.7,1.1,1.4,2.1,2.1,3.2.7,1,1.5,2,2.3,2.9.4.4.8.8,1.2,1.2.2.2.4.3.5.4h.2c0,.1.2.2.2.2.9.3,1.9.3,2.8.2,1.2-.1,2.4-.4,3.6-.7,2.5-.7,4.9-1.5,7.3-2.4h0c.4-.1.8-.1,1.1,0,.4.2.6.5.8.8.1.3.1.6,0,1-.1.3-.3.6-.6.8-2.3,1.6-4.8,2.9-7.3,4-1.4.6-2.8,1-4.2,1.3-.8.2-1.6.3-2.4.3-.9,0-1.9,0-2.8-.3-.3,0-.5-.2-.8-.3-.2-.1-.5-.2-.7-.4-.4-.2-.7-.5-1.1-.7-.6-.5-1.2-1-1.8-1.5-1-1-2-2.1-2.9-3.3-1.7-2.2-3.3-4.5-4.7-7-.4-.7-.5-1.5-.2-2.2.2-.7.7-1.4,1.3-1.7.7-.4,1.4-.5,2.2-.3.7.2,1.4.6,1.8,1.3h0Z"/>
  <path class="st3" d="M98.9,210c.6,1,1.3,2.2,2,3.2.7,1.1,1.4,2.1,2.1,3.2.7,1,1.5,2,2.3,2.9.4.4.8.8,1.2,1.2.2.2.4.3.5.4h.2c0,.1.2.2.2.2.9.3,1.9.3,2.8.2,1.2-.1,2.4-.4,3.6-.7,2.5-.7,4.9-1.5,7.3-2.4h0c.4-.1.8-.1,1.1,0,.4.2.6.5.8.8.1.3.1.6,0,1-.1.3-.3.6-.6.8-2.3,1.6-4.8,2.9-7.3,4-1.4.6-2.8,1-4.2,1.3-.8.2-1.6.3-2.4.3-.9,0-1.9,0-2.8-.3-.3,0-.5-.2-.8-.3-.2-.1-.5-.2-.7-.4-.4-.2-.7-.5-1.1-.7-.6-.5-1.2-1-1.8-1.5-1-1-2-2.1-2.9-3.3-1.7-2.2-3.3-4.5-4.7-7-.4-.7-.5-1.5-.2-2.2.2-.7.7-1.4,1.3-1.7.7-.4,1.4-.5,2.2-.3.7.2,1.4.6,1.8,1.3h0Z"/>
  <path class="st14" d="M98.1,208.6c1.5,1,3.6,4.9,3.6,4.9l-5.3,4.3-2.2-1.6,3.9-7.6Z"/>
  <path class="st8" d="M101.7,213.5l-3.4,2.8-1.9,1.5-.3-.2-1.8-1.4,2.3-4.5,1.5-3.1c1.2.8,2.8,3.4,3.4,4.5l.3.4Z"/>
  <path class="st14" d="M102.3,213.8l-4,3-2,1.5-.4-.7h0s2.1-1.8,2.1-1.8l3.3-2.7.3-.2.6,1Z"/>
  <path class="st3" d="M98.4,216.8l-2,1.5-.4-.7h0s-1.8-1.4-1.8-1.4l2.3-4.5c.8,1.3,1.3,2.7,1.7,4.1,0,.2,0,.3,0,.5,0,.2,0,.4,0,.6Z"/>
  <path class="st20" d="M119.9,218.8l3.4-2.4.8,4.8s-2.7.9-4.8-.7l.6-1.7Z"/>
  <path class="st20" d="M127.5,216.6v3.7c0,0-3.3.9-3.3.9l-.8-4.8,4.1.2Z"/>
  <path class="st21" d="M76.4,268.8l-2.6,5.8-5.8-.8-4.4-.6-5.5-.8,2.8-2.4,4.4-.3,4.2-.3,6.9-.5Z"/>
  <path class="st3" d="M69.5,269.3l-1.5,4.4-4.4-.6,1.7-3.5,4.2-.3Z"/>
  <path class="st16" d="M63.5,270.1c.3.3-3.4,3.6-3.4,3.6,0,0-4.3,0-6.9,1.6-2.6,1.6-2.7-.8-.4-3.2l5.7-5.8c1.6-1.7,2,.8,4.9,3.8Z"/>
  <path class="st16" d="M59.8,273.6h0c.3.6.4,1.2.3,1.9,0,.1-.1.2-.2.3,0,0-.2.1-.3.2,0,0-.2,0-.3,0,0,0-.2,0-.3-.1-.2-.2-.1-.6,0-1.1-.2.3-.5.5-.9.7,0,0-.1,0-.2,0,0,0-.1,0-.2,0,0,0-.2-.1-.2-.2,0,0,0-.2,0-.3,0-.2.1-.3.2-.4.6-.4,1.3-.8,2-1ZM59.5,274c-.7.3-1.6.8-1.6,1.1,0,0,0,.1.2.2,0,0,.1,0,.2,0,.2,0,.4-.2.5-.3.3-.3.5-.6.7-.9ZM60,275.4c0-.5,0-.9-.2-1.3-.3.7-.5,1.5-.4,1.6,0,0,.2,0,.2,0,0,0,.1,0,.2-.1,0,0,0-.1.1-.2h0Z"/>
  <path class="st14" d="M115,269.9c-1.2,4.7-4.7,6.1-8.2,6.3-4.2.2-41.6-2.1-41.6-2.1l2-5.7,32.9-1.3-18.1-10.1s-17.1-2.5-15.7-14.7c.6-4.7,1.9-9.2,3.8-13.5.1-.3.3-.7.4-1l17.7-1v.8c.1,0,1.1,6.4,1.1,6.4l2,5.3s26.4,20.6,23.8,30.6Z"/>
  <path class="st3" d="M92,240l-22.8,11.1c4.6,4.7,12.7,5.9,12.7,5.9l18.1,10.1-32.9,1.3-2,5.7s37.3,2.3,41.6,2.1c3.5-.2,7-1.6,8.2-6.3,2.3-8.9-18.6-26.4-23-29.9Z"/>
  <path class="st21" d="M109.1,259l-.9,1.8-3.7,7.5-3,6.1h-2.9c0-.1,1.6-6.8,1.6-6.8l1.9-7.7.4-1.7,6.6.7Z"/>
  <path class="st3" d="M108.2,260.8l-3.7,7.5-4.2-.7,1.9-7.7,6.1.8Z"/>
  <path class="st14" d="M98.1,208.6s-1.7,13.4-9.1,24.1c0,0-15.8-2-19.4-3,2.2-6.5,3.5-10.8,4.4-23,.2-2.9,2.9-4.6,5.8-4.1,2.9.2,5.7.8,8.4,1.7,3.6,1.1,9.9,4.4,9.9,4.4Z"/>
  <path class="st14" d="M66.5,241.1s-2,12.5,7.2,13.8c15.1,2.1,29.1-12.8,30.9-12.8,1.7,0-5,24.2-5,24.2l6.8,1s12.2-29.7,9.2-36.1c-3-6.4-38.4,10.2-49.1,9.9Z"/>
  <path class="st16" d="M98.2,272.2c0-.4,5,0,5,0,0,0,3,3.1,6,3.8,3,.7,1.3,2.5-2,2.5h-8.2c-2.3,0-.9-2-.8-6.2Z"/>
  <path class="st16" d="M103.2,272.3h0c0,0,0,0,0,0,0,0,0,0,0,0,0,0,.4-1.2,1.1-1.5.1,0,.2,0,.3,0s.2,0,.3,0c.2.1.3.2.3.4,0,.2-.4.5-.8.7.4,0,.8,0,1.1.1,0,0,.1,0,.2.1,0,0,0,.1.1.2,0,0,0,.2,0,.3,0,0,0,.2-.1.2-.1,0-.3.1-.4.1-.7,0-1.4-.3-2.1-.6ZM103.7,272.3c.7.3,1.6.6,1.9.4,0,0,0,0,0-.3,0,0,0,0,0-.1,0,0,0,0,0,0-.2,0-.4-.1-.6-.1-.4,0-.8,0-1.1.2ZM104.4,270.9c-.4.3-.7.6-.8,1.1.7-.3,1.4-.7,1.4-.9,0,0-.1-.1-.2-.2,0,0-.1,0-.2,0,0,0-.1,0-.2,0h0Z"/>
  <path class="st16" d="M101.1,218.5c-1-1.3,2.4-5.8,4.5-5.5s6.5,1.3,8.7-.1c2.2-1.5,6.5,0,8.1,1,1.6,1,2.3-1,4.3,2.6,2,3.5,3.2,2.6,3.8,9.2.6,6.6,7.5,17.1,12.8,18,5.3.9,7,4.9,9.8,3.5,2.8-1.5,9.2-.5,9.2-.5,0,0-3.4,7.1-10.8,7.3,0,0-4.2,11.6-13.2,10.3-9-1.3-16.8-8-20.5-23.7-1.1-4.6-3.2-9-6.1-12.8-2.9-3.8-6.5-6.9-10.7-9.2Z"/>
  <path class="st6" d="M162.4,246.5s-3.4,7-10.8,7.3c0,0-4.2,11.6-13.2,10.3-9-1.3-16.8-8-20.5-23.7-3.3-14.3-14.7-20.9-16.6-21.9h-.3c0-.3-.1-.4-.2-.6,0-.2,0-.3,0-.5.3-1.8,2.9-4.8,4.7-4.6,1.5.2,4.1.8,6.3.6.9,0,1.7-.3,2.5-.7.4-.3.9-.4,1.3-.5,2.3-.5,5.5.7,6.8,1.5.3.2.6.3.9.3.9.1,1.5-.3,2.5.9.4.4.7.9.9,1.4,2,3.5,3.2,2.6,3.8,9.2.3,3.3,2.2,7.6,4.7,11.2,2.1,3.1,4.7,5.6,7.1,6.5.3.1.7.2,1.1.3,4.3.7,6.2,3.5,8.3,3.7.5,0,1,0,1.5-.3.4-.2.7-.3,1.1-.4,3.1-.8,8,0,8,0Z"/>
  <path class="st1" d="M162.4,246.5s-3.4,7-10.8,7.3c0,0-4.2,11.6-13.2,10.3-9-1.3-16.8-8-20.5-23.7-3.3-14.3-14.7-20.9-16.6-21.9-.2-.5-.3-.9-.4-1,.3.1,2.2-2.3,5.3-1.7,3.4.7,8.5,5.3,10.6,14.3,2.1,9,5.9,27.3,14.8,31.5,8.9,4.3,16.6-1.1,17.8-4.5,1.2-3.4,6.5-11.3,12.9-10.7Z"/>
  <path class="st1" d="M154.4,246.6c-2.9,1.3-6.5,7.3-10.9,7.2-4.4,0-9-5.6-7.8-5.1,1.2.6,5.3,3.8,9.3,1.4,3.9-2.4,9.5-3.6,9.5-3.6Z"/>
  <path class="st1" d="M118.6,221.5c-2.1-4.9-4.4-7-6.8-7.9.9,0,1.7-.3,2.5-.7.4-.3.9-.4,1.3-.5,4.3,3.1,5.4,15,3,9.1Z"/>
  <path class="st1" d="M125.9,215c-.2,3-1.7,6.7-1.7,3.3,0-1.4-.2-2.8-.8-4.1.9.1,1.5-.3,2.5.9Z"/>
  <path class="st1" d="M142.4,243.3c-9.5,1.3-18.2-7.8-20.5-13.5-.8-2.1,6.7,5.1,10.7,6.8,1.3.5,2.1.5,2.7.2,2.1,3.1,4.7,5.6,7.1,6.5Z"/>
  <path class="st20" d="M99.4,219.1l3.5-2.3.7,4.9s-2.7.8-4.8-.9l.7-1.6Z"/>
  <path class="st20" d="M106.9,217.2l-.2,3.7-3.3.8-.6-4.9,4.1.4Z"/>
  <path class="st8" d="M98.1,208.6c-.5,3.4-1.3,6.7-2.3,9.9-1.5,5-3.8,9.8-6.8,14.2,0,0-15.8-2-19.4-3,.4-1.2.8-2.4,1.1-3.5,1.2-3.9,2.1-7.8,2.5-11.8.2-1.9.5-4,.7-6.5,0-.4,0-.8,0-1.1.2-2.9,2.9-4.6,5.8-4.1.4,0,1.3,0,2.7.3.1,0,.3,0,.4,0,1.8.3,3.6.8,5.3,1.3.9.3,1.9.7,3,1.2,3.3,1.4,6.9,3.2,6.9,3.2Z"/>
  <path class="st21" d="M91.1,203.4c-.6.7-1,1.5-1.2,2.4,0,.2,0,.4,0,.6,0,.2.2.4.3.5-.3,2-3,1.8-3,1.8-3.2-3.2-3.2-5.5-3.2-5.5.8-.1,1.6-.4,2.2-.9.7-.5,1.2-1.1,1.5-1.9.5-.9.8-1.8,1-2.8l3.7,4.1c-.6.5-1.1,1.1-1.5,1.7Z"/>
  <path class="st3" d="M92.7,201.7c-.6.5-1.1,1.1-1.5,1.7-.6.7-1,1.5-1.2,2.4-.7-.7-1.2-1.6-1.5-2.5-.3-.9-.5-1.9-.5-2.9.5-.9.8-1.8,1-2.8l3.7,4Z"/>
  <path class="st14" d="M92.3,184.8s.3-3.5-3.2-4c-3.5-.5-6.8,5.4-1.2,6.3,5.6.9,4.4-2.3,4.4-2.3Z"/>
  <path class="st16" d="M94,185.6s-1.2-1.6-4-.7c-2.9,1-3.1,3.9-2.5,3.9.6,0,6-1.9,6.5-3.2Z"/>
  <path class="st14" d="M90.5,199.5s-6.3-.1-4.9-8.4c1.4-8.3,14.4-8.2,14-.7-.4,7.5-9.2,9-9.2,9Z"/>
  <path class="st21" d="M88.4,190.7c-1,4.6-1.5,6.5.1,9.6,2.4,4.6,8.1,5.1,10.4.9,2.1-3.7,3.3-10.7-.5-13.9-.8-.7-1.8-1.2-2.8-1.5-1.1-.2-2.2-.2-3.2.2-1,.3-1.9,1-2.6,1.8-.7.8-1.2,1.8-1.4,2.9Z"/>
  <path class="st14" d="M93.4,189.1c-3.6,2.1-.2,7.6-5,5.3-4.8-2.3,0-8.3,3.6-8.6,3.5-.4,1.4,3.3,1.4,3.3Z"/>
  <path class="st14" d="M92,185.9c-.6,3.2-.4,4.1,2.5,4.4-.1-.7,0-1.5.3-2.2,0,.8.2,1.6.8,2.2.8,0,1.6,0,2.4.2,0-.5.2-.9.4-1.3,0,.6.2,1.1.5,1.6.8.3,1.5.8,2.2,1.4,1.3-3.1-2.6-8.6-9.1-6.4Z"/>
  <path class="st14" d="M94.9,194.2c-.1.4,0,.8.3.8.3,0,.5-.2.6-.6.1-.4,0-.8-.3-.8s-.5.2-.6.6Z"/>
  <path class="st14" d="M99.4,195.8c-.1.4,0,.8.3.8.3,0,.5-.2.6-.5,0-.4,0-.8-.3-.8-.3,0-.5.2-.6.6Z"/>
  <path class="st14" d="M99.9,195.2h.9s-.6.6-.9,0Z"/>
  <path class="st23" d="M98,196c0,1,.3,2,.7,2.9-.2,0-.5.1-.7,0-.2,0-.5-.1-.7-.2l.7-2.7Z"/>
  <path class="st14" d="M94.9,199.4c.2.1.4.2.6.3,0,0,0,0,0,0,0,0,0,0,0,0,0,0,0,0,0,0,0,0,0,0,0,0,0,0,0,0,0,0,0,0,0,0,0,0-.5-.1-.9-.4-1.3-.7-.4-.3-.6-.8-.8-1.2,0,0,0,0,0,0,0,0,0,0,0,0,0,0,0,0,0,0,0,0,0,0,0,0,.3.8.9,1.5,1.6,1.9Z"/>
  <path class="st21" d="M86.3,194.6c0,.5.1.9.3,1.3.2.4.5.8.8,1.1.9.7,1.8-.3,1.9-1.6.1-1.2-.2-2.9-1.3-3.1-1.1-.2-1.9,1-1.8,2.3Z"/>
  <path class="st14" d="M94.5,191.7s0,0,0,0,0,0,0,0c.2-.1.5-.2.8-.2.3,0,.6,0,.8.2,0,0,0,0,0,0,0,0,0,0,0,0,0,0,0,0,0,0,0,0,0,0,0,0,0,0,0-.1,0-.2,0,0,0-.1-.1-.1-.3-.2-.6-.3-1-.3-.3,0-.7,0-1,.2,0,0,0,0-.1.1,0,0,0,.1,0,.2,0,0,0,0,0,.1Z"/>
  <path class="st14" d="M101.3,194.1s0,0,0,0,0,0,0,0c0,0,0,0,0,0,0,0,0,0,0,0,0,0,0,0,0,0,0,0,0,0,0,0-.1-.4-.3-.7-.6-1-.3-.3-.6-.5-.9-.6,0,0,0,0,0,0,0,0,0,0,0,0,0,0,0,0,0,0,0,0,0,0,0,0,0,0,0,.1,0,.2,0,0,0,0,.1.1.3.1.5.3.7.5.2.2.4.5.4.8,0,0,0,0,0,0,0,0,0,0,0,0Z"/>
  <path class="st14" d="M95.4,193.6h.9s-.6.6-.9,0Z"/>
  <path class="st16" d="M99.7,232.2c-.6.3-20.2,11.2-25.6,10-5.4-1.2-5.6-9.6-5.6-9.6l1.7-6.4c.2,0,.4,0,.6-.2,3.1-1.5,8.9-11.3,8.9-11.3,0,0,1.1-9.1,2.8-12,.1,0,.3,0,.4,0-.3.8-.5,1.7-.7,2.5-.3,1.5-.8,7.2-.8,7.2l12.3,2.3c-1-7.3-2.4-9.5-2.5-9.6,2.8,2.1,4.5,13.2,4.5,13.2-.7,4.6-3.9,11.9-4.9,13.5-1,1.6-.5,2.3-.5,2.3l9.4-2.1Z"/>
  <path class="st3" d="M81.2,209.4s-5.4,4.2-7.9,4.8c.2-1.9.5-4,.7-6.5,1.4-1.5,3.6-2.4,6.6-1.6.4,1.1.6,2.2.6,3.3Z"/>
  <path class="st15" d="M79.4,206.5c.4,1.5.8,3.1,1.2,4.7.4,1.5.8,3.2,1.3,4.7.5,1.5.9,3.1,1.5,4.5.3.7.5,1.4.8,2,0,.1.1.3.2.4v.2c0-.1,0,0,0,0,.5.1.9.2,1.4.2.7,0,1.4-.1,2.1-.3,1.5-.3,3-.7,4.5-1.2,1.5-.5,3.1-1,4.6-1.6,1.5-.6,3.1-1.2,4.5-1.8h0c.3-.1.7-.1,1,0,.3.1.6.4.8.7.2.3.2.7.1,1,0,.3-.3.6-.6.8-1.4.9-2.9,1.8-4.4,2.6-1.5.8-3,1.6-4.6,2.3-1.6.7-3.3,1.4-4.9,1.9-.9.3-1.9.5-2.8.6-1.2.2-2.4.1-3.5-.2-.8-.3-1.6-.7-2.2-1.3l-.2-.3h-.1c0-.1,0-.2,0-.2l-.3-.4c-.1-.2-.3-.5-.4-.7-.5-.8-.9-1.6-1.2-2.5-.7-1.6-1.3-3.2-1.8-4.9-.5-1.6-1-3.2-1.5-4.9-.5-1.6-.9-3.2-1.2-4.9-.2-.8,0-1.6.3-2.2.4-.7,1.1-1.1,1.8-1.3s1.6,0,2.2.3c.7.4,1.1,1.1,1.3,1.8h0Z"/>
  <path class="st14" d="M79,202.9c-2.6-1.1-7,.9-5.8,7.6l7.3-1.1s.6-5.5-1.5-6.4Z"/>
  <path class="st8" d="M79,202.9c-2.6-1.1-7,.9-5.8,7.6l7.3-1.1s.6-5.5-1.5-6.4Z"/>
  <path class="st14" d="M72.9,209.8l7.8-1.3v.8s-7.7,1.6-7.7,1.6v-1.2Z"/>
  <path class="st16" d="M185.1,278.3h98.5v-87.3h-98.5v87.3Z"/>
  <path class="st4" d="M185.1,278.3h98.5v-87.3h-98.5v87.3Z"/>
  <path class="st8" d="M185.1,278.3h56.5v-87.3h-56.5v87.3Z"/>
  <path class="st3" d="M241.6,199.4h-56.5v1.1h56.5v-1.1Z"/>
  <path class="st3" d="M283.7,265.4h-98.5v1.5h98.5v-1.5Z"/>
  <path class="st3" d="M227.4,195.2c0,.2,0,.4-.2.6-.1.2-.3.3-.5.4s-.4,0-.6,0c-.2,0-.4-.1-.5-.3-.1-.1-.2-.3-.3-.5,0-.2,0-.4,0-.6,0-.2.2-.3.4-.5.2-.1.4-.2.6-.2s.5.1.7.3c.2.2.3.4.3.7Z"/>
  <path class="st3" d="M231.3,195.2c0,.2,0,.4-.2.6-.1.2-.3.3-.5.4-.2,0-.4,0-.6,0-.2,0-.4-.1-.5-.3-.1-.1-.2-.3-.3-.5,0-.2,0-.4,0-.6,0-.2.2-.3.4-.5.2-.1.4-.2.6-.2.3,0,.5.1.7.3.2.2.3.4.3.7Z"/>
  <path class="st3" d="M195.2,196.2c.6,0,1-.5,1-1s-.5-1-1-1-1,.5-1,1,.5,1,1,1Z"/>
  <path class="st3" d="M200.1,195.2c0,.2,0,.4-.2.6-.1.2-.3.3-.5.4-.2,0-.4,0-.6,0-.2,0-.4-.1-.5-.3s-.2-.3-.3-.5c0-.2,0-.4,0-.6,0-.2.2-.3.4-.5.2-.1.4-.2.6-.2s.5.1.7.3.3.4.3.7Z"/>
  <path class="st3" d="M221.1,192.7h-16.7c-.4,0-.7.3-.7.7v3.5c0,.4.3.7.7.7h16.7c.4,0,.7-.3.7-.7v-3.5c0-.4-.3-.7-.7-.7Z"/>
  <path class="st8" d="M191.5,202.8h-3c-.5,0-.8.4-.8.8v5.2c0,.5.4.8.8.8h3c.5,0,.8-.4.8-.8v-5.2c0-.5-.4-.8-.8-.8Z"/>
  <path class="st1" d="M191.5,205.7c0,1.1-.7,2-1.5,2s-1.5-.9-1.5-2,.7-2,1.5-2,1.5.9,1.5,2Z"/>
  <path class="st1" d="M191.6,208.4h-3.1v.5h3.1v-.5Z"/>
  <path class="st16" d="M212.8,257.8c10.2,0,18.5-11.3,18.5-25.2s-8.3-25.2-18.5-25.2-18.5,11.3-18.5,25.2,8.3,25.2,18.5,25.2Z"/>
  <path class="st8" d="M228.1,232.7c0,11.1-5.7,20.3-13.1,21.8-.7.2-1.5.2-2.2.2-2,0-4-.5-5.7-1.6-.4-.3-.9-.5-1.3-.8-2.6-2-4.6-4.6-5.9-7.5-.6-1.2-1-2.5-1.4-3.9-.2-.6-.3-1.1-.4-1.7-.5-2.1-.7-4.3-.7-6.5,0-12.1,6.9-22,15.4-22,.7,0,1.5,0,2.2.2,1.1.2,2.2.6,3.2,1.2.4.2.7.4,1.1.7.8.6,1.6,1.2,2.3,1.9,2.1,2.2,3.7,4.7,4.7,7.6.2.5.4,1.1.6,1.6.8,2.9,1.3,5.8,1.2,8.8Z"/>
  <path class="st3" d="M228.1,232.7c0,11.1-5.7,20.3-13.1,21.8-7.4-1.6-13.1-10.7-13.1-21.8s5.7-20.3,13.1-21.8c7.4,1.5,13.1,10.7,13.1,21.8Z"/>
  <path class="st7" d="M218.2,212.1c-8,8-14.7,17.1-20.1,27.1-.4-2.1-.7-4.3-.7-6.5,0-12.2,6.9-22,15.4-22,.7,0,1.5,0,2.2.2,1.1.3,2.2.7,3.2,1.2Z"/>
  <path class="st7" d="M221.6,214.7c-8.8,8.8-16.1,19-21.7,30.1-.6-1.2-1-2.5-1.4-3.9,5.5-10.4,12.5-19.9,20.7-28.2.8.6,1.6,1.2,2.3,2Z"/>
  <path class="st7" d="M226.8,223.9c-8,8.7-14.7,18.6-19.8,29.3-.4-.3-.9-.5-1.3-.8,5.2-11,12.1-21.2,20.5-30.1.2.5.4,1,.5,1.6Z"/>
  <path class="st3" d="M231.2,232.7c0,13.9-8.3,25.2-18.5,25.2h-.3c10.1-.2,18.2-11.4,18.2-25.1s-8.1-24.9-18.2-25.2h.3c10.2,0,18.5,11.3,18.5,25.1Z"/>
  <path class="st14" d="M208.1,266.1c4-3.3,3.5-7.3-1.5-10.1-5-2.8-5.6-2.9-9.6-2-4,.9-2.9-1.1-8.5-.2s-9.7,2.7-8.7,5.3c1,2.6,21.9,12.2,28.3,7Z"/>
  <path class="st8" d="M208.1,266.1c4-3.3,3.5-7.3-1.5-10.1-5-2.8-5.6-2.9-9.6-2-4,.9-2.9-1.1-8.5-.2s-9.7,2.7-8.7,5.3c1,2.6,21.9,12.2,28.3,7Z"/>
  <path class="st16" d="M197.4,262.7c1.8-3.6-2.6-3.7-6.3-6.6-3.7-2.9-6.3-7.1-9.8-4.7-3.6,2.4-3.2,3.9-9,4.7-5.8.9-7.2,1.1-9.7,2.3-2.6,1.2-4.1.7-4.1,3.2,0,2.5-3.6,4.6,6.7,4.8,10.3.2,30.6-.4,32.3-3.6Z"/>
  <path class="st10" d="M197.4,262.7c1.8-3.6-2.6-3.7-6.3-6.6-3.7-2.9-6.3-7.1-9.8-4.7-3.6,2.4-3.2,3.9-9,4.7-5.8.9-7.2,1.1-9.7,2.3-2.6,1.2-4.1.7-4.1,3.2,0,2.5-3.6,4.6,6.7,4.8,10.3.2,30.6-.4,32.3-3.6Z"/>
  <path class="st16" d="M191.4,272.6c.3-2.1-4-4.9-7.7-7.8-3.7-2.9-3.5-2.9-9.1-2.6-5.6.3-6.1.4-9.6-.3-3.5-.7-4.2-.6-7.1.3-2.9.9-4.7.8-5,3-.3,2.2-3,11.1,3.5,11.7,6.5.6,34.6-1.8,35-4.4Z"/>
  <path class="st8" d="M191.4,272.6c.3-2.1-4-4.9-7.7-7.8-3.7-2.9-3.5-2.9-9.1-2.6-5.6.3-6.1.4-9.6-.3-3.5-.7-4.2-.6-7.1.3-2.9.9-4.7.8-5,3-.3,2.2-3,11.1,3.5,11.7,6.5.6,34.6-1.8,35-4.4Z"/>
  <path class="st14" d="M208.6,274.7c-.3-1.6-3.8-3-7.4-3.3-3.1-.2-6.1-1.2-8.7-2.8-3-1.7-4.5-1.8-6.9,0-2.4,1.8-3.5,2.3-7,2-1.9-.2-3.9-.3-5.9-.2-3.2.1-3.5-.3-5.7.9-2.2,1.2-3.1-.4-5,1.3-1.9,1.7-3.2,1.7-3.6,2.5-.4.8-1.5,1.4.4,1.9,1.9.5,48,.9,48.7,0,.7-.9,1.1-1.8,1.1-2.3Z"/>
  <path class="st16" d="M205.9,274.5c3.6-1,3.5-1.2,4.4-5.2.9-4,3.6-3.8-.5-5.2-4.1-1.4-6.1-1.9-9.4-2.1-3.3-.2-5.8.9-8.7.4-2.9-.5-1.8-.3-6-1.2s-5.4-1.7-8.5-.3c-3.1,1.4-6.5-.3-5,3.2,1.5,3.5,25.1,12.9,33.7,10.4Z"/>
  <path class="st2" d="M172.1,264.1c.8,1.8,6.9,4.9,14,7.4,3.8,1.4,7.8,2.4,11.8,3.1,3.1.5,5.9.5,7.9,0l.9-.3c2.7-.8,2.7-1.3,3.5-4.9.2-.9.5-1.7.9-2.4.9-1.6,1.5-1.8-1.5-2.8-4.1-1.4-6.1-1.9-9.4-2.1-1.7,0-3.5.1-5.2.4-1.2.2-2.3.1-3.5,0-2.8-.5-1.8-.3-6-1.2-3.2-.7-4.7-1.3-6.5-.9-.7.1-1.4.4-2,.7-3.1,1.4-6.5-.4-5,3.2Z"/>
  <path class="st8" d="M184,262.5c2.5,1.2,2.4,1.5,4.6,1.6,2.1,0,3-.2,4.8,1.2,1.8,1.4,3.5,1.5,3-.9-.2-.8-.6-1.5-1.1-2-1.2.2-2.3.1-3.5,0-2.8-.5-1.8-.3-6-1.2-3.2-.7-4.7-1.3-6.5-.9-1.8,1.4,2.6,1.3,4.8,2.3Z"/>
  <path class="st8" d="M200.3,263.4c.2,1.9,2.9,2.8,3.6,4.8.7,2-1.8,1.7.8,3.8.8.7,1.5,1.4,2.1,2.3,2.7-.8,2.7-1.3,3.5-4.9.2-.9.5-1.7.9-2.4-1.9-1.4-3.7-.6-6.3-1.6-3.6-1.4-4.8-3.8-4.6-1.9Z"/>
  <path class="st8" d="M184.7,269.2c.6.7,1,1.5,1.4,2.3,3.8,1.4,7.8,2.4,11.8,3.1.5-2.2-.9-2.7-3.4-4.4-3.1-2.1-4.2-3-6.4-2.9-2.2.1-2.1.7-4.4-1.1-2.3-1.8-3.9-3-5-3s3.4,2.8,6,6Z"/>
  <path class="st16" d="M157.1,256.4c0-.1,0-.2,0-.3s0-.2,0-.3l1.7-3c.2-.4.6-.8,1-1,.4-.2.9-.4,1.4-.4h6.7c.4,0,.8,0,1.2.3.4.2.7.4.9.7l2.6,3.2c0,0,.1.2.1.3,0,.1,0,.2,0,.4,0,.1-.1.2-.2.3-.1,0-.2.1-.4.1h-14.3c-.1.1-.2,0-.3,0-.1,0-.2-.2-.2-.3ZM168.9,253.2c-.1-.2-.3-.3-.5-.4-.2,0-.4-.1-.6-.1h-6.7c-.2,0-.5,0-.7.2-.2.1-.4.3-.5.5l-1.2,2h11.8c0-.1-1.7-2.2-1.7-2.2Z"/>
  <path class="st16" d="M207.4,256.7h-14.3c-.1-.1-.3-.2-.4-.2-.1,0-.2-.2-.2-.3,0-.1,0-.2,0-.4,0-.1,0-.2.1-.3l2.6-3.2c.3-.3.6-.6.9-.7.4-.2.8-.3,1.2-.3h6.7c.5,0,.9.1,1.4.4s.8.6,1,1l1.7,3c0,.1,0,.2,0,.3s0,.2,0,.3c0,0-.1.2-.2.2s-.2,0-.3,0h0ZM197.2,252.7c-.2,0-.4,0-.6.1s-.3.2-.5.4l-1.7,2.1h11.8c0,.1-1.2-1.9-1.2-1.9-.1-.2-.3-.4-.5-.5-.2-.1-.4-.2-.7-.2h-6.7Z"/>
  <g class="st12">
    <path d="M157.1,256.4c0-.1,0-.2,0-.3s0-.2,0-.3l1.7-3c.2-.4.6-.8,1-1,.4-.2.9-.4,1.4-.4h6.7c.4,0,.8,0,1.2.3.4.2.7.4.9.7l2.6,3.2c0,0,.1.2.1.3,0,.1,0,.2,0,.4,0,.1-.1.2-.2.3-.1,0-.2.1-.4.1h-14.3c-.1.1-.2,0-.3,0-.1,0-.2-.2-.2-.3ZM168.9,253.2c-.1-.2-.3-.3-.5-.4-.2,0-.4-.1-.6-.1h-6.7c-.2,0-.5,0-.7.2-.2.1-.4.3-.5.5l-1.2,2h11.8c0-.1-1.7-2.2-1.7-2.2Z"/>
  </g>
  <g class="st12">
    <path d="M207.4,256.7h-14.3c-.1-.1-.3-.2-.4-.2-.1,0-.2-.2-.2-.3,0-.1,0-.2,0-.4,0-.1,0-.2.1-.3l2.6-3.2c.3-.3.6-.6.9-.7.4-.2.8-.3,1.2-.3h6.7c.5,0,.9.1,1.4.4s.8.6,1,1l1.7,3c0,.1,0,.2,0,.3s0,.2,0,.3c0,0-.1.2-.2.2s-.2,0-.3,0h0ZM197.2,252.7c-.2,0-.4,0-.6.1s-.3.2-.5.4l-1.7,2.1h11.8c0,.1-1.2-1.9-1.2-1.9-.1-.2-.3-.4-.5-.5-.2-.1-.4-.2-.7-.2h-6.7Z"/>
  </g>
  <path class="st16" d="M147.8,256.6l5.3,20.8c0,.3.2.5.5.7s.5.3.8.3h54.6c.3,0,.6-.1.8-.3.2-.2.4-.4.5-.7l5.3-20.8c0-.2,0-.3,0-.5,0-.2,0-.3-.2-.4,0-.1-.2-.2-.4-.3-.1,0-.3-.1-.5-.1h-65.8c-.2,0-.3,0-.5.1-.1,0-.3.2-.4.3,0,.1-.2.3-.2.4,0,.2,0,.3,0,.5ZM205.3,275.1l4.7-16.8c0,0,0-.2.1-.2s.1-.1.2-.2c0,0,.2,0,.2,0,0,0,.2,0,.3,0,0,0,.2,0,.2.1,0,0,.1.1.2.2,0,0,0,.2,0,.2,0,0,0,.2,0,.3l-4.7,16.8c0,.1-.1.3-.2.4-.1,0-.3.1-.4.1h-.2c0,0-.2,0-.2-.1,0,0-.1-.1-.2-.2,0,0,0-.2,0-.3,0,0,0-.2,0-.3ZM201.2,275.1l4.1-16.8c0,0,0-.2.1-.2,0,0,.1-.1.2-.2s.2,0,.2,0c0,0,.2,0,.3,0,0,0,.2,0,.2.1,0,0,.1.1.2.2,0,0,0,.2,0,.3,0,0,0,.2,0,.3l-4.1,16.8c0,.1-.1.3-.2.4-.1,0-.3.1-.4.1h-.2c-.2,0-.3-.2-.4-.3,0-.2-.1-.3,0-.5h0ZM197.1,275.1l3.6-16.8c0-.2.1-.3.3-.4.2,0,.3-.1.5,0,.2,0,.3.1.4.3,0,.2.1.3,0,.5l-3.6,16.8c0,.2-.1.3-.2.4-.1,0-.3.1-.4.1,0,0,0,0-.1,0,0,0-.2,0-.2-.1,0,0-.1-.1-.2-.2,0,0,0-.2,0-.2,0,0,0-.2,0-.3h0ZM193,275.1l3.1-16.8c0-.2.1-.3.3-.4.1,0,.3-.1.5-.1,0,0,.2,0,.2,0,0,0,.1.1.2.2,0,0,0,.2.1.2,0,0,0,.2,0,.3l-3.1,16.8c0,.2-.1.3-.2.4-.1,0-.3.2-.4.1h-.1c-.2,0-.3-.1-.4-.3,0-.1-.1-.3-.1-.5h0ZM188.9,275.1l2.5-16.8c0-.2.1-.3.3-.4.1-.1.3-.2.5-.1s.3.1.4.3c.1.1.2.3.1.5l-2.5,16.8c0,.2-.1.3-.2.4-.1.1-.3.2-.4.2h0c-.2,0-.3-.1-.4-.2s-.2-.3-.2-.4h0ZM184.7,275.1l2-16.8c0,0,0-.2,0-.2,0,0,.1-.1.2-.2,0,0,.1,0,.2-.1,0,0,.2,0,.3,0,0,0,.2,0,.2,0,0,0,.1.1.2.2,0,0,0,.1.1.2,0,0,0,.2,0,.3l-2,16.8c0,.2,0,.3-.2.4-.1.1-.3.2-.4.2h0c-.2,0-.3,0-.4-.2-.1-.1-.2-.3-.2-.4h0ZM175.2,275.1l.7-16.8c0-.2,0-.3.2-.5.1-.1.3-.2.5-.2s.3,0,.5.2c.1.1.2.3.2.5l-.7,16.8c0,.2,0,.3-.2.5-.1.1-.3.2-.5.2s-.3,0-.5-.2c-.1-.1-.2-.3-.2-.5h0ZM171.2,258.5c0-.2,0-.3.2-.5.1-.1.3-.2.5-.2s.3,0,.5.2c.1.1.2.3.2.5v16.8c.1.2,0,.3,0,.5s-.3.2-.5.2-.3,0-.5-.2c-.1-.1-.2-.3-.2-.5v-16.8ZM166.6,258.5c0-.2,0-.4.2-.5.1-.1.3-.2.5-.2.2,0,.4,0,.5.2.1.1.2.3.2.5l.9,16.8c0,0,0,.2,0,.3,0,0,0,.2-.1.2,0,0-.1.1-.2.2,0,0-.2,0-.3,0h0c-.2,0-.3,0-.5-.2-.1-.1-.2-.3-.2-.4l-.9-16.8ZM161.9,258.6c0,0,0-.2,0-.3,0,0,0-.2.1-.2,0,0,.1-.1.2-.2,0,0,.2,0,.3,0,.2,0,.3,0,.5.1.1.1.2.3.2.4l1.7,16.8c0,0,0,.2,0,.3,0,0,0,.2-.1.2,0,0-.1.1-.2.2,0,0-.2,0-.3,0h0c-.2,0-.3,0-.4-.2-.1-.1-.2-.3-.2-.4l-1.7-16.8ZM159.8,275.4l-2.5-16.8c0-.2,0-.4.1-.5.1-.1.3-.2.4-.3,0,0,.2,0,.3,0,0,0,.2,0,.2.1,0,0,.1.1.2.2,0,0,0,.2,0,.2l2.5,16.8c0,.2,0,.4-.1.5-.1.1-.3.2-.4.3h-.1c-.2,0-.3,0-.4-.2-.1-.1-.2-.3-.2-.4h0ZM152.7,258.6c0,0,0-.2,0-.3,0,0,0-.2.1-.2,0,0,.1-.1.2-.2,0,0,.2,0,.2-.1s.2,0,.3,0c0,0,.2,0,.2.1,0,0,.1.1.2.2,0,0,0,.2.1.2l3.3,16.8c0,0,0,.2,0,.3,0,0,0,.2-.1.2s-.1.1-.2.2c0,0-.2,0-.2,0h-.1c-.2,0-.3,0-.4-.1-.1,0-.2-.2-.2-.4l-3.4-16.8Z"/>
  <path class="st3" d="M147.8,256.6l5.3,20.8c0,.3.2.5.5.7s.5.3.8.3h24.3c.3,0,.6-.1.9-.3.2-.2.4-.5.4-.8l2.4-20.8c0-.1,0-.3,0-.4,0-.1-.1-.3-.2-.4,0-.1-.2-.2-.4-.3-.1,0-.3,0-.4,0h-32.5c-.2,0-.3,0-.5.1-.1,0-.3.2-.4.3,0,.1-.2.3-.2.4,0,.2,0,.3,0,.5ZM175.2,275.3l.7-16.8c0-.2,0-.3.2-.5.1-.1.3-.2.5-.2.2,0,.3,0,.5.2.1.1.2.3.2.5l-.7,16.8c0,.2,0,.3-.2.5-.1.1-.3.2-.5.2,0,0-.2,0-.3,0,0,0-.2,0-.2-.2,0,0-.1-.2-.1-.2,0,0,0-.2,0-.3h0ZM171.2,258.5c0-.2,0-.3.2-.5s.3-.2.5-.2.3,0,.5.2c.1.1.2.3.2.5v16.8c.1.2,0,.3,0,.5s-.3.2-.5.2-.3,0-.5-.2c-.1-.1-.2-.3-.2-.5v-16.8ZM166.6,258.5c0-.2,0-.4.2-.5.1-.1.3-.2.5-.2.2,0,.4,0,.5.2.1.1.2.3.2.5l.9,16.8c0,0,0,.2,0,.3,0,0,0,.2-.1.2,0,0-.1.1-.2.2,0,0-.2,0-.3,0h0c-.2,0-.3,0-.5-.2-.1-.1-.2-.3-.2-.4l-.9-16.8ZM161.9,258.6c0,0,0-.2,0-.3,0,0,0-.2.1-.2,0,0,.1-.1.2-.2,0,0,.2,0,.3,0,.2,0,.3,0,.5.1.1.1.2.3.2.4l1.7,16.8c0,0,0,.2,0,.3,0,0,0,.2-.1.2,0,0-.1.1-.2.2,0,0-.2,0-.3,0h0c-.2,0-.3,0-.4-.2-.1-.1-.2-.3-.2-.4l-1.7-16.8ZM159.8,275.4l-2.5-16.8c0-.2,0-.4.1-.5.1-.1.3-.2.4-.3,0,0,.2,0,.3,0,0,0,.2,0,.2.1,0,0,.1.1.2.2,0,0,0,.2,0,.2l2.5,16.8c0,.2,0,.4-.1.5-.1.1-.3.2-.4.3h-.1c-.2,0-.3,0-.4-.2-.1-.1-.2-.3-.2-.4h0ZM152.7,258.6c0,0,0-.2,0-.3,0,0,0-.2.1-.2,0,0,.1-.1.2-.2,0,0,.2,0,.2-.1,0,0,.2,0,.3,0,0,0,.2,0,.2.1,0,0,.1.1.2.2,0,0,0,.2.1.2l3.3,16.8c0,0,0,.2,0,.3,0,0,0,.2-.1.2s-.1.1-.2.2c0,0-.2,0-.2,0h-.1c-.2,0-.3,0-.4-.1-.1,0-.2-.2-.2-.4l-3.4-16.8Z"/>
</svg>