<svg width="233" height="236" viewBox="0 0 233 236" fill="none" xmlns="http://www.w3.org/2000/svg">
<g clip-path="url(#clip0_803_806)" filter="url(#filter0_i_803_806)">
<path d="M115.701 7.53172C134.691 7.53172 140.961 23.4636 141.214 24.1269L148.176 21.482C147.852 20.6053 139.943 0 115.701 0C96.2623 0 86.4517 14.1342 83.9797 21.6088L91.0253 24.0171C91.2551 23.3437 96.8589 7.53172 115.701 7.53172Z" fill="black" fill-opacity="0.6"/>
<path d="M126.74 33.6461L133.703 31.0013C133.522 30.5127 129.12 19.0381 115.701 19.0381C102.231 19.0381 98.2405 30.6339 98.0771 31.1271L105.128 33.5198C105.151 33.4507 107.521 26.5698 115.701 26.5698C123.88 26.5707 126.639 33.3871 126.74 33.6461Z" fill="black" fill-opacity="0.6"/>
<path d="M121.198 40.4561H111.8V47.9878H121.198V40.4561Z" fill="black" fill-opacity="0.6"/>
<path d="M116.5 111.854C89.8334 111.854 68.1389 133.828 68.1389 160.837C68.1389 187.846 89.8339 209.821 116.5 209.821C143.166 209.821 164.861 187.846 164.861 160.837C164.861 133.828 143.166 111.854 116.5 111.854ZM116.5 202.289C93.9332 202.289 75.5749 183.694 75.5749 160.838C75.5749 137.981 93.9332 119.386 116.5 119.386C139.066 119.386 157.425 137.981 157.425 160.837C157.425 183.694 139.066 202.289 116.5 202.289Z" fill="#276EF1"/>
<path d="M116.5 128.514C98.9027 128.514 84.5859 143.014 84.5859 160.838C84.5859 178.662 98.9027 193.163 116.5 193.163C134.097 193.163 148.413 178.662 148.413 160.838C148.413 143.014 134.097 128.514 116.5 128.514ZM116.5 185.631C103.002 185.631 92.0224 174.509 92.0224 160.838C92.0224 147.167 103.002 136.046 116.5 136.046C129.997 136.046 140.977 147.167 140.977 160.838C140.977 174.509 129.996 185.631 116.5 185.631Z" fill="#276EF1"/>
<path d="M179.94 104.714H156.442V112.246H179.94V104.714Z" fill="#276EF1"/>
<path d="M62.4581 104.714H53.0593V112.246H62.4581V104.714Z" fill="#276EF1"/>
<path d="M76.5569 104.714H67.1582V112.246H76.5569V104.714Z" fill="#276EF1"/>
<path d="M165.84 73.7773H156.442V81.3091H165.84V73.7773Z" fill="#276EF1"/>
<path d="M179.939 73.7773H170.541V81.3091H179.939V73.7773Z" fill="#276EF1"/>
<path d="M62.4581 214.188H53.0593V221.719H62.4581V214.188Z" fill="#276EF1"/>
<path d="M62.4581 199.907H53.0593V207.439H62.4581V199.907Z" fill="#276EF1"/>
<path d="M76.5569 214.188H67.1582V221.719H76.5569V214.188Z" fill="#276EF1"/>
<path d="M179.939 214.188H170.541V221.719H179.939V214.188Z" fill="#276EF1"/>
<path d="M116.5 145.173C107.972 145.173 101.034 152.2 101.034 160.838H108.47C108.47 156.353 112.072 152.705 116.499 152.705L116.5 145.173Z" fill="#276EF1"/>
<path d="M116.5 168.971V176.502C125.028 176.502 131.966 169.475 131.966 160.837H124.53C124.53 165.322 120.927 168.971 116.5 168.971Z" fill="#276EF1"/>
<path d="M100.051 73.7773H53.0593V81.3091H100.051V73.7773Z" fill="#276EF1"/>
<path d="M194.906 57.6172V235.5H38.094V57.6172H194.906ZM44.5305 228.969H188.47V95.0879H44.5305V228.969ZM44.5305 88.5557H188.47V64.1484H44.5305V88.5557Z" fill="#276EF1" stroke="white"/>
</g>
<defs>
<filter id="filter0_i_803_806" x="0" y="0" width="233" height="240" filterUnits="userSpaceOnUse" color-interpolation-filters="sRGB">
<feFlood flood-opacity="0" result="BackgroundImageFix"/>
<feBlend mode="normal" in="SourceGraphic" in2="BackgroundImageFix" result="shape"/>
<feColorMatrix in="SourceAlpha" type="matrix" values="0 0 0 0 0 0 0 0 0 0 0 0 0 0 0 0 0 0 127 0" result="hardAlpha"/>
<feOffset dy="4"/>
<feGaussianBlur stdDeviation="2"/>
<feComposite in2="hardAlpha" operator="arithmetic" k2="-1" k3="1"/>
<feColorMatrix type="matrix" values="0 0 0 0 0 0 0 0 0 0 0 0 0 0 0 0 0 0 0.25 0"/>
<feBlend mode="normal" in2="shape" result="effect1_innerShadow_803_806"/>
</filter>
<clipPath id="clip0_803_806">
<rect width="233" height="236" fill="white"/>
</clipPath>
</defs>
</svg>
