<svg width="67" height="67" viewBox="0 0 67 67" fill="none" xmlns="http://www.w3.org/2000/svg">
<path d="M61.7106 33.5001C61.7106 49.0803 49.0803 61.7106 33.5001 61.7106C17.9198 61.7106 5.28955 49.0803 5.28955 33.5001C5.28955 17.9198 17.9198 5.28955 33.5001 5.28955C49.0803 5.28955 61.7106 17.9198 61.7106 33.5001Z" fill="white"/>
<path d="M16.0105 38.2622C16.0105 31.3298 21.8509 25.7098 29.0552 25.7098C32.104 25.7098 34.9075 26.7162 37.1287 28.4018C34.7397 25.4882 31.0372 23.6182 26.8816 23.6182C19.6773 23.6182 13.8369 29.2382 13.8369 36.1706C13.8369 40.1694 15.7802 43.7321 18.8082 46.031C17.0565 43.8937 16.0105 41.1959 16.0105 38.2637V38.2622Z" fill="#2ED1C4"/>
<path d="M37.7061 50.3445C30.5013 50.3445 24.662 44.7242 24.662 37.7913C24.662 34.8574 25.7081 32.1595 27.4599 30.022C24.4317 32.321 22.4883 35.884 22.4883 39.883C22.4883 46.8159 28.3291 52.4348 35.5338 52.4348C39.6897 52.4348 43.3909 50.5647 45.7801 47.6509C43.5588 49.3365 40.755 50.3431 37.7076 50.3431L37.7061 50.3445Z" fill="#2ED1C4"/>
<path d="M50.2597 29.4637C50.2597 36.3966 44.4193 42.017 37.2165 42.017C34.1678 42.017 31.3642 41.0104 29.1431 39.3247C31.5321 42.2386 35.2346 44.1101 39.3901 44.1101C46.5945 44.1101 52.4349 38.4897 52.4349 31.5569C52.4349 27.5578 50.4915 23.9949 47.4636 21.6973C49.2153 23.8348 50.2612 26.5327 50.2612 29.4651L50.2597 29.4637Z" fill="#2ED1C4"/>
<path d="M28.5642 17.3852C35.769 17.3852 41.6097 23.0056 41.6097 29.937C41.6097 32.8709 40.5637 35.5688 38.8119 37.7063C41.84 35.4073 43.7835 31.8443 43.7835 27.8453C43.7835 20.9138 37.9427 15.2935 30.7379 15.2935C26.5821 15.2935 22.8794 17.1636 20.4917 20.0774C22.713 18.3917 25.5168 17.3852 28.5642 17.3852Z" fill="#2ED1C4"/>
</svg>
