<svg width="92" height="92" viewBox="0 0 92 92" fill="none" xmlns="http://www.w3.org/2000/svg">
<path d="M84.7369 46C84.7369 67.3938 67.3938 84.7369 46 84.7369C24.6063 84.7369 7.26318 67.3938 7.26318 46C7.26319 24.6063 24.6063 7.26318 46 7.26318C67.3938 7.26319 84.7369 24.6063 84.7369 46Z" fill="#2ED1C4"/>
<path d="M21.9847 52.5394C21.9847 43.0202 30.0043 35.3032 39.8968 35.3032C44.0831 35.3032 47.9328 36.6852 50.9828 38.9998C47.7023 34.9989 42.6183 32.4312 36.9121 32.4312C27.0197 32.4312 19 40.1482 19 49.6674C19 55.1582 21.6685 60.0503 25.8262 63.207C23.4209 60.2721 21.9847 56.5677 21.9847 52.5414V52.5394Z" fill="white"/>
<path d="M51.7754 69.1297C41.8823 69.1297 33.8641 61.4122 33.8641 51.8924C33.8641 47.8638 35.3005 44.1592 37.7059 41.2241C33.5479 44.381 30.8793 49.2734 30.8793 54.7646C30.8793 64.2844 38.8994 72 48.7926 72C54.4991 72 59.5813 69.4321 62.862 65.431C59.8119 67.7456 55.9619 69.1278 51.7774 69.1278L51.7754 69.1297Z" fill="white"/>
<path d="M69.0133 40.4573C69.0133 49.9771 60.9936 57.6946 51.1032 57.6946C46.9169 57.6946 43.0672 56.3125 40.0172 53.9978C43.2977 57.9989 48.3817 60.5688 54.0878 60.5688C63.9803 60.5688 72 52.8513 72 43.3315C72 37.8403 69.3315 32.9479 65.1738 29.793C67.5791 32.728 69.0153 36.4327 69.0153 40.4593L69.0133 40.4573Z" fill="white"/>
<path d="M39.2225 23.8722C49.1157 23.8722 57.1358 31.5898 57.1358 41.1076C57.1358 45.1362 55.6995 48.8408 53.2941 51.7759C57.4521 48.619 60.1207 43.7265 60.1207 38.2353C60.1207 28.7175 52.1005 21 42.2074 21C36.5009 21 31.4166 23.5679 28.1379 27.569C31.1881 25.2544 35.038 23.8722 39.2225 23.8722Z" fill="white"/>
</svg>
