<svg width="187" height="187" viewBox="0 0 187 187" fill="none" xmlns="http://www.w3.org/2000/svg">
<g filter="url(#filter0_i_731_419)">
<path d="M63.0487 37.4004C47.4627 37.4004 34.7825 50.0883 34.7825 65.6834C34.7825 67.85 36.5378 69.606 38.7025 69.606C40.8676 69.606 42.6226 67.85 42.6226 65.6834C42.6226 54.4137 51.7856 45.2453 63.0487 45.2453C65.2138 45.2453 66.9688 43.4892 66.9688 41.3226C66.9688 39.1564 65.2138 37.4004 63.0487 37.4004Z" fill="#276EF1"/>
<path d="M132.09 110.122C139.176 99.0059 143.282 85.8173 143.282 71.6835C143.282 32.1538 111.147 0 71.6411 0C57.5153 0 44.3343 4.10889 33.225 11.1992C24.3735 16.8457 16.841 24.3827 11.1977 33.2393C4.11144 44.3555 0 57.5492 0 71.6835C0 111.208 32.1399 143.367 71.6411 143.367C85.7669 143.367 98.9529 139.253 110.063 132.162C118.914 126.516 126.446 118.979 132.09 110.122ZM94.8725 116.963C87.9057 120.558 80.0046 122.589 71.6411 122.589C43.5922 122.589 20.7654 99.7492 20.7654 71.6835C20.7654 63.3152 22.7954 55.4093 26.3878 48.4385C31.252 38.995 38.9822 31.2655 48.4198 26.4035C55.3867 22.8089 63.2827 20.7778 71.6407 20.7778C99.6951 20.7778 122.516 43.6126 122.516 71.6835C122.516 80.0466 120.486 87.9473 116.894 94.9182C112.035 104.362 104.31 112.096 94.8725 116.963Z" fill="#276EF1"/>
<path d="M182.44 160.395L141.081 119.114C135.194 127.716 127.651 135.258 119.054 141.154L160.413 182.435C163.455 185.478 167.443 187 171.425 187C175.411 187 179.399 185.478 182.441 182.435C188.52 176.346 188.52 166.482 182.44 160.395Z" fill="#276EF1"/>
</g>
<defs>
<filter id="filter0_i_731_419" x="0" y="0" width="187" height="191" filterUnits="userSpaceOnUse" color-interpolation-filters="sRGB">
<feFlood flood-opacity="0" result="BackgroundImageFix"/>
<feBlend mode="normal" in="SourceGraphic" in2="BackgroundImageFix" result="shape"/>
<feColorMatrix in="SourceAlpha" type="matrix" values="0 0 0 0 0 0 0 0 0 0 0 0 0 0 0 0 0 0 127 0" result="hardAlpha"/>
<feOffset dy="4"/>
<feGaussianBlur stdDeviation="2"/>
<feComposite in2="hardAlpha" operator="arithmetic" k2="-1" k3="1"/>
<feColorMatrix type="matrix" values="0 0 0 0 0 0 0 0 0 0 0 0 0 0 0 0 0 0 0.25 0"/>
<feBlend mode="normal" in2="shape" result="effect1_innerShadow_731_419"/>
</filter>
</defs>
</svg>
