<svg width="283" height="577" viewBox="0 0 283 577" fill="none" xmlns="http://www.w3.org/2000/svg">
<path d="M194.856 381.192L191.082 384.495L190.847 384.966L190.139 386.382L189.903 387.089L189.196 390.863L188.96 393.222L189.196 394.401V395.345L189.667 396.052L190.139 396.288L190.611 396.76L191.082 397.467L190.611 399.119L186.837 404.308L185.422 409.733L184.478 411.148L185.658 412.563L185.422 413.742L184.714 414.922L183.299 416.337L184.478 416.809L187.073 418.696L196.036 430.253L196.507 430.961L196.979 432.376L197.215 433.084L197.923 433.791L199.338 434.735L199.81 435.207L203.348 444.17L204.055 444.877L203.819 445.113L203.112 445.585L202.404 445.821L200.989 445.585L200.045 444.877L199.338 444.17L198.63 442.518L198.394 441.811L197.451 439.688L197.215 438.745L196.979 438.037L196.507 437.565L194.385 436.622L192.498 434.735L192.262 434.027L192.026 433.32L191.79 432.376L191.554 431.668L191.082 430.961L190.611 430.489V430.253L190.375 429.546V429.31L190.139 428.838H189.431H188.724L186.601 429.782H186.129L185.422 430.017L182.591 431.433L179.761 432.376V433.084V433.791L179.289 434.735L178.581 435.678L177.874 436.386L177.402 436.858L176.223 437.565L175.987 438.037L173.628 439.216L172.213 440.867L171.034 442.518L170.798 443.226L169.854 443.462H166.08L164.193 442.754L162.542 442.518L156.881 442.283L155.702 442.047L150.277 438.98L147.918 438.037L143.673 437.565L136.361 434.263L134.474 431.904L131.879 430.961L131.172 430.725H130.228L128.341 431.668H127.634L126.926 431.433L125.983 430.725L125.039 429.546H124.567L123.388 429.31L121.501 429.546L115.133 429.31L114.661 430.253L111.595 427.895L109.943 427.187H109.236H108.292L107.585 426.951L105.698 425.772L104.518 424.828L102.867 424.121L102.16 423.885V422.941L103.575 420.583L104.047 418.696L103.575 417.752L102.867 417.28L101.688 416.809L101.216 416.101V415.629L101.688 415.158V414.45L100.509 411.62V410.912L100.273 410.44L99.8011 409.733L98.8577 408.553L97.2066 406.43L96.2631 406.195L94.8479 406.43L92.725 407.846L91.5457 408.317H89.187L88.0076 407.846L87.3001 407.374L86.8283 406.902L86.5925 406.195L85.8849 405.959L85.1772 405.723L84.7056 406.195L84.9414 406.666L85.1772 407.374L84.9414 408.082L84.4696 408.317L82.3469 407.61L79.9882 407.374L76.686 405.251L74.0915 405.015L73.6197 402.185L73.3837 401.477L72.9121 400.77V399.59V398.883L75.9784 394.873L83.0545 389.92L84.4696 388.269L85.1772 387.089L85.4131 385.674L85.1772 384.966L86.1207 383.315L85.8849 382.136L85.4131 381.9L81.8751 381.192L85.8849 377.654L89.6588 376.947L90.6023 376.239L92.4892 374.588L93.1968 374.352H94.3761L94.8479 374.116L95.3197 373.881L95.7913 373.645L96.2631 372.937V372.229L96.499 371.758H97.2066L98.6218 372.229L99.8011 372.465L100.745 371.994H101.452L101.924 372.229L102.396 371.758L102.632 371.286L103.103 370.814H103.575L104.283 371.286L106.405 373.645L107.113 374.352L109.943 374.824L110.887 375.06L111.359 375.767L111.595 376.475L111.831 376.947L112.066 377.419L112.538 377.654L113.01 377.419L113.481 377.654L113.953 379.07L114.189 379.541L115.604 380.485L117.02 379.07L117.491 377.419V376.475L117.02 375.767L116.076 375.532H115.604L114.189 373.881L113.481 372.937L113.717 372.229L114.189 370.343L113.717 369.399L113.246 369.163L112.302 368.927L107.821 367.04L107.113 366.569L106.641 365.861L106.405 365.153L106.641 364.446L107.113 363.738L107.585 363.031L108.057 362.087L108.292 360.908V359.257L108.528 358.077L109 357.37H109.236H110.415L111.123 356.898L111.831 355.483L113.481 354.068L114.897 353.36L115.604 352.888H116.076L118.435 352.652L119.85 353.124V353.832L119.614 354.539L119.378 355.954L119.614 357.37L120.322 358.077L120.794 357.841L121.029 357.134V356.426V355.954L121.265 355.719V355.483L122.209 355.247L123.624 355.011L124.332 355.247L124.803 355.483L126.69 357.606L126.926 358.549L127.162 360.2L126.926 361.379L127.398 361.615L129.521 361.851L130.228 361.615L130.936 361.379L131.408 360.908L131.879 360.2L133.295 359.257L135.181 358.785L136.125 359.728L139.899 364.918L142.493 366.569L143.201 366.804H144.38L145.088 366.569L146.739 366.804L149.57 365.625L150.277 364.918L151.692 363.031L152.4 363.266L153.815 363.974L154.523 364.21L155.23 363.738H156.174L156.881 363.974L158.768 364.682L159.476 364.446L159.948 364.21L160.419 363.974L160.891 363.031L161.363 362.323L162.542 361.144L163.722 360.908L165.609 360.436L166.788 359.964L167.731 359.257L167.967 358.549V357.841L167.731 357.37L167.26 356.426L168.203 355.483L168.675 355.719L168.911 355.483H169.147L169.382 356.662L172.921 358.077L174.336 359.493L174.807 360.436L175.043 362.323L175.279 363.031V364.21L177.166 365.861L177.874 367.984L178.11 369.635L179.289 371.286L178.817 372.937L179.289 373.881L180.468 376.003L181.176 376.711L182.591 377.419H184.006L184.478 377.654L185.658 377.183L187.544 375.296L189.196 373.645L191.79 372.937H193.441L194.385 373.409L195.328 373.881L195.8 374.824V376.239L195.564 376.947L194.385 378.834L194.149 379.541V380.485L194.856 381.192Z" fill="white" stroke="black" stroke-linecap="round" stroke-linejoin="round"/>
<path d="M194.857 381.193L194.149 380.485V379.542L194.385 378.834L195.565 376.947L195.8 376.239V374.824L195.329 373.881L194.385 373.409L193.442 372.937H191.791L189.196 373.645L187.545 375.296L185.658 377.183L184.479 377.655L184.007 377.419H182.592L181.176 376.711L180.469 376.004L179.29 373.881L178.818 372.937L179.29 371.286L178.11 369.635L177.874 367.984L177.167 365.861L175.28 364.21V363.031L175.044 362.323L174.808 360.436L174.336 359.493L172.921 358.077L169.383 356.662L169.147 355.483H168.911L168.675 355.719L168.204 355.483L167.26 356.426L167.732 357.37L167.968 357.842V358.549L167.732 359.257L166.789 359.964L165.609 360.436L163.722 360.908L162.543 361.144L161.364 362.323L160.892 363.031L160.42 363.974L159.948 364.21L159.476 364.446L158.769 364.682L156.882 363.974L156.174 363.738H155.231L154.523 364.21L153.816 363.974L152.4 363.267L151.693 363.031L150.278 364.918L149.57 365.625L146.74 366.805L145.089 366.569L144.381 366.805H143.202L142.494 366.569L139.899 364.918L136.126 359.729L135.182 358.785L133.295 359.257L131.88 360.2L131.408 360.908L130.936 361.38L130.229 361.616L129.521 361.851L127.398 361.616L126.927 361.38L127.163 360.2L126.927 358.549L126.691 357.606L124.804 355.483L124.332 355.247L123.625 355.011L122.209 355.247L121.266 355.483V355.719L121.03 355.955V356.426V357.134L120.794 357.842L120.322 358.077L119.615 357.37L119.379 355.955L119.615 354.539L119.851 353.832V353.124L118.435 352.653L116.077 352.888H115.605L114.897 353.36L113.482 354.068L111.831 355.483L108.057 354.304L106.878 353.36L106.642 352.417L106.406 351.709L105.698 350.53L104.755 349.586L104.283 348.879L104.047 347.935L103.811 346.756L102.868 346.048L102.16 345.341L100.038 344.633V342.746L102.632 338.736L103.811 337.557L108.529 334.255L113.482 329.537L115.605 327.886L116.548 325.528L117.492 324.348L118.435 324.112L120.086 324.584L121.266 324.112L121.973 323.641L122.209 323.169L122.681 322.461L124.568 320.103L125.983 318.216L126.219 317.508L126.455 315.857L127.163 315.385L131.172 312.555L133.059 309.724L132.823 309.253L132.352 308.309L131.172 307.366L127.634 303.828L129.521 299.11L131.408 296.28L132.823 294.865L134.003 294.393L135.654 294.865L139.192 296.752L140.371 297.931V298.167L140.843 297.931L141.315 297.695L142.966 295.572L143.437 295.1L145.324 294.157L146.504 292.742L147.683 291.091L149.098 289.44L150.749 288.732L151.457 288.024L152.165 286.373L153.344 284.486L154.759 283.543H156.646L158.061 284.486L159.476 284.722L161.364 283.071L162.543 282.128L163.958 280.948L165.609 280.477L166.553 280.712L167.26 282.364L170.091 289.911L171.506 291.327L174.1 294.865L175.516 296.28L178.346 297.695L179.054 298.638L179.997 300.997L181.176 302.177L183.063 303.12L186.601 304.063L187.309 305.007V307.602L186.837 309.96L186.13 311.611L185.658 313.262V315.621L186.13 317.98L186.837 319.159L188.489 320.574L192.734 325.763L191.555 327.886L191.319 330.009L192.027 332.368L193.206 334.019L195.329 335.198L197.687 335.906L199.81 336.849L200.754 338.972L200.518 340.151L199.574 342.274L199.81 343.218L200.754 343.925L201.933 344.633L203.112 344.869L204.292 344.397L206.414 343.218L208.537 342.982L210.896 343.689L212.783 344.869L214.198 346.284L215.377 348.171L215.849 350.53L215.377 352.417L216.321 353.124V354.068L215.849 355.247L215.142 356.191L212.311 361.851L210.188 364.446L208.537 366.097L209.717 368.22L209.245 369.871V371.522L208.537 371.994L207.594 372.937L206.414 373.881L205.235 374.588L201.225 375.532L200.282 376.239L199.81 377.183L198.631 378.598L197.216 379.777L196.036 380.249L194.857 381.193Z" fill="white" stroke="black" stroke-linecap="round" stroke-linejoin="round"/>
<path d="M113.245 39.6543L113.009 39.8901H111.83L103.811 44.3717L101.688 45.0793L94.1399 45.3151L92.9606 45.7869L91.7812 46.2586L91.0735 46.7303L89.6584 47.9097L88.0073 48.6173L87.5355 48.3814H86.8279H86.1203L85.6486 48.8532L84.941 49.5608L84.7052 50.2684L84.4692 51.2119L84.2334 53.0988V53.8064L83.9975 54.514L83.0541 55.4575L82.8181 56.1651L82.5823 56.8727L82.8181 58.0521L81.403 60.8825L80.9312 60.6466L79.9878 60.4108L79.0443 59.939L77.3931 59.7031L74.7986 58.7597L74.0911 58.2879L73.8551 58.5238L73.3833 58.9955L72.9117 59.7031H71.9682L67.7226 59.939L61.3541 62.2977H60.6465L58.9954 62.0618H58.5236V60.6466L57.816 58.5238L57.5802 55.9292L57.816 54.514L59.703 53.8064L65.1279 52.8629L66.5432 52.3912L67.9584 51.2119L69.1377 50.0325L59.703 52.8629L57.5802 53.3347L56.6367 53.0988L54.9856 52.1553L53.3345 48.3814V45.0793L54.0422 39.8901L53.5704 36.588L53.8062 35.4086L54.5138 34.4652L60.4105 29.276L63.477 25.9739L64.4203 21.7282L65.3639 21.0206L67.2508 20.0771L69.6095 19.3695L71.2606 18.1902L71.9682 17.0108L72.9117 14.6521L73.6193 13.4728L75.0345 12.2935L76.4498 12.0576L79.516 11.8217L81.1671 11.35L84.2334 9.22716L85.6486 8.51955L98.8573 6.39673L100.508 5.68912L102.631 3.80217L103.339 3.33043L104.046 3.09456H105.462L107.113 2.38696L109.707 0.5L110.415 1.67935L111.122 3.33043L110.887 8.28368L111.122 10.1706L112.302 11.1141L113.481 10.6424L115.132 9.93476L116.783 9.6989L118.434 10.4065L119.85 11.8217L120.557 13.4728L120.321 15.5956L119.378 17.0108L117.963 18.1902L115.604 19.6054L113.009 22.2L109.707 27.1532L109 29.0402L108.764 31.3989L109.707 33.2858L112.774 34.4652L113.481 35.4086L113.717 37.0597L113.245 39.6543Z" fill="white" stroke="black" stroke-linecap="round" stroke-linejoin="round"/>
<path d="M166.552 280.712L165.609 280.476L163.958 280.948L162.542 282.127L161.363 283.071L159.476 284.722L158.061 284.486L156.646 283.542H154.759L153.343 284.486L152.164 286.373L151.457 288.024L150.749 288.731L149.098 289.439L147.683 291.09L146.503 292.741L145.324 294.156L144.616 292.977L143.909 291.09L143.437 290.147L141.786 287.316L139.899 285.429L138.484 284.25L137.068 283.306L135.417 282.599H134.474L133.53 282.363L132.823 281.891L132.587 280.948L132.823 279.297L132.587 277.646V276.938V275.995L132.351 275.287L132.115 274.579L131.643 274.108L129.521 273.872L126.69 272.928L125.039 273.4L124.567 274.108L123.624 279.768L122.916 280.948L122.445 282.363L122.68 283.542L123.152 285.429L123.388 286.137V286.609L121.501 287.316L118.435 287.552H116.784L114.425 286.137L109.708 284.25L109 282.835L108.764 278.825V276.702L109.236 275.523L109 273.636L109.236 273.164V272.456L109 271.985L108.764 271.277L108.293 270.805L107.349 270.334L106.17 269.862L105.226 269.39L104.754 267.739L104.283 266.324V265.852L104.99 264.909L105.462 264.437V263.729V263.258L105.934 262.55L106.405 262.078L110.179 260.899L111.123 261.135L111.595 260.663L112.302 259.72L113.01 258.776L113.717 258.304H114.425L115.369 257.597L116.076 256.889L117.727 253.587L119.142 252.172L119.378 251.464L120.086 250.992H120.322L121.501 250.756L122.445 249.577L124.332 249.105H125.747L126.219 248.634V248.162L126.454 247.454H126.926L128.105 247.218L128.577 246.747L129.049 246.511L129.757 246.275L130.228 246.511L130.936 246.747H131.172L131.643 246.511L132.823 244.86L133.295 244.388H134.002H135.653L136.597 243.68V243.209L136.361 241.558L136.597 240.614L137.54 239.671L139.663 238.491L140.842 238.255H141.786L142.729 238.491L143.437 238.963L145.088 240.142L145.324 238.02L145.088 236.133L145.56 235.425L146.032 235.189L146.503 235.425V235.661L146.975 236.133L147.447 236.368L148.39 236.133L150.041 234.953L150.749 234.246L151.221 233.538V233.066V232.359L150.985 231.651L150.749 230.472L148.39 228.821L146.975 226.934L146.032 226.226L145.56 225.519L145.088 224.103L145.324 223.16L147.211 218.914L148.862 218.207L150.277 217.971L151.457 217.499L154.523 215.14L156.881 214.197L159.004 212.782L160.891 210.659L162.542 208.3L164.665 209.008L167.731 208.536L168.439 207.828L169.147 207.121L169.618 205.47L169.854 204.762L171.034 202.639L175.279 198.629L178.581 201.224L180.704 201.932H181.648L184.478 200.988L186.129 198.865H186.837L187.78 198.629L189.196 198.394H189.903L190.847 198.865L190.139 205.47L189.196 208.536L188.488 209.479L187.78 210.187L186.837 211.366L186.601 212.31L186.837 212.782L187.073 213.253L187.544 213.489L188.252 213.725L188.96 213.961L190.847 214.433L192.969 214.904L196.979 213.489H200.989L202.168 213.017L202.64 212.546L202.876 211.602L203.348 210.659L203.82 209.951L204.763 209.008L205.235 209.244L205.706 209.715L206.178 210.659L206.886 212.074L207.593 212.782L209.716 213.253L211.603 213.017L213.018 212.782H213.726H214.434L216.556 213.961L217.736 214.904L218.679 215.848L218.915 216.32H219.151L217.972 216.555L214.198 218.914L212.783 219.622L212.075 220.565L211.131 223.16L210.424 224.575L211.131 226.226L211.839 230L212.783 231.415L213.726 231.887L216.085 232.123L217.028 232.595L217.972 233.302L219.151 235.189L221.038 237.548L224.34 243.68L222.925 246.275L222.453 247.454L222.689 248.634L222.453 249.577L221.745 252.408L221.51 252.879L220.802 253.351L220.566 254.059V254.53L220.802 255.71V256.181L220.566 257.361V259.012L220.33 260.191L218.207 263.493L217.264 263.965L215.377 264.673L214.669 265.38L214.198 266.796V267.975L214.669 268.918V269.862L214.434 271.041L213.254 272.928L213.018 273.872V274.815L213.254 275.759V276.466L212.311 278.825L211.131 279.297L198.394 280.948H195.8L193.913 279.768L192.498 280.24L188.96 280.004L187.544 280.476L186.129 280.948L184.95 281.419L166.552 280.476V280.712Z" fill="white" stroke="black" stroke-linecap="round" stroke-linejoin="round"/>
<path d="M219.151 216.321H218.915L218.679 215.849L217.736 214.906L216.556 213.962L214.434 212.783H213.726H213.018L211.603 213.019L209.716 213.254L207.593 212.783L206.886 212.075L206.178 210.66L205.707 209.716L205.235 209.245L204.763 209.009L203.82 209.952L203.348 210.66L202.876 211.603L202.64 212.547L202.168 213.019L200.989 213.49H196.979L192.97 214.906L190.847 214.434L188.96 213.962L188.252 213.726L187.545 213.49L187.073 213.254L186.837 212.783L186.601 212.311L186.837 211.367L187.78 210.188L188.488 209.481L189.196 208.537L190.139 205.471L190.847 198.866L189.903 198.395H189.196L187.78 198.631L186.837 198.866H186.129L184.478 200.989L181.648 201.933H180.704L178.582 201.225L175.279 198.631L171.034 202.64L169.854 204.763L169.619 205.471L169.147 207.122L168.439 207.829L167.732 208.537L164.665 209.009L162.543 208.301L160.891 210.66L159.004 212.783L156.882 214.198L154.523 215.141L151.457 217.5L150.277 217.972L148.862 218.208L147.211 218.915L146.032 216.792L143.673 215.613L144.616 213.254L145.088 211.603L145.56 210.424L146.267 209.481L148.39 208.301V207.358L148.154 206.886L146.975 205.707L146.503 204.763L145.796 200.753V199.81L145.324 199.338L143.909 198.866L143.201 198.395L142.494 197.451L142.729 196.508L143.437 196.036L144.145 195.8L144.852 195.328L145.324 194.621L145.56 193.677V192.734L145.088 192.026L144.381 191.554L143.673 188.96L144.381 188.252L146.975 187.781L147.919 187.545L150.277 185.894L152.636 184.95L155.466 183.063L159.004 181.648L164.665 180.704L164.429 178.346L166.316 172.213L167.496 170.798L167.967 167.968L166.552 165.845L164.665 164.665L163.722 163.014L164.665 161.835L164.901 161.127V160.42L164.665 159.712L164.193 159.005L162.071 157.118L161.363 156.41L161.127 155.466L161.599 154.759L162.543 153.344L163.486 151.693L164.429 148.626L164.665 148.155L165.373 147.447L166.316 146.975H168.439L169.383 147.447L170.562 148.39L173.628 151.457L174.1 151.928L174.572 152.636L175.987 152.872L176.93 151.457L178.817 146.975V145.796L178.582 144.617L178.346 143.909L177.874 141.786L179.053 141.078L182.12 142.022L184.95 139.427L185.658 137.54V136.125V135.418L185.186 134.71L184.478 134.474L183.535 133.767L182.827 133.295L182.355 131.88L182.12 131.172L182.355 130.7L184.478 130.936L185.658 130.229L185.186 127.162L185.422 125.039L186.129 121.737L188.488 114.189L195.092 113.718L197.923 114.425H199.574L200.282 113.246L203.584 110.887L204.527 110.651L203.82 113.01L203.348 113.718L203.584 114.189L204.291 114.661L204.763 114.897L205.471 115.133L206.178 115.369V116.312L205.707 117.256V118.199L206.178 119.85L206.65 121.265L207.593 122.445L215.141 126.455H218.915L220.33 126.926L219.859 129.049L218.915 130.464L219.151 131.88L220.094 133.295L222.689 136.125L223.868 138.248L225.755 142.73L226.463 145.088L227.171 146.032L228.35 146.503L229.293 146.975L229.765 148.626L229.529 150.042L228.114 150.513L227.878 153.344L228.114 154.051L228.35 155.231V155.938L228.114 156.41L227.878 157.589V159.712L228.114 161.363L229.057 165.137L229.765 168.911L230.001 170.798V172.213L229.293 174.1L227.407 177.874L226.935 179.525L227.171 181.412L227.878 182.591L228.822 183.771L229.765 185.186L230.237 187.073L230.001 188.488L227.878 191.319L226.227 195.328L226.935 198.866L228.822 202.169L231.652 204.999L230.237 207.594L229.529 208.301L225.755 211.132L225.284 211.839L224.812 212.547V213.49V214.434L224.576 215.141L222.925 216.321H221.274L219.623 216.085L219.151 216.321Z" fill="white" stroke="black" stroke-linecap="round" stroke-linejoin="round"/>
<path d="M220.33 126.926L218.914 126.454H215.141L207.593 122.444L206.649 121.265L206.178 119.85L205.706 118.199V117.255L206.178 116.312V115.368L205.47 115.132L204.762 114.897L204.29 114.661L203.583 114.189L203.347 113.717L203.819 113.01L204.526 110.651L203.583 110.887L200.281 113.245L199.573 114.425H197.922L195.092 113.717L188.487 114.189L186.129 114.425L183.298 113.481L182.355 112.538L179.76 108.764L178.345 107.821H177.166L177.637 106.405L177.873 105.698L178.109 105.226L179.053 104.754L180.232 104.518L180.468 104.282V103.811L180.232 103.103L180.468 102.16L180.704 100.509L181.411 99.5651L182.355 98.6216L182.591 98.1499L182.355 97.4423L182.591 96.2629L184.006 94.6118L187.072 93.6684L184.949 92.489L184.242 91.5455L183.534 90.1303L183.062 87.7716V82.1108L185.893 79.988L186.6 79.7521L187.544 79.2803L188.251 78.3369L188.723 76.4499L189.903 74.563L190.61 73.6195L191.554 73.1477H192.261L192.969 72.9119L193.676 72.676L193.912 71.9684L193.676 71.2608L193.441 70.5532L192.969 69.8456L192.497 69.138L192.261 68.1945V66.5434L192.497 63.4771L195.327 54.0424L197.45 49.5608L198.158 48.8532L198.63 48.6174L199.101 47.9098L199.337 47.2021V45.5511V44.6076L197.686 42.4848L196.979 40.3619L196.743 39.4185L196.507 37.2957L196.743 34.937L196.979 33.7576L196.271 31.6348V30.9272L197.214 29.512L197.45 27.625L196.743 24.087L196.979 22.4359L197.686 21.7283L198.866 20.7848L200.517 19.8413L201.696 19.6055L204.526 21.2565L207.121 23.6152L209.716 24.7946L212.782 23.6152L214.669 21.9642L215.612 22.4359L216.792 23.1435L218.914 24.7946L221.273 25.2663L226.462 24.7946L228.585 23.3794L229.057 20.0772L231.651 20.5489L234.718 25.2663L237.312 26.2098L243.445 25.9739L246.275 25.0305L247.455 22.4359L249.577 23.3794L250.757 24.7946L250.993 26.6815L250.285 31.6348L250.993 32.5783H252.644L254.767 33.5217L253.823 35.6446L251.7 45.0793L251.464 46.0228L250.757 46.9663L250.285 48.1456L250.521 49.0891L250.993 50.0326L251.464 51.2119L251.7 53.3347L252.172 55.4576L253.351 57.3445L255.71 58.288L256.653 58.0521L257.833 57.3445L259.012 56.6369L259.72 55.9293L260.191 55.2217L261.371 55.4576L268.211 56.8728L272.457 58.288L276.231 60.8826L280.005 64.6565L281.184 66.3075L281.891 67.4869L277.882 73.3836L275.759 75.7423L275.051 76.9217L275.287 77.8651L275.523 78.5727V79.5162L272.221 84.7053V85.6488L269.39 85.8847L268.211 86.3564L267.268 87.2999H267.504V88.0075V88.951L267.268 89.4227L266.796 89.6586L265.852 89.4227H265.381L262.786 93.9042L259.956 96.7347L258.305 97.914L257.125 98.8575L252.172 100.98L251.464 101.688H245.804L244.388 101.924L243.445 103.103L240.379 107.585L239.671 109.472L239.199 110.415L236.133 113.01L234.953 114.425L234.718 115.132L234.953 117.963L234.246 120.086L230.944 125.039L229.764 126.218L227.406 126.454L221.981 125.982L220.33 126.926Z" fill="white" stroke="black" stroke-linecap="round" stroke-linejoin="round"/>
<path d="M196.271 30.9271V31.6347L196.979 33.7575L196.743 34.9369L196.507 37.2956L196.743 39.4184L196.979 40.3619L197.687 42.4847L199.338 44.6075V45.551V47.2021L199.102 47.9097L198.63 48.6173L198.158 48.8532L197.451 49.5608L195.328 54.0423L192.497 63.477L192.262 66.5433V68.1944L192.497 69.1379L192.969 69.8455L193.441 70.5531L193.677 71.2607L193.913 71.9683L193.677 72.6759L192.969 72.9118L192.262 73.1477H191.554L190.61 73.6194L189.903 74.5629L188.724 76.4498L188.252 78.3368L187.544 79.2803L186.601 79.752L185.893 79.9879L183.063 82.1107V87.7716L183.534 90.1303L184.242 91.5455L184.95 92.489L187.072 93.6683L184.006 94.6118L182.591 96.2629L182.355 97.4422L182.591 98.1498L182.355 98.6215L181.412 99.565L180.704 100.508L180.468 102.16L180.232 103.103L180.468 103.811V104.282L180.232 104.518L179.053 104.754L178.109 105.226L177.874 105.698L177.638 106.405L177.166 107.82L167.024 111.594L163.014 112.066L159.476 111.83H159.24H157.825L156.645 112.538L154.051 114.189L152.636 114.897L150.984 115.132L149.333 114.897L147.918 114.661L146.975 113.717L144.852 111.83L143.673 111.123L142.021 111.358L137.54 114.425L138.012 111.594V109L139.191 104.282L138.955 104.047L137.776 103.339L136.361 100.744L135.889 99.0933L136.361 97.4422L134.002 95.7911L132.823 95.0835L132.115 94.14V93.1965V92.0172L130.7 90.3661L131.407 88.2433V87.7716L131.171 86.8281L131.407 86.5922L131.643 86.3563L132.115 86.1205L132.351 85.177L133.53 83.2901L133.766 82.3466L134.002 81.8748L133.53 80.9314L134.238 78.3368L135.181 77.1575L135.653 76.9216H135.889H136.597L137.54 76.214L138.012 74.7988L138.247 74.5629L139.899 73.6194L140.842 72.6759L144.38 67.4868L144.616 66.0716L143.201 63.477L142.729 63.0053L141.786 62.5336L140.135 64.4205L137.54 65.364L136.361 65.1281L133.058 64.4205L132.351 64.1847L131.407 63.7129L130.464 63.477L128.813 62.7694L129.049 57.5803L129.284 56.6368L129.52 55.2216L129.284 54.514L129.049 54.0423L126.69 52.6271L126.218 52.3912H125.511L124.095 53.0988H123.388H122.68H121.973H121.265L120.793 53.3347L119.614 53.5705H118.435L120.557 51.2118L120.793 50.5042L121.265 49.5608L122.208 46.9662L122.916 45.551L123.624 42.2488L123.86 41.5412L124.331 40.8336L124.567 40.126V39.6543L124.331 39.4184L124.567 39.1825L127.162 36.3521L128.105 34.9369L129.049 33.7575L130.464 33.2858L131.643 33.5217H133.294L134.238 32.1065L134.474 29.9836L134.945 28.8043L136.597 28.0967L136.832 31.163L137.54 34.4651H140.135L140.842 33.7575L141.078 33.0499L141.55 32.5782L142.257 32.1065L144.616 32.3423L150.041 30.9271L152.4 29.7478L153.815 30.2195L156.174 31.8706L157.589 32.5782L162.07 32.8141L160.891 36.3521V37.5314L162.306 38.239L163.721 38.4749L165.608 38.0032L167.26 37.5314L168.675 36.588L169.146 35.6445V34.9369L169.382 34.2293L170.09 33.7575H170.562L171.977 34.701H172.684L173.864 35.1728L175.043 36.588L175.987 38.7108L176.222 40.5977L177.402 39.4184L179.525 37.0597L180.704 36.3521L181.883 36.1162H184.95L186.601 35.8804L192.497 33.7575L195.328 32.1065L196.271 30.9271Z" fill="white" stroke="black" stroke-linecap="round" stroke-linejoin="round"/>
<path d="M58.5239 62.0614H58.9957L60.6468 62.2973H61.3544L67.7229 59.9386L71.9685 59.7027H72.912L73.3836 58.9951L73.8554 58.5234L74.0914 58.2875L74.799 58.7592L77.3935 59.7027L79.0446 59.9386L79.9881 60.4103L80.9315 60.6462L81.4033 60.8821L82.8184 58.0516L82.5826 56.8723L82.8184 56.1647L83.0544 55.4571L83.9978 54.5136L84.2337 53.806V53.0984L84.4695 51.2114L84.7055 50.268L84.9413 49.5603L85.6489 48.8527L86.1206 48.381H86.8282H87.5358L88.0076 48.6169L89.6587 47.9093L91.0738 46.7299L91.7816 46.2582L92.9609 45.7864L94.1402 45.3147L101.688 45.0788L103.811 44.3712L111.83 39.8897H113.01L113.246 39.6538V39.8897L120.557 40.3614L124.331 39.418L124.567 39.6538V40.1256L124.331 40.8332L123.86 41.5408L123.624 42.2484L122.916 45.5506L122.209 46.9658L121.265 49.5603L120.793 50.5038L120.557 51.2114L118.435 53.5701H119.614L120.793 53.3342L121.265 53.0984H121.973H122.68H123.388H124.096L125.511 52.3908H126.218L126.69 52.6266L129.049 54.0419L129.285 54.5136L129.521 55.2212L129.285 56.6364L129.049 57.5799L128.813 62.769L130.464 63.4766L131.408 63.7125L132.351 64.1842L133.059 64.4201L136.361 65.1277L137.54 65.3636L140.135 64.4201L141.786 62.5331L142.729 63.0049L143.201 63.4766L144.616 66.0712L144.38 67.4864L140.842 72.6755L139.899 73.619L138.248 74.5625L138.012 74.7983L137.54 76.2136L136.597 76.9212H135.889H135.653L135.181 77.157L134.238 78.3364L133.53 80.9309L134.002 81.8744L133.766 82.3461L133.53 83.2896L132.351 85.1766L132.115 86.12L131.643 86.3559L131.408 86.5918L131.172 86.8277L131.408 87.7711V88.2429L130.7 90.3657L130.464 91.545L130.228 92.0168L129.992 92.4885L129.521 92.9603L129.049 93.1961L128.577 93.6679L128.105 94.1396L127.634 94.6113L126.926 95.0831L126.454 95.3189L125.511 95.5548L124.567 94.6113L122.68 93.6679L121.737 93.9037L119.142 92.7244L116.076 90.3657V89.1864L115.84 88.7146L114.189 86.8277L109.943 85.1766L108.528 87.2994L106.877 88.4787L104.283 89.6581L103.575 89.894L101.688 90.6016H100.98L99.801 89.894L99.0934 89.6581L95.7912 90.1298L92.9609 90.8374L90.838 90.3657L90.3663 89.894L89.6587 89.6581H88.7151L87.0642 90.1298L85.6489 91.0733L84.9413 91.545L84.2337 92.0168L83.5261 92.2526L82.8184 92.4885H78.101L77.1576 92.7244H76.9217L76.2141 92.2526L75.7423 91.545L75.5065 89.894L75.2707 89.1864L75.9783 88.2429L76.9217 88.007L77.3935 87.7711L77.6294 87.0635L77.3935 86.3559L76.4501 85.6483L75.5065 85.4124L74.3272 84.7048L72.912 83.0538L72.2043 82.582L71.4967 81.8744L70.7891 81.6385L68.6663 81.4027L66.3076 80.4592L64.4207 79.2799H62.2979V79.044L61.3544 76.4494L61.1186 74.0907L60.8826 72.4396L60.6468 70.5527L59.4675 67.2505L58.9957 64.656L58.5239 62.769V62.0614Z" fill="white" stroke="black" stroke-linecap="round" stroke-linejoin="round"/>
<path d="M170.09 515.874L170.798 517.053L171.506 517.761L172.921 518.94L173.393 519.648L174.1 521.535L174.572 524.129L174.808 526.488L174.572 527.667L175.987 531.206L176.695 539.697L177.638 543.235L176.931 544.886L177.402 547.245L178.582 551.962L178.818 552.434L179.054 552.905L179.289 553.377L179.997 553.613V554.085L179.289 555.028L177.874 553.849L175.987 553.377H174.1L172.213 553.613L170.326 554.321L166.788 556.679L165.373 557.151L160.42 560.453L159.712 561.397L146.739 570.124L144.145 572.718H142.73L141.55 572.247L139.663 571.775H134.474L132.823 571.067L132.116 572.247H131.172L130.229 571.539L129.285 571.067L130.229 572.483L130.464 573.19L130.7 574.134L128.578 571.303L125.511 568.709L119.379 565.171L116.076 564.463L113.246 563.284H110.416L103.575 564.227L100.509 563.284L97.4428 562.104L94.8483 563.284L91.0743 563.755L87.3004 562.34V562.576L82.583 559.982L79.045 559.274L75.0352 559.746L73.8559 559.982L72.6765 560.925L69.8461 563.755H64.657L63.7135 563.991L61.3548 565.406L60.4113 565.878L58.9961 566.114L57.1092 566.586L55.2223 568.237L53.5712 567.529L51.9201 569.18L51.2125 569.652L50.2689 570.124L48.6178 571.539L47.6744 571.775L46.4951 571.303L45.5516 570.36L44.6082 569.888L43.1929 570.36L43.9004 567.293L44.3722 565.878L44.844 565.171L48.1462 559.982L49.3256 556.915L50.5049 554.321L49.7972 551.254L51.2125 549.839L53.3352 547.716L54.5146 542.999L53.807 541.112L53.0994 539.461L54.5146 536.631L56.8733 534.036L57.345 531.441L58.7603 527.667L59.4679 524.365L60.6472 525.073L62.2984 526.252L63.4777 526.488L64.8929 527.667L65.6004 528.611L66.544 529.319L67.0157 529.554L70.5538 529.79L72.9125 530.97L73.3841 531.206L74.0918 531.441L74.5634 530.97L75.0352 530.498L75.507 530.026L76.2145 529.554L79.5168 529.083L80.4602 529.319L83.7624 531.206L85.1775 531.677L88.7156 532.385L90.3667 531.677L91.782 530.97L92.2536 530.026V529.319L92.9613 528.611L93.1971 528.139L96.4994 526.96L98.3863 526.724L99.3297 526.488L100.273 526.724L100.981 526.252L102.396 526.016L104.519 526.724L105.226 527.903L105.462 529.554L105.698 530.026L106.642 531.206L108.057 531.913L113.954 536.395L116.784 537.338H118.435L121.737 537.574H122.681L123.86 537.102L125.747 535.451L128.813 533.8L129.285 533.564V533.092L128.813 532.149L128.578 531.677V530.97L129.049 530.262L130.229 529.554L132.823 529.083H134.002L136.361 528.611L137.541 528.139L138.012 527.432L138.248 526.724L139.663 525.781L140.843 525.545L141.079 524.837L141.55 524.601L142.258 524.365L143.909 523.422H144.381L144.853 523.186L145.324 522.714L146.975 521.771L153.58 518.94H158.061L158.533 519.176L159.948 519.412L160.42 519.648L161.127 519.412L162.071 518.94L163.722 517.289L165.609 516.346H167.968L170.09 515.874ZM132.351 574.841L136.833 575.313L138.484 574.605L140.607 572.483L140.843 572.954V573.19L141.079 574.134L140.607 574.37V574.841L138.956 575.785L136.833 576.256H134.474L132.351 575.549V574.841Z" fill="white" stroke="black" stroke-linecap="round" stroke-linejoin="round"/>
<path d="M114.66 430.254L115.132 429.311L121.501 429.546L123.388 429.311L124.567 429.546H125.039L125.982 430.726L126.926 431.433L127.633 431.669H128.341L130.228 430.726H131.171L131.879 430.962L134.473 431.905L136.36 434.264L143.672 437.566L147.918 438.038L150.277 438.981L155.702 442.048L156.881 442.283L162.542 442.519L164.193 442.755L166.08 443.463H169.854L170.797 443.227L171.033 442.519L172.212 440.868L173.628 439.217L175.986 438.038L176.222 437.566L177.402 436.858L177.873 436.387L178.581 435.679L179.289 434.736L179.76 433.792V433.085V432.377L182.591 431.433L185.421 430.018L186.129 429.782H186.6L188.723 428.839H189.431H190.138L190.374 429.311V429.546L190.61 430.254V430.49L191.082 430.962L191.554 431.669L191.79 432.377L192.026 433.32L192.261 434.028L192.497 434.736L194.384 436.623L196.507 437.566L196.979 438.038L197.215 438.745L197.45 439.689L198.394 441.812L198.63 442.519L199.337 444.17L200.045 444.878L200.989 445.586L202.404 445.821L203.111 445.586L203.819 445.114L204.055 444.878L205.234 446.057H206.649L208.772 445.586L210.895 444.642L211.838 443.227H212.31L212.546 443.463L214.669 442.755L217.263 442.519L218.443 443.227L218.679 443.463L217.735 446.529L217.028 448.18L215.848 451.954L214.197 455.02L213.49 458.323L212.782 459.738L212.074 462.332L209.952 462.568L204.998 460.681L203.583 460.445L202.875 461.389L201.932 463.512L200.989 464.691L200.517 465.163L199.337 465.634L198.158 466.106L197.215 465.87L196.035 465.634H195.092L194.148 466.106L191.318 466.814L190.846 467.286V468.229L191.082 469.172V470.352L190.61 472.239L188.723 477.428L187.78 480.966L185.421 485.212L177.637 491.816L176.222 494.175L175.043 497.241L174.335 502.43L173.864 504.081L173.156 505.025L171.033 507.383L170.09 508.091L170.326 508.563V509.27L170.09 509.742V510.214L169.146 511.157L168.91 511.629V512.808V513.044H169.382L169.854 514.459V515.167L170.09 515.875L167.967 516.346H165.608L163.721 517.29L162.07 518.941L161.127 519.413L160.419 519.648L159.947 519.413L158.532 519.177L158.06 518.941H153.579L146.974 521.771L145.323 522.715L144.852 523.187L144.38 523.422H143.908L142.257 524.366L141.549 524.602L141.078 524.838L140.842 525.545L139.663 525.781L138.247 526.725L138.011 527.432L137.54 528.14L136.36 528.612L134.002 529.083H132.822L130.228 529.555L129.048 530.263L128.577 530.97V531.678L128.812 532.15L129.284 533.093V533.565L128.812 533.801L125.746 535.452L123.859 537.103L122.68 537.575H121.736L118.434 537.339H116.783L113.953 536.395L108.056 531.914L106.641 531.206L105.697 530.027L105.462 529.555L105.226 527.904L104.518 526.725L102.395 526.017L100.98 526.253L100.272 526.725L99.3288 526.489L98.3855 526.725L96.4985 526.96L93.1963 528.14L92.9605 528.612L92.2528 529.319V530.027L91.7812 530.97L90.3659 531.678L88.7147 532.385L85.1767 531.678L83.7615 531.206L80.4593 529.319L79.5159 529.083L76.2137 529.555L75.5061 530.027L75.0344 530.498L74.5626 530.97L74.091 531.442L73.3832 531.206L72.9116 530.97L70.5529 529.791L67.0149 529.555L66.5431 529.319L65.5996 528.612L64.892 527.668L63.4769 526.489L62.2975 526.253L60.6464 525.073L59.4671 524.366L59.9388 522.951L60.4104 520.12L60.6464 515.167L60.1746 512.572L59.2311 510.921L58.0518 509.506V508.091L58.9953 503.374L59.4671 500.307L60.1746 497.713L61.354 497.005L63.7127 496.533L64.1844 493.939V493.703L63.4769 494.41L61.5898 494.882H59.4671L58.7595 492.995L59.4671 487.57L60.1746 483.561L60.8822 484.504L61.354 485.212L61.8257 485.447H62.5333L63.0051 485.212L63.7127 484.74L64.4203 484.504L65.8356 484.976L66.5431 485.919L66.7789 486.391L68.9018 489.221L69.8452 490.637L70.0812 491.108H70.5529L71.0246 490.637L71.2605 489.929L71.7323 489.693L72.4399 489.929L73.1474 490.165L73.855 490.872L75.2703 491.344L76.2137 491.58L77.629 490.872L78.1006 490.165L78.3366 489.457V488.514L79.28 486.155L79.5159 485.447L81.167 483.796L81.4029 483.089L81.6387 482.145L82.5822 481.438L83.9974 480.73L91.5452 479.315L95.3192 480.022H97.6779H97.9137L100.508 481.438L101.688 478.371L102.159 477.664L103.103 474.833L103.575 469.88V466.814L102.631 464.455L102.159 463.512L100.98 462.568H99.8006L98.8572 462.332L97.9137 461.625L96.4985 460.209L94.8474 458.794L94.6115 457.851L94.3757 457.143V456.671L94.6115 455.964V455.256L94.8474 454.549L95.0832 453.841L95.555 452.898H96.2626L96.7343 453.133H97.2061H97.6779L97.9137 452.662L98.1495 452.426L98.3855 451.246L98.6213 450.775V450.303V449.831L98.8572 449.36L99.5648 449.124L100.037 448.652L100.508 448.416L101.452 448.888L102.159 449.36L102.631 449.595L103.339 449.124L103.81 447.237L104.046 446.293L104.282 445.821L104.99 445.35H108.056L108.528 444.406L108.764 443.227L109.471 442.991L112.538 442.283L113.953 441.576L117.019 440.632L117.491 439.453V438.745V437.566L116.783 434.971L114.66 430.254Z" fill="white" stroke="black" stroke-linecap="round" stroke-linejoin="round"/>
<path d="M81.8748 381.193L85.4128 381.901L85.8846 382.137L86.1204 383.316L85.1768 384.967L85.4128 385.675L85.1768 387.09L84.4693 388.269L83.0541 389.92L75.978 394.874L72.9118 398.883V399.591V400.77L73.3834 401.478L73.6193 402.186L74.0911 405.016L76.6856 405.252L79.9878 407.375L82.3465 407.611L84.4693 408.318L84.941 408.082L85.1768 407.375L84.941 406.667L84.7052 406.195L85.1768 405.724L85.8846 405.96L86.5921 406.195L86.828 406.903L87.2997 407.375L88.0073 407.847L89.1866 408.318H91.5453L92.7247 407.847L94.8476 406.431L96.2627 406.195L97.2063 406.431L98.8574 408.554L99.8008 409.733L100.273 410.441L100.508 410.913V411.62L101.688 414.451V415.158L101.216 415.63V416.102L101.688 416.81L102.867 417.281L103.575 417.753L104.046 418.697L103.575 420.583L102.159 422.942V423.886L102.867 424.121L104.518 424.829L105.697 425.773L107.584 426.952L108.292 427.188H109.236H109.943L111.594 427.895L114.66 430.254L116.783 434.971L117.491 437.566V438.745V439.453L117.019 440.632L113.953 441.576L112.538 442.283L109.471 442.991L108.764 443.227L108.528 444.406L108.056 445.35H104.99L104.282 445.821L104.046 446.293L103.811 447.237L103.339 449.124L102.631 449.595L102.159 449.359L101.452 448.888L100.508 448.416L100.037 448.652L99.5649 449.124L98.8574 449.359L98.6214 449.831V450.303V450.775L98.3856 451.246L98.1496 452.426L97.9138 452.662L97.678 453.133H97.2063H96.7345L96.2627 452.898H95.5551L95.0834 453.841L94.8476 454.549L94.6116 455.256V455.964L94.3758 456.671V457.143L94.6116 457.851L94.8476 458.794L96.4987 460.209L97.9138 461.625L98.8574 462.332L99.8008 462.568H100.98L102.159 463.512L102.631 464.455L103.575 466.814V469.88L103.103 474.833L102.159 477.664L101.688 478.371L100.508 481.438L97.9138 480.022H97.678H95.3193L91.5453 479.315L83.9975 480.73L82.5823 481.438L81.6388 482.145L81.403 483.089L81.1672 483.796L79.5161 485.447L79.2801 486.155L78.3367 488.514V489.457L78.1008 490.165L77.6291 490.872L76.2138 491.58L75.2705 491.344L73.8552 490.872L73.1476 490.165L72.44 489.929L71.7324 489.693L71.2607 489.929L71.0247 490.637L70.5531 491.108H70.0813L69.8454 490.637L68.902 489.221L66.7791 486.391L66.5433 485.919L65.8357 484.976L64.4204 484.504L63.7128 484.74L63.0052 485.212L62.5335 485.447H61.8259L61.3541 485.212L60.8824 484.504L60.1748 483.561L60.4106 481.674V478.136L59.703 475.541L58.5237 472.711L55.6932 472.239L52.1552 470.116L52.3911 469.172L53.0987 468.701L53.8063 468.465L54.5139 467.757L58.7596 458.087L60.4106 450.303L62.2977 444.642L62.0617 438.745L61.3541 431.905L60.6465 425.773L58.5237 421.527L56.165 419.168L53.5705 415.866L50.5042 413.507L47.9096 412.564L49.3249 411.149L51.2118 411.856L54.5139 414.687L58.2879 416.102L60.1748 417.045L60.4106 418.461H63.9486L72.44 420.583L76.6856 419.404L74.0911 419.168L71.9682 418.697L65.5997 415.63L64.8922 414.687L64.4204 413.272L64.1846 411.856L64.4204 410.441L64.8922 409.262L65.5997 408.79V408.082L64.4204 407.611L63.477 406.195L63.241 404.78L63.7128 403.601L62.5335 403.365L60.8824 406.667L58.9954 407.375V408.082L61.1183 408.318L61.8259 409.733V411.62L61.1183 412.564L59.2312 412.328L57.3443 411.856L54.5139 410.205L51.2118 409.026L46.9662 409.969L43.1922 414.451L43.8998 414.923L38.9466 416.81L30.6911 417.989L28.8042 418.697L27.6249 419.64L25.9738 419.876L23.8509 419.404H23.3793L23.1433 418.697V417.989L23.3793 417.281L23.6151 417.045L24.3226 416.102L26.9173 413.507L27.3889 409.969V404.78L25.2662 399.827L22.6715 395.581L21.4922 392.279L23.1433 391.572L27.1531 390.864L30.6911 390.628L32.5781 391.807L33.2856 392.987H33.9934L33.2856 390.864L34.7009 390.156L37.2954 389.449L38.7107 389.213V388.505L39.8901 387.09L41.3053 385.675L43.6639 383.788L46.7302 381.193L47.202 380.957L47.6737 380.486L47.9096 380.25L48.8531 380.014H49.7965L49.5607 381.429L50.0324 383.08L50.74 383.788L51.4476 384.024H52.6269L54.278 383.316L55.2216 382.844L56.6367 382.373L57.5803 382.609L58.2879 382.844L58.9954 384.024L61.3541 384.731H62.0617L63.477 384.26L64.6563 382.609L64.8922 381.901L66.0715 378.835L68.4302 373.881L69.1378 373.646L69.6095 373.881L70.0813 374.353L71.2607 375.061L73.6193 376.004L75.2705 374.825L76.6856 374.353L77.1574 374.589V375.061L76.9214 375.768V376.712V377.419L76.6856 378.363L76.9214 379.306L77.865 380.722L78.8085 380.957L79.7519 380.722L81.8748 381.193Z" fill="white" stroke="black" stroke-linecap="round" stroke-linejoin="round"/>
<path d="M49.7966 380.013H48.8532L47.9096 380.249V379.541L47.2021 378.126L46.2585 376.003L45.5509 373.645L46.2585 371.994L44.3716 372.23L43.4282 370.343L42.9564 367.748L42.0129 365.153L45.7869 357.37L47.9096 353.832L50.9759 351.709L52.627 351.237L56.401 351.001L58.052 350.294L61.1184 347.935V348.407L60.8824 348.879L60.4107 349.114L58.7597 351.237L55.4575 352.181L55.9292 353.124L56.6368 353.832L54.9857 356.426L54.7499 357.37L53.8064 358.549L52.863 360.436L50.0325 368.456L48.8532 370.814L48.1456 371.758L46.9662 373.173V374.352L48.3814 376.239L48.6172 376.711L49.089 377.419L49.7966 380.013ZM60.8824 346.52L57.1086 349.35L49.7966 350.294L48.6172 351.237L46.9662 354.304L42.7205 360.2L38.0031 369.635L35.4086 372.701L34.4651 374.352L33.9934 376.003L34.2293 378.126L34.4651 381.9L34.701 384.495L33.5217 387.089L29.0401 388.269L24.3227 389.212L18.6619 388.74L17.2466 389.92L15.5955 391.807L12.2935 389.684L8.51946 388.033L6.39673 387.797L2.85869 388.269L0.971767 387.797L1.20758 385.438L1.67935 383.551L0.5 378.834V376.475L0.971767 375.532L2.15111 374.116L4.27385 371.994L6.86849 363.267L6.63254 356.426L5.68915 352.417L6.63254 349.822L6.86849 346.992L10.4065 340.859L11.3499 337.793L13.001 333.783L13.4728 329.773L13.9446 326.235L13.4728 323.405H14.1804H17.4826L21.0206 321.046L21.7282 320.574L22.9076 320.81H23.3793L23.851 321.046L24.5587 321.989L25.2663 323.169L27.1532 330.009L28.5683 331.188L30.4554 329.773L32.1064 327.65L34.2293 324.348L35.8804 321.989L36.8238 321.518L37.2955 321.282L38.4749 321.046L39.6542 321.282L41.3053 321.989L43.664 322.697L44.6076 325.292L44.3716 326.943L50.2683 328.594L53.8064 327.65L54.5139 329.301L58.7597 333.547L57.5803 334.49L56.1651 334.962L53.8064 334.726L52.627 335.198L51.4477 336.142V336.613L51.9194 337.321L52.627 337.557L53.0988 338.029L53.8064 339.444L54.0423 340.151L56.6368 342.51L57.1086 342.982L58.9955 343.689L59.4673 344.161L59.939 344.397L60.1749 345.105L60.8824 346.52ZM39.6542 370.107L40.126 369.871V370.578L39.6542 372.23L38.4749 373.881L36.8238 375.532L36.3521 375.296L37.0597 373.409L37.7673 371.758L38.7108 370.814L39.4184 370.343L39.6542 370.107Z" fill="white" stroke="black" stroke-linecap="round" stroke-linejoin="round"/>
<path d="M111.83 355.482L111.123 356.897L110.415 357.369H109.236H109L108.528 358.077L108.292 359.256V360.907L108.056 362.087L107.585 363.03L107.113 363.738L106.641 364.445L106.405 365.153L106.641 365.86L107.113 366.568L107.821 367.04L112.302 368.927L113.246 369.163L113.717 369.398L114.189 370.342L113.717 372.229L113.481 372.936L114.189 373.88L115.604 375.531H116.076L117.019 375.767L117.491 376.475V377.418L117.019 379.069L115.604 380.484L114.189 379.541L113.953 379.069L113.481 377.654L113.01 377.418L112.538 377.654L112.066 377.418L111.83 376.946L111.594 376.475L111.359 375.767L110.887 375.059L109.943 374.823L107.113 374.352L106.405 373.644L104.283 371.285L103.575 370.814H103.103L102.631 371.285L102.396 371.757L101.924 372.229L101.452 371.993H100.744L99.8009 372.465L98.6216 372.229L97.2064 371.757H96.4989L96.2629 372.229V372.936L95.7911 373.644L95.3195 373.88L94.8477 374.116L94.376 374.352H93.1966L92.4891 374.588L90.6021 376.239L89.6586 376.946L85.8847 377.654L81.8749 381.192L79.7521 380.72L78.8087 380.956L77.8651 380.72L76.9216 379.305L76.6858 378.361L76.9216 377.418V376.71V375.767L77.1576 375.059V374.588L76.6858 374.352L75.2706 374.823L73.6195 376.003L71.2608 375.059L70.0815 374.352L69.6097 373.88L69.138 373.644L68.4304 373.88L66.0717 378.833L64.8923 381.899L64.6565 382.607L63.4772 384.258L62.0619 384.73H61.3543L58.9956 384.022L58.288 382.843L57.5805 382.607L56.6369 382.371L55.2218 382.843L54.2782 383.315L52.6271 384.022H51.4478L50.7402 383.786L50.0326 383.079L49.5608 381.428L49.7967 380.013L49.0891 377.418L48.6173 376.71L48.3815 376.239L46.9663 374.352V373.172L48.1457 371.757L48.8533 370.814L50.0326 368.455L52.8631 360.435L53.8065 358.548L54.75 357.369L54.9858 356.426L56.6369 353.831L55.9293 353.123L55.4576 352.18L58.7598 351.237L60.4108 349.114L60.8825 348.878L61.1185 348.406V347.934L62.2978 346.519L63.2412 344.868L60.8825 346.519L60.175 345.104L59.9391 344.396L59.4674 344.16L58.9956 343.689L57.1087 342.981L56.6369 342.509L54.0424 340.151L53.8065 339.443L53.0989 338.028L52.6271 337.556L51.9195 337.32L51.4478 336.613V336.141L52.6271 335.197L53.8065 334.726L56.1652 334.962L57.5805 334.49L58.7598 333.546L54.514 329.301L53.8065 327.65L50.2684 328.593L44.3717 326.942L44.6077 325.291L43.6641 322.696L43.4283 319.158L42.9565 317.035L43.1924 315.856L45.0793 312.554L46.7304 312.082L47.438 311.61L48.1457 310.667L50.976 304.77L52.1554 303.591L54.75 302.647L60.175 302.176L64.4206 302.647L65.5999 301.704L65.8359 300.996V300.525V300.289V300.053L65.1282 298.874V298.166V297.223L65.5999 296.751H66.0717L66.7793 297.223H67.7228L68.4304 296.987L70.5533 294.156L71.0249 293.213L70.0815 290.146V288.259L69.138 284.721L71.0249 283.306L71.9684 282.834L72.4402 282.127L73.1478 281.655L73.6195 280.476L73.1478 278.825L72.4402 277.881L71.7326 277.409L71.2608 276.702L71.0249 275.994V274.579L70.7891 272.692V271.749L71.2608 270.805L71.7326 270.098L75.5065 268.211L77.1576 268.682L78.101 268.446L79.7521 267.739L83.9977 264.673L85.177 264.201H85.8847L87.0641 263.257L88.2434 263.021L89.4228 267.503L89.6586 268.918L90.3662 271.513V272.456L90.6021 272.928L90.8379 273.4L92.2531 272.928L95.7911 271.749L96.9705 271.513L98.8575 270.569L100.509 270.805L100.98 270.569L100.509 268.446V267.503V267.031L101.216 267.267L104.754 267.739L105.226 269.39L106.169 269.862L107.349 270.333L108.292 270.805L108.764 271.277L109 271.984L109.236 272.456V273.164L109 273.636L109.236 275.523L108.764 276.702V278.825L109 282.834L109.707 284.25L114.425 286.137L116.784 287.552H118.435L121.501 287.316L123.388 286.608V286.137L123.152 285.429L122.68 283.542L122.444 282.363L122.916 280.948L123.624 279.768L124.567 274.107L125.039 273.4L126.69 272.928L129.521 273.871L131.643 274.107L132.115 274.579L132.351 275.287L132.587 275.994V276.938V277.645L132.823 279.296L132.587 280.948L132.823 281.891L133.53 282.363L134.474 282.599H135.417L137.068 283.306L138.484 284.25L139.899 285.429L141.786 287.316L143.437 290.146L143.908 291.09L144.616 292.977L145.324 294.156L143.437 295.1L142.965 295.571L141.314 297.694L140.842 297.93L140.37 298.166V297.93L139.191 296.751L135.653 294.864L134.002 294.392L132.823 294.864L131.407 296.279L129.521 299.109L127.633 303.827L131.172 307.365L132.351 308.308L132.823 309.252L133.059 309.724L131.172 312.554L127.162 315.384L126.454 315.856L126.218 317.507L125.982 318.215L124.567 320.102L122.68 322.46L122.209 323.168L121.973 323.64L121.265 324.112L120.086 324.583L118.435 324.112L117.491 324.347L116.548 325.527L115.604 327.885L113.481 329.537L108.528 334.254L103.811 337.556L102.631 338.735L100.037 342.745V344.632L102.16 345.34L102.867 346.047L103.811 346.755L104.047 347.934L104.283 348.878L104.754 349.585L105.698 350.529L106.405 351.708L106.641 352.416L106.877 353.359L108.056 354.303L111.83 355.482Z" fill="white" stroke="black" stroke-linecap="round" stroke-linejoin="round"/>
<path d="M117.727 253.587L116.076 256.889L115.369 257.597L114.425 258.305H113.718L113.01 258.776L112.302 259.72L111.595 260.663L111.123 261.135L110.18 260.899L106.406 262.079L105.934 262.55L105.462 263.258V263.73V264.437L104.99 264.909L104.283 265.852V266.324L104.755 267.739L101.217 267.268L100.509 267.032V267.504V268.447L100.981 270.57L100.509 270.806L98.8579 270.57L96.9709 271.513L95.7915 271.749L92.2535 272.929L90.8383 273.4L90.6025 272.929L90.3666 272.457V271.513L89.659 268.919L89.4232 267.504L88.2438 263.022L87.0645 263.258L85.8851 264.201H85.1774L83.9981 264.673L79.7525 267.739L78.1013 268.447L77.158 268.683L75.5068 268.211L71.733 270.098L71.2612 270.806L70.7895 271.749V272.693L71.0253 274.58V275.995L71.2612 276.702L71.733 277.41L72.4406 277.882L73.1482 278.825L73.6199 280.476L73.1482 281.656L72.4406 282.127L71.9688 282.835L71.0253 283.307L69.1384 284.722L70.0819 288.26V290.147L71.0253 293.213L70.5536 294.157L68.4308 296.987L67.7232 297.223H66.7797L66.0721 296.751H65.6003L65.1285 297.223V298.166V298.874L65.8363 300.053V300.289V300.525V300.997L65.6003 301.705L64.421 302.648L60.1754 302.176L54.7504 302.648L52.1557 303.591L50.9764 304.771L48.1461 310.668L47.4384 311.611L46.7308 312.083L45.0797 312.555L43.1927 315.857L42.9569 317.036L43.4287 319.159L43.6645 322.697L41.3058 321.989L39.6547 321.282L38.4754 321.046L37.296 321.282L36.8243 321.518L35.8809 321.989L34.2298 324.348L32.1069 327.65L30.4559 329.773L28.5688 331.188L27.1537 330.009L25.2668 323.169L24.5592 321.989L23.8515 321.046L23.3798 320.81H22.9081L21.7287 320.574L21.0211 321.046L17.4831 323.404H14.1809H13.4733L12.7657 320.81L11.8222 318.451L8.75592 315.385L8.04834 314.206L8.99173 313.97L13.0015 314.913L19.1341 310.903L20.7852 309.488L22.6721 309.252L23.6156 310.432L24.5592 310.903L25.5026 309.724L24.795 308.309L23.3798 306.894L24.795 304.771L26.6819 302.412L27.3895 301.233L29.0406 300.289L31.3993 298.638L32.8146 296.515L33.5222 294.864L35.4091 291.562L35.6449 289.675L35.4091 287.552L36.3526 284.486L37.0602 280.476L43.6645 262.314L51.4482 239.435L51.9199 239.671L54.0428 240.85L54.9862 241.322L56.1656 241.794L58.996 242.501L59.7036 242.266L60.6471 241.558L62.7699 240.614L67.2514 241.086H68.9025L70.7895 241.558L71.733 242.266L73.1482 243.681L74.0917 244.86L74.3275 245.096H74.7993H75.7427L76.2144 244.86L76.4504 244.624L77.6297 242.501L78.3373 242.03L79.0449 241.794L79.5166 241.558H79.9884L80.696 242.03L81.1678 242.501L81.8753 245.096V246.039V247.926L82.1112 248.634L82.3471 249.342L82.8187 249.813L83.5265 249.106L84.9416 247.219L87.3003 245.804L90.1308 243.445L91.7819 243.681L92.0177 242.973L92.7253 243.209L93.4328 243.681L94.3764 246.039L95.3199 248.162L95.5557 249.577V250.521L95.084 251.229L94.3764 251.7L93.9046 252.172L94.6122 252.408H95.3199L98.8579 250.993L101.688 247.691L102.632 247.455L104.047 248.162L104.755 247.926L105.226 247.455L105.462 246.511L104.99 245.804L104.047 244.86L103.811 244.624L103.575 243.681V242.973L104.755 240.85L108.529 237.548L111.123 238.727L113.718 235.189L114.897 235.897L115.369 236.369L115.84 237.076L116.076 237.784L115.605 241.086L115.84 242.973L119.378 248.634L118.435 249.342L117.963 249.813L117.727 250.993L117.963 251.7V252.172H118.199L117.727 253.587Z" fill="white" stroke="black" stroke-linecap="round" stroke-linejoin="round"/>
<path d="M147.21 218.915L145.323 223.16L145.087 224.104L145.559 225.519L146.031 226.227L146.974 226.934L148.39 228.821L150.748 230.472L150.984 231.652L151.22 232.359V233.067V233.539L150.748 234.246L150.041 234.954L148.39 236.133L147.446 236.369L146.974 236.133L146.503 235.661V235.426L146.031 235.19L145.559 235.426L145.087 236.133L145.323 238.02L145.087 240.143L143.436 238.964L142.729 238.492L141.785 238.256H140.842L139.662 238.492L137.54 239.671L136.596 240.615L136.36 241.558L136.596 243.209V243.681L135.653 244.389H134.002H133.294L132.822 244.86L131.643 246.511L131.171 246.747H130.935L130.228 246.511L129.756 246.276L129.048 246.511L128.577 246.747L128.105 247.219L126.925 247.455H126.454L126.218 248.162V248.634L125.746 249.106H124.331L122.444 249.578L121.501 250.757L120.321 250.993H120.085L119.378 251.465L119.142 252.172L117.727 253.587L118.198 252.172H117.962V251.701L117.727 250.993L117.962 249.814L118.434 249.342L119.378 248.634L115.84 242.973L115.604 241.086L116.076 237.784L115.84 237.077L115.368 236.369L114.896 235.897L113.717 235.19L111.122 238.728L108.528 237.548L104.754 240.851L103.575 242.973V243.681L103.81 244.624L104.046 244.86L104.99 245.804L105.461 246.511L105.225 247.455L104.754 247.927L104.046 248.162L102.631 247.455L101.687 247.691L98.8571 250.993L95.3191 252.408H94.6114L93.9038 252.172L94.3756 251.701L95.0831 251.229L95.5549 250.521V249.578L95.3191 248.162L94.3756 246.04L93.432 243.681L92.7244 243.209L92.0169 242.973L91.7811 243.681L90.1299 243.445L87.2995 245.804L84.9408 247.219L83.5256 249.106L82.8179 249.814L82.3463 249.342L82.1103 248.634L81.8745 247.927V246.04V245.096L81.1669 242.502L80.6952 242.03L79.9876 241.558H79.5158L79.0441 241.794L78.3365 242.03L77.6289 242.502L76.4496 244.624L76.2136 244.86L75.7418 245.096H74.7985H74.3267L74.0909 244.86L73.1473 243.681L71.7322 242.266L70.7886 241.558L68.9017 241.086H67.2506L62.769 240.615L60.6463 241.558L59.7028 242.266L58.9952 242.502L56.1647 241.794L54.9854 241.322L54.042 240.851L51.9191 239.671L51.4474 239.435L54.2778 230.944L55.693 229.293L56.6365 230.708L58.0517 231.416L61.5897 231.652V230.708L60.1745 229.293L58.7594 228.349L57.3441 227.878L53.3343 227.406L51.9191 226.463L50.9756 224.811V222.453L51.9191 219.151L54.5136 213.961L60.4103 191.554L61.3539 186.129V186.365L70.7886 196.035L73.6191 196.507L74.3267 195.328L74.7985 193.441L76.4496 190.61L79.7516 192.969L79.2799 195.564V196.743L79.7516 198.63L80.2234 199.573L80.931 199.809L81.6386 199.338L83.0539 198.394L84.469 197.922L85.4126 197.686L85.8843 200.045L86.8277 201.932L87.0637 202.64L86.8277 203.347L86.5919 204.998L86.3559 205.234L85.8843 205.706L85.6484 205.942L85.1766 206.414L84.705 207.121L83.9973 208.772L83.7614 209.952V210.895L83.9973 211.603L84.469 212.31L89.4224 212.782L90.1299 212.31L90.8375 211.603L91.3093 210.659L93.1962 208.065L93.668 207.121L94.3756 206.414L95.0831 206.178H96.9701L97.9136 204.998V204.055L98.6212 203.111L99.5647 203.583L100.508 204.291L103.103 204.998L104.99 206.414L106.405 207.593L107.82 208.301L108.528 209.008H108.999L109.235 208.536L109.471 208.065V207.593L109.707 207.121L110.179 206.885L113.717 206.178L118.67 206.885L125.039 202.168L129.756 200.045L133.53 197.451L134.945 196.743L137.068 193.441L139.898 191.318L140.842 190.139L141.785 189.431L143.672 188.959L144.38 191.554L145.087 192.026L145.559 192.733V193.677L145.323 194.62L144.852 195.328L144.144 195.8L143.436 196.035L142.729 196.507L142.493 197.451L143.2 198.394L143.908 198.866L145.323 199.338L145.795 199.809V200.753L146.503 204.763L146.974 205.706L148.154 206.885L148.39 207.357V208.301L146.267 209.48L145.559 210.423L145.087 211.603L144.616 213.254L143.672 215.613L146.031 216.792L147.21 218.915Z" fill="white" stroke="black" stroke-linecap="round" stroke-linejoin="round"/>
<path d="M98.6218 203.111L97.9142 204.054V204.997L96.9707 206.177H95.0837L94.3762 206.413L93.6686 207.12L93.1968 208.064L91.3099 210.658L90.8381 211.602L90.1306 212.309L89.423 212.781L84.4696 212.309L83.9979 211.602L83.7621 210.894V209.951L83.9979 208.771L84.7056 207.12L85.1772 206.413L85.649 205.941L85.8849 205.705L86.3566 205.233L86.5925 204.997L86.8283 203.346L87.0643 202.639L86.8283 201.931L85.8849 200.044L85.4132 197.686L84.4696 197.921L83.0545 198.393L81.6392 199.337L80.9316 199.808L80.224 199.572L79.7523 198.629L79.2805 196.742V195.563L79.7523 192.968L76.4502 190.609L74.7991 193.44L74.3273 195.327L73.6197 196.506L70.7893 196.034L61.3545 186.364V186.128L61.5903 184.713L63.2414 179.524L64.185 172.919L64.4208 172.683L64.8925 172.212V174.57V175.278L66.5436 172.448L67.9588 171.504L69.1381 172.212H69.6099V171.504L69.3741 171.268L69.1381 170.561L68.9023 169.853L69.1381 169.145L69.8457 168.674L70.3175 169.145L70.7893 169.617L71.261 170.089L71.9686 169.617L72.6762 168.91L73.8555 167.023L72.4404 166.079L71.7328 164.664L71.9686 163.485L73.3838 163.013L75.5066 162.777L76.9218 162.305L78.3371 161.362L79.7523 159.946L78.1011 160.182L75.9784 161.126L74.3273 161.598L73.8555 161.833H73.3838L71.4968 160.89L70.7893 159.946L70.0817 156.88L73.3838 152.399L72.6762 149.804L72.4404 151.691L71.9686 153.342L71.261 153.814L70.7893 152.163L69.6099 154.521L68.6664 157.352L68.1948 160.654L67.9588 163.485L67.487 165.136L66.5436 167.966L65.3643 170.325L64.4208 171.504L72.6762 133.057V130.463L73.3838 130.227L77.1578 129.755L78.5729 130.699L81.1676 129.755L82.5827 128.812H83.5262L84.4696 129.048L85.1772 129.755L86.3566 130.463H87.3001L87.7719 129.991L88.4794 128.34L88.7153 127.868L90.3664 125.981L92.0175 127.868L92.4892 128.576L92.961 129.755L94.612 130.935H95.3197L95.5555 130.463V129.755L95.0837 129.048V128.34V127.868L97.2066 126.689L99.0935 127.397L103.103 124.566L103.339 124.094L103.811 122.915L109 126.217L109.236 126.925L109.472 128.104V128.812V131.406L115.84 134.473H116.784L117.963 134.237L118.671 132.822L118.907 132.35L119.142 132.114L120.322 131.17H120.794L121.029 131.642L121.265 132.114V132.35L121.029 132.586V133.057L118.199 137.067L117.963 138.247L117.491 139.662L117.727 140.369L117.963 141.785L118.435 144.851L119.142 146.738V148.153L118.671 148.861L117.963 149.097H117.255L116.548 148.861L115.84 148.153L115.133 147.917H114.189L112.538 148.861H111.595H110.651L109.943 148.389L107.349 148.625L108.292 152.163L108.057 152.87L107.349 154.05L105.698 157.824L103.575 160.182L101.688 161.833L100.745 163.249V163.72V164.192L100.98 164.9L101.216 165.607L102.396 167.023L103.103 167.966L103.339 168.674V171.74L104.047 173.391L104.283 173.627L105.934 174.335L107.349 175.514L103.811 176.693L103.339 177.401L102.867 178.108V179.052L103.811 181.411L104.283 183.533L104.754 184.241L105.462 184.713L105.934 185.42L106.877 187.071L102.16 188.958L100.273 190.609L100.037 191.081L100.273 192.025L101.216 193.44V194.855L100.745 195.799L98.386 199.808L98.6218 203.111Z" fill="white" stroke="black" stroke-linecap="round" stroke-linejoin="round"/>
<path d="M130.7 90.3661L132.115 92.0172V93.1965V94.14L132.823 95.0835L134.002 95.7911L136.361 97.4422L135.889 99.0933L136.361 100.744L137.776 103.339L138.955 104.047L139.191 104.282L138.012 109V111.594L137.54 114.425L133.766 116.783L123.388 120.321L120.794 120.557L112.302 120.086L109.472 120.557L103.811 122.916L103.339 124.095L103.103 124.567L99.0935 127.398L97.2066 126.69L95.0837 127.869V128.341V129.049L95.5555 129.756V130.464L95.3197 130.936H94.612L92.961 129.756L92.4892 128.577L92.0175 127.869L90.3664 125.982L88.7153 127.869L88.4794 128.341L87.7719 129.992L87.3001 130.464H86.3566L85.1772 129.756L84.4696 129.049L83.5262 128.813H82.5827L81.1676 129.756L78.5729 130.7L77.1578 129.756L73.3838 130.228L72.6762 130.464V128.813L71.4968 121.265L71.7328 117.255L73.1479 115.84V115.132L70.0817 114.189L68.4306 111.123L67.2512 107.113L65.6001 104.047L66.0719 102.395L65.8361 101.216L65.3643 100.037L64.8925 98.6215V95.0835L64.6567 93.9042L63.949 93.6683L63.7132 92.4889L63.2414 91.3096L62.0621 89.1868L61.5903 87.5357V86.1205L61.3545 82.8183L62.298 79.2803H64.4208L66.3077 80.4596L68.6664 81.4031L70.7893 81.639L71.4968 81.8748L72.2044 82.5824L72.9121 83.0542L74.3273 84.7053L75.5066 85.4129L76.4502 85.6487L77.3936 86.3563L77.6295 87.064L77.3936 87.7716L76.9218 88.0074L75.9784 88.2433L75.2708 89.1868L75.5066 89.8944L75.7424 91.5455L76.2142 92.2531L76.9218 92.7248H77.1578L78.1011 92.4889H82.8185L83.5262 92.2531L84.2338 92.0172L84.9414 91.5455L85.649 91.0737L87.0643 90.1303L88.7153 89.6585H89.6588L90.3664 89.8944L90.8381 90.3661L92.961 90.8379L95.7913 90.1303L99.0935 89.6585L99.8011 89.8944L100.98 90.602H101.688L103.575 89.8944L104.283 89.6585L106.877 88.4792L108.528 87.2998L109.943 85.177L114.189 86.8281L115.84 88.715L116.076 89.1868V90.3661L119.142 92.7248L121.737 93.9042L122.68 93.6683L124.567 94.6118L125.511 95.5552L126.454 95.3194L126.926 95.0835L127.634 94.6118L128.105 94.14L128.577 93.6683L129.049 93.1965L129.521 92.9607L129.992 92.4889L130.228 92.0172L130.464 91.5455L130.7 90.3661Z" fill="white" stroke="black" stroke-linecap="round" stroke-linejoin="round"/>
<path d="M188.488 114.189L186.129 121.737L185.421 125.039L185.186 127.162L185.657 130.228L184.478 130.935L182.355 130.7L182.119 131.171L182.355 131.879L182.827 133.294L183.534 133.766L184.478 134.474L185.186 134.709L185.657 135.417V136.125V137.54L184.95 139.427L182.119 142.021L179.053 141.078L177.874 141.785L178.345 143.908L178.581 144.616L178.817 145.795V146.975L176.93 151.456L175.987 152.871L174.571 152.635L174.1 151.928L173.628 151.456L170.562 148.39L169.382 147.446L168.439 146.975H166.316L165.372 147.446L164.665 148.154L164.429 148.626L163.486 151.692L162.542 153.343L161.599 154.758L161.127 155.466L161.363 156.409L162.07 157.117L164.193 159.004L164.665 159.712L164.901 160.419V161.127L164.665 161.834L163.722 163.014L164.665 164.665L166.552 165.844L167.967 167.967L167.495 170.797L166.316 172.213L164.429 178.345L164.665 180.704L159.004 181.647L155.466 183.063L152.636 184.95L150.277 185.893L147.918 187.544L146.975 187.78L144.38 188.252L143.673 188.959L141.786 189.431L140.842 190.139L139.899 191.318L137.068 193.441L134.945 196.743L133.53 197.451L129.756 200.045L125.039 202.168L118.67 206.885L113.717 206.178L110.179 206.885L109.707 207.121L109.472 207.593V208.065L109.236 208.536L109 209.008H108.528L107.821 208.301L106.405 207.593L104.99 206.414L103.103 204.998L100.508 204.291L99.5651 203.583L98.6216 203.111L98.3857 199.809L100.744 195.799L101.216 194.856V193.441L100.273 192.026L100.037 191.082L100.273 190.61L102.16 188.959L106.877 187.072L105.934 185.421L105.462 184.714L104.754 184.242L104.282 183.534L103.811 181.411L102.867 179.053V178.109L103.339 177.402L103.811 176.694L107.349 175.515L105.934 174.335L104.282 173.628L104.047 173.392L103.339 171.741V168.675L103.103 167.967L102.396 167.023L101.216 165.608L100.98 164.901L100.744 164.193V163.721V163.25L101.688 161.834L103.575 160.183L105.698 157.825L107.349 154.051L108.056 152.871L108.292 152.164L107.349 148.626L109.943 148.39L110.651 148.862H111.594H112.538L114.189 147.918H115.132L115.84 148.154L116.548 148.862L117.255 149.097H117.963L118.67 148.862L119.142 148.154V146.739L118.435 144.852L117.963 141.785L117.727 140.37L117.491 139.663L117.963 138.247L118.199 137.068L121.029 133.058V132.587L121.265 132.351V132.115L121.029 131.643L120.793 131.171H120.322L119.142 132.115L118.906 132.351L118.67 132.822L117.963 134.238L116.784 134.474H115.84L109.472 131.407V128.813V128.105L109.236 126.926L109 126.218L103.811 122.916L109.472 120.557L112.302 120.085L120.793 120.557L123.388 120.321L133.766 116.783L137.54 114.425L142.022 111.358L143.673 111.122L144.852 111.83L146.975 113.717L147.918 114.661L149.333 114.896L150.985 115.132L152.636 114.896L154.051 114.189L156.645 112.538L157.825 111.83H159.24H159.476L163.014 112.066L167.024 111.594L177.166 107.82H178.345L179.761 108.764L182.355 112.538L183.299 113.481L186.129 114.425L188.488 114.189Z" fill="white" stroke="black" stroke-linecap="round" stroke-linejoin="round"/>
</svg>
