<svg width="37" height="46" viewBox="0 0 37 46" fill="none" xmlns="http://www.w3.org/2000/svg">
<g clip-path="url(#clip0_1114_586)">
<path d="M36.1645 0H0.835499C0.374258 0 0 0.4278 0 0.956225V41.3845C0 41.9129 0.374258 42.3407 0.835499 42.3407H36.1645C36.6263 42.3407 37 41.9129 37 41.3845V0.956225C37 0.4278 36.6257 0 36.1645 0ZM35.329 1.91245V8.11727H1.671V1.91245H35.329ZM30.8167 10.2074V29.689C30.8167 32.813 28.5958 35.3539 25.8661 35.3539H11.1333C8.40363 35.3539 6.18269 32.8124 6.18269 29.689V10.2074H30.8162H30.8167ZM1.671 40.4282V10.0291H4.51226V29.689C4.51226 33.8669 7.48286 37.2663 11.1339 37.2663H25.8667C29.5177 37.2663 32.4883 33.8675 32.4883 29.689V10.0291H35.3296V40.4288H1.671V40.4282Z" fill="#276EF1"/>
<path d="M29.4651 5.83384H32.1988C32.6606 5.83384 33.0343 5.40604 33.0343 4.87761C33.0343 4.34919 32.6601 3.92139 32.1988 3.92139H29.4651C29.0033 3.92139 28.6296 4.34919 28.6296 4.87761C28.6296 5.40604 29.0039 5.83384 29.4651 5.83384Z" fill="#276EF1"/>
<path d="M22.4612 5.83384H25.1949C25.6567 5.83384 26.0304 5.40604 26.0304 4.87761C26.0304 4.34919 25.6562 3.92139 25.1949 3.92139H22.4612C21.9994 3.92139 21.6257 4.34919 21.6257 4.87761C21.6257 5.40604 22 5.83384 22.4612 5.83384Z" fill="#276EF1"/>
<path d="M5.34776 44.0874H0.835499C0.373685 44.0874 0 44.5152 0 45.0436C0 45.5721 0.374258 45.9999 0.835499 45.9999H5.34776C5.80958 45.9999 6.18326 45.5721 6.18326 45.0436C6.18326 44.5152 5.809 44.0874 5.34776 44.0874Z" fill="#276EF1"/>
<path d="M36.1644 44.0874H31.6521C31.1903 44.0874 30.8167 44.5152 30.8167 45.0436C30.8167 45.5721 31.1909 45.9999 31.6521 45.9999H36.1644C36.6262 45.9999 36.9999 45.5721 36.9999 45.0436C36.9999 44.5152 36.6257 44.0874 36.1644 44.0874Z" fill="#276EF1"/>
</g>
<defs>
<clipPath id="clip0_1114_586">
<rect width="37" height="46" fill="white"/>
</clipPath>
</defs>
</svg>
