<svg width="24" height="24" viewBox="0 0 24 24" fill="none" xmlns="http://www.w3.org/2000/svg">
<path d="M3.48608 8.96519C3.65408 8.98519 3.82608 8.99819 4.00008 9.00019C4.79008 9.00919 5.53908 8.82219 6.00008 8.50019C6.46108 8.18019 7.21008 7.99319 8.00008 8.00019C8.79008 7.99319 9.53908 8.18019 10.0001 8.50019C10.4611 8.82219 11.2101 9.00919 12.0001 9.00019C12.7901 9.00919 13.5391 8.82219 14.0001 8.50019C14.4611 8.18019 15.2101 7.99319 16.0001 8.00019C16.7901 7.99319 17.5391 8.18019 18.0001 8.50019C18.4611 8.82219 19.2101 9.00919 20.0001 9.00019C20.1701 9.00019 20.3391 8.98619 20.5031 8.96619" stroke="#3D4EB0" stroke-width="2" stroke-linecap="round" stroke-linejoin="round"/>
<path d="M3 6L4.721 16.329C4.79888 16.796 5.0399 17.2202 5.40118 17.5262C5.76245 17.8322 6.22056 18.0001 6.694 18H17.306C17.7794 18.0001 18.2375 17.8322 18.5988 17.5262C18.9601 17.2202 19.2011 16.796 19.279 16.329L21 6" stroke="#3D4EB0" stroke-width="2" stroke-linecap="round" stroke-linejoin="round"/>
</svg>
