<svg width="24" height="24" viewBox="0 0 24 24" fill="none" xmlns="http://www.w3.org/2000/svg">
<path d="M3.48608 5.96519C3.65408 5.98519 3.82608 5.99819 4.00008 6.00019C4.79008 6.00919 5.53908 5.82219 6.00008 5.50019C6.46108 5.18019 7.21008 4.99319 8.00008 5.00019C8.79008 4.99319 9.53908 5.18019 10.0001 5.50019C10.4611 5.82219 11.2101 6.00919 12.0001 6.00019C12.7901 6.00919 13.5391 5.82219 14.0001 5.50019C14.4611 5.18019 15.2101 4.99319 16.0001 5.00019C16.7901 4.99319 17.5391 5.18019 18.0001 5.50019C18.4611 5.82219 19.2101 6.00919 20.0001 6.00019C20.1701 6.00019 20.3391 5.98619 20.5031 5.96619" stroke="#F8F3EA" stroke-width="2" stroke-linecap="round" stroke-linejoin="round"/>
<path d="M3 3L4.721 13.329C4.79888 13.796 5.0399 14.2202 5.40118 14.5262C5.76245 14.8322 6.22056 15.0001 6.694 15H17.306C17.7794 15.0001 18.2375 14.8322 18.5988 14.5262C18.9601 14.2202 19.2011 13.796 19.279 13.329L21 3M5 18H19M5 21H19" stroke="#F8F3EA" stroke-width="2" stroke-linecap="round" stroke-linejoin="round"/>
</svg>
