<svg width="33" height="39" viewBox="0 0 33 39" fill="none" xmlns="http://www.w3.org/2000/svg">
<g clip-path="url(#clip0_401_2577)">
<path d="M16.5003 13.2383C12.8102 13.2383 9.80786 16.2413 9.80786 19.9317C9.80786 23.622 12.8094 26.6258 16.5003 26.6258C20.1912 26.6258 23.192 23.622 23.192 19.9317C23.192 16.2413 20.1905 13.2383 16.5003 13.2383ZM18.6552 18.0798C18.9474 18.0798 19.1842 18.3173 19.1842 18.6081C19.1842 18.8989 18.9482 19.1372 18.6552 19.1372C18.3623 19.1372 18.127 18.8997 18.127 18.6081C18.127 18.3166 18.3638 18.0798 18.6552 18.0798ZM16.089 16.703C16.3355 16.703 16.534 16.9024 16.534 17.1474C16.534 17.3925 16.3347 17.5926 16.089 17.5926C15.8432 17.5926 15.6447 17.394 15.6447 17.1474C15.6447 16.9009 15.8432 16.703 16.089 16.703ZM21.6103 19.9317C21.6103 22.7549 19.3221 25.0437 16.5003 25.0437C13.6786 25.0437 11.4075 22.7713 11.3903 19.9631C16.3804 15.5586 16.1047 24.4524 21.5953 19.5592C21.6043 19.6813 21.6103 19.8058 21.6103 19.9324V19.9317Z" fill="#276EF1" stroke="white" stroke-miterlimit="10"/>
<path d="M23.1875 13.2427C21.4762 11.5302 19.1078 10.4683 16.5003 10.4683C13.8929 10.4683 11.5237 11.5302 9.81236 13.2427C8.10029 14.9545 7.03783 17.3243 7.03857 19.9316C7.03857 22.5405 8.10029 24.9095 9.81236 26.6213C11.5237 28.3338 13.8921 29.3965 16.5003 29.3958C19.1078 29.3958 21.4762 28.3338 23.1875 26.6213C23.8611 25.9475 24.4328 25.1703 24.8801 24.3174H28.7681V16.5846H25.3484C24.8682 15.3195 24.1271 14.1818 23.1875 13.2427ZM22.3708 25.8051C20.8648 27.3115 18.7908 28.2416 16.4996 28.2416C14.2083 28.2416 12.1343 27.3115 10.6283 25.8051C9.12304 24.2987 8.19245 22.2242 8.19245 19.9316C8.19245 17.639 9.12304 15.5668 10.6283 14.0589C12.1343 12.5532 14.2083 11.6224 16.4996 11.6224C18.7908 11.6224 20.8641 12.5532 22.3708 14.0589C23.8761 15.5661 24.8067 17.6398 24.8067 19.9316C24.8067 22.2235 23.8761 24.298 22.3708 25.8051ZM25.7021 17.7395H27.6142V23.1625H25.3926C25.7605 22.1538 25.9613 21.0648 25.9613 19.9316C25.9613 19.1777 25.8699 18.4432 25.7021 17.7395Z" fill="#276EF1"/>
<path d="M32.3916 0.607808C32.0185 0.23383 31.4932 0 30.923 0H2.07697C1.50678 0 0.981541 0.23383 0.608405 0.607808C0.233772 0.981786 0 1.5064 0 2.07749V35.0633C0 35.6343 0.233772 36.159 0.608405 36.5329C0.981541 36.9069 1.50678 37.1415 2.07697 37.1407H3.92242V38.3721H7.46121V37.1407H25.5388V38.3721H29.0776V37.1407H30.923C31.4932 37.1422 32.0185 36.9069 32.3916 36.5329C32.7662 36.1597 33 35.6343 33 35.0633V2.07749C33 1.5064 32.7662 0.981786 32.3916 0.607808ZM31.1538 35.0633C31.1538 35.1307 31.1291 35.1817 31.0864 35.2266C31.0414 35.2701 30.9897 35.2941 30.923 35.2941H2.07697C2.01103 35.2941 1.95859 35.2701 1.91438 35.2266C1.87092 35.1817 1.84769 35.1307 1.84695 35.0633V32.7932H31.1546V35.0633H31.1538ZM31.1538 31.6397H1.8462V2.07749C1.84695 2.01154 1.87092 1.95908 1.91363 1.91486C1.95859 1.87139 2.01029 1.84741 2.07622 1.84591H30.923C30.989 1.84666 31.0414 1.87064 31.0864 1.91486C31.1298 1.95908 31.1538 2.01154 31.1538 2.07749V31.6397Z" fill="#276EF1"/>
<path d="M25.6729 4.4834H7.32629V9.10079H25.6729V4.4834Z" fill="#276EF1"/>
</g>
<defs>
<clipPath id="clip0_401_2577">
<rect width="33" height="38.3721" fill="white"/>
</clipPath>
</defs>
</svg>
